<svg width="194" height="48" viewBox="0 0 194 48" fill="none" xmlns="http://www.w3.org/2000/svg">
<g clip-path="url(#clip0_7664_14286)">
<path d="M41.4424 1.26038V0H23.7152C22.8999 0 22.118 0.323876 21.5415 0.900379C20.965 1.47688 20.6411 2.25879 20.6411 3.07409C20.6411 2.25879 20.3172 1.47688 19.7407 0.900379C19.1642 0.323876 18.3823 0 17.567 0L-0.242188 0V5.95348H41.4424V1.26038Z" fill="#D72134"/>
<path d="M20.6001 47.6075C26.1278 47.6075 31.4292 45.4117 35.3379 41.503C39.2466 37.5943 41.4424 32.293 41.4424 26.7652V8.89453H-0.242188V26.7652C-0.242187 32.293 1.95369 37.5943 5.86238 41.503C9.77108 45.4117 15.0724 47.6075 20.6001 47.6075Z" fill="#D72134"/>
<path d="M2.73438 14.877L9.42564 18.7401L19.4779 36.1599L18.2688 35.4528C17.5961 35.0594 17.0407 34.4934 16.66 33.8133L13.8831 29.0178L12.6944 28.3312C12.0242 27.9482 11.4687 27.3927 11.0856 26.7224L8.31897 21.9269L7.09958 21.2301C6.43688 20.8552 5.88261 20.3151 5.49081 19.6623L2.73438 14.877Z" fill="white"/>
<path d="M28.8353 21.1097C28.1674 21.4959 27.6127 22.0506 27.2265 22.7185L21.3447 32.9654L15.6064 23.0156C15.2173 22.3501 14.6632 21.796 13.9977 21.4069L10.5547 19.4189L19.8589 35.5374L20.5967 36.8285L30.0444 20.4334L28.8353 21.1097Z" fill="white"/>
<path d="M38.4694 14.877L23.4064 18.6376L20.8754 19.2729L21.3365 20.0517L20.0762 20.4308L20.5475 21.2813L19.3281 21.7117L19.861 22.6339L20.3528 23.4946L24.0827 21.7527L23.8163 22.2138L19.861 29.069L21.3468 31.6512L26.7264 22.3367C27.1095 21.6665 27.665 21.111 28.3352 20.728L38.4694 14.877Z" fill="white"/>
<path d="M61.9756 19.2654H61.9244L57.4567 8.91602H53.3477L60.0594 23.7639H63.8405L70.5625 8.91602H66.4433L61.9756 19.2654Z" fill="white"/>
<path d="M107.494 18.3535H107.453L100.926 8.91602H96.9805V23.7639H100.751V14.3264H100.803L107.33 23.7639H111.275V8.91602H107.494V18.3535Z" fill="white"/>
<path d="M123.63 8.91602H119.859V23.7639H130.27L131.746 20.4541H123.63V8.91602Z" fill="white"/>
<path d="M168.779 18.3535H168.738L162.2 8.91602H158.266V23.7639H162.036V14.3264H162.077L168.605 23.7639H172.55V8.91602H168.779V18.3535Z" fill="white"/>
<path d="M193.033 15.808H185.635V18.4414H189.375C189.221 19.9478 187.992 20.8187 185.85 20.8187C185.279 20.8494 184.708 20.7553 184.177 20.543C183.646 20.3306 183.168 20.0051 182.776 19.5891C182 18.6738 181.601 17.4982 181.659 16.2998C181.602 15.1047 182.001 13.9324 182.776 13.0208C183.168 12.6048 183.646 12.2793 184.177 12.0669C184.708 11.8546 185.279 11.7605 185.85 11.7912C186.562 11.7562 187.267 11.9436 187.867 12.3274C188.467 12.7111 188.934 13.2722 189.201 13.9328L192.756 12.9081C191.896 10.2746 189.211 8.46091 185.85 8.46091C184.806 8.40782 183.762 8.57214 182.784 8.94347C181.807 9.31479 180.917 9.88503 180.172 10.6181C179.426 11.3511 178.841 12.231 178.453 13.202C178.065 14.1729 177.883 15.2139 177.919 16.2588C177.882 17.3047 178.063 18.3467 178.45 19.3189C178.837 20.2911 179.422 21.1723 180.168 21.9064C180.914 22.6406 181.804 23.2117 182.782 23.5837C183.76 23.9556 184.805 24.1202 185.85 24.067C190.02 24.067 192.715 21.8844 193.023 18.339C193.094 17.4168 193.023 16.597 193.033 15.808Z" fill="white"/>
<path d="M80.4086 8.91602L73.7891 23.7639H77.6317L78.5846 21.5198L78.7588 21.0996H85.5526L85.7268 21.5198L86.6387 23.7331H90.5428L83.9028 8.91602H80.4086ZM80.0295 18.0563L82.1403 12.9328L84.1897 18.0563H80.0295Z" fill="white"/>
<path d="M142.659 8.91602L136.039 23.7639H139.923L140.835 21.5505L141.009 21.1304H147.803L147.977 21.5505L148.889 23.7639H152.793L146.153 8.91602H142.659ZM142.279 18.0563L144.39 12.9328L146.491 18.0563H142.279Z" fill="white"/>
<path d="M70.6772 31.1318H72.6139V36.5217C72.6139 37.8846 73.3107 38.5096 74.6633 38.5096C76.0159 38.5096 76.7127 37.8846 76.7127 36.532V31.1318H78.6493V36.6037C78.6493 38.981 77.2045 40.2106 74.6325 40.2106C72.0605 40.2106 70.6055 38.981 70.6055 36.6037L70.6772 31.1318Z" fill="white"/>
<path d="M83.5234 40.0262V31.1318H85.6446L89.8048 37.28V31.1318H91.7722V40.0262H89.7228L85.5421 33.878V40.0262H83.5234Z" fill="white"/>
<path d="M96.9805 40.0262V31.1318H98.9274V40.0262H96.9805Z" fill="white"/>
<path d="M106.591 40.0262L102.492 31.1318H104.695L107.523 37.5464L110.423 31.1318H112.626L108.528 40.0262H106.591Z" fill="white"/>
<path d="M116.211 40.0262V31.1318H122.923V32.7918H118.148V34.6568H122.472V36.2758H118.148V38.3252H122.912V40.0262H116.211Z" fill="white"/>
<path d="M135.516 40.0262H133.302L131.253 36.8086H129.685V40.0262H127.738V31.1318H132.421C134.358 31.1318 135.587 32.2385 135.587 33.96C135.616 34.6119 135.404 35.2516 134.993 35.7577C134.581 36.2639 133.998 36.6014 133.354 36.7062L135.516 40.0262ZM132.226 35.0974C133.128 35.0974 133.63 34.6875 133.63 33.9395C133.63 33.1915 133.179 32.8328 132.196 32.8328H129.675V35.0974H132.226Z" fill="white"/>
<path d="M151.41 40.0262V31.1318H153.357V40.0262H151.41Z" fill="white"/>
<path d="M160.745 40.0262V32.8533H157.559V31.1318H165.828V32.8431H162.682V40.0159L160.745 40.0262Z" fill="white"/>
<path d="M172.273 40.0262V36.5012L168.574 31.1318H170.798L173.237 34.8925L175.675 31.1318H177.889L174.19 36.5012V40.0262H172.273Z" fill="white"/>
<path d="M143.829 34.6752C141.78 34.1321 141.534 34.0297 141.473 33.5276C141.411 33.0255 142.067 32.6053 142.979 32.6053C143.402 32.5669 143.826 32.6606 144.193 32.8735C144.56 33.0864 144.852 33.4081 145.028 33.794L146.914 33.3534C146.678 32.6585 146.212 32.0654 145.592 31.6729C144.806 31.1753 143.888 30.9254 142.958 30.9556C140.909 30.9556 139.505 32.0622 139.505 33.5481C139.505 34.8289 140.448 35.5974 142.733 36.1815C144.7 36.6426 145.274 36.9705 145.274 37.5649C145.274 38.1592 144.67 38.5896 143.553 38.5896C143.015 38.6506 142.474 38.5107 142.033 38.1967C141.592 37.8826 141.283 37.4167 141.165 36.8886L139.27 37.3394C139.72 39.1326 141.319 40.1676 143.563 40.1676C145.807 40.1676 147.231 39.1429 147.231 37.5136C147.231 36.1508 146.227 35.2798 143.829 34.6752Z" fill="white"/>
</g>
<defs>
<clipPath id="clip0_7664_14286">
<rect width="194" height="47.6074" fill="white"/>
</clipPath>
</defs>
</svg>
