<svg xmlns="http://www.w3.org/2000/svg" xmlns:xlink="http://www.w3.org/1999/xlink" viewBox="0 0 1442.01 775.64"><defs><style>.cls-1{isolation:isolate;}.cls-2{fill:#e3e7ed;}.cls-3{fill:#fff;stroke:#fff;stroke-miterlimit:10;stroke-width:0.5px;}.cls-4{fill-rule:evenodd;mix-blend-mode:multiply;fill:url(#linear-gradient);}</style><linearGradient id="linear-gradient" x1="682.14" y1="987.78" x2="646.95" y2="155.06" gradientUnits="userSpaceOnUse"><stop offset="0.37" stop-color="#e4e8ef" stop-opacity="0"/><stop offset="0.73" stop-color="#e4e8ef" stop-opacity="0.56"/><stop offset="0.98" stop-color="#e4e8ef"/></linearGradient></defs><title>grey gradient bg</title><g class="cls-1"><g id="Layer_1" data-name="Layer 1"><rect class="cls-2" x="-23.04" y="-20.64" width="1484.37" height="807.74"/><path class="cls-3" d="M1330.86,222.14s-.06,3.72.4,4.19,4.2.41,4.2.41-3.87.07-4.2.4a27.42,27.42,0,0,0-.4,4.19s0-3.81-.41-4.19-4.19-.4-4.19-.4,3.84-.06,4.19-.41S1330.86,222.14,1330.86,222.14Z"/><path class="cls-3" d="M1277.55,648s-.09,5.66.62,6.37,6.37.62,6.37.62-5.87.12-6.37.62-.62,6.37-.62,6.37,0-5.8-.62-6.37-6.37-.62-6.37-.62,5.84-.08,6.37-.62S1277.55,648,1277.55,648Z"/><path class="cls-3" d="M546.49,641s-.1,5.66.61,6.37,6.38.62,6.38.62-5.88.12-6.38.62-.61,6.37-.61,6.37,0-5.8-.62-6.37-6.37-.62-6.37-.62,5.83-.08,6.37-.62S546.49,641,546.49,641Z"/><path class="cls-3" d="M155.15,588.67s-.09,5.67.62,6.38,6.37.61,6.37.61-5.87.12-6.37.62-.62,6.37-.62,6.37,0-5.79-.62-6.37-6.37-.62-6.37-.62,5.84-.08,6.37-.61S155.15,588.67,155.15,588.67Z"/><path class="cls-3" d="M279.42,290.18s-.1,5.67.61,6.38,6.38.61,6.38.61-5.88.12-6.38.62-.61,6.38-.61,6.38-.05-5.8-.62-6.38-6.37-.62-6.37-.62,5.83-.08,6.37-.61S279.42,290.18,279.42,290.18Z"/><path class="cls-3" d="M1341.9,506.47s-.06,3.73.4,4.19,4.2.41,4.2.41-3.87.08-4.2.41a27.31,27.31,0,0,0-.4,4.19s0-3.81-.41-4.19-4.19-.41-4.19-.41,3.84-.05,4.19-.41S1341.9,506.47,1341.9,506.47Z"/><path class="cls-3" d="M1011.76,613.53s-.06,3.73.41,4.2,4.19.4,4.19.4-3.86.08-4.19.41a26.3,26.3,0,0,0-.41,4.19s0-3.81-.4-4.19-4.2-.41-4.2-.41,3.84,0,4.2-.4S1011.76,613.53,1011.76,613.53Z"/><path class="cls-3" d="M928.43,207.72s-.06,3.73.4,4.19,4.2.41,4.2.41-3.87.08-4.2.41a26.21,26.21,0,0,0-.4,4.19s0-3.81-.41-4.19-4.19-.41-4.19-.41,3.84,0,4.19-.41S928.43,207.72,928.43,207.72Z"/><path class="cls-3" d="M318,302.39s-.06,3.73.41,4.19,4.19.41,4.19.41-3.86.08-4.19.41a26.19,26.19,0,0,0-.41,4.19s0-3.82-.4-4.19-4.2-.41-4.2-.41,3.84-.05,4.2-.41S318,302.39,318,302.39Z"/><path class="cls-3" d="M68,254.07s-.06,3.72.41,4.19,4.19.41,4.19.41-3.87.07-4.19.4a26.42,26.42,0,0,0-.41,4.2s0-3.82-.41-4.2-4.19-.4-4.19-.4,3.84-.06,4.19-.41S68,254.07,68,254.07Z"/><path class="cls-3" d="M313.4,476.26s-.06,3.73.41,4.19,4.19.41,4.19.41-3.86.08-4.19.41a26.3,26.3,0,0,0-.41,4.19s0-3.81-.4-4.19-4.2-.41-4.2-.41,3.84-.05,4.2-.41S313.4,476.26,313.4,476.26Z"/><path class="cls-3" d="M216.42,364s-.06,3.73.41,4.19,4.19.41,4.19.41-3.86.08-4.19.41a26.19,26.19,0,0,0-.41,4.19s0-3.82-.4-4.19-4.2-.41-4.2-.41,3.84-.05,4.2-.41S216.42,364,216.42,364Z"/><path class="cls-3" d="M1234.67,354.12s-.07,3.73.4,4.2,4.19.4,4.19.4-3.86.08-4.19.41a26.21,26.21,0,0,0-.4,4.19s0-3.81-.41-4.19-4.19-.41-4.19-.41,3.84-.05,4.19-.4S1234.67,354.12,1234.67,354.12Z"/><path class="cls-3" d="M1351.77,515.86s-.09,5.66.62,6.37,6.37.62,6.37.62-5.87.12-6.37.62-.62,6.37-.62,6.37,0-5.8-.62-6.37-6.37-.62-6.37-.62,5.84-.08,6.37-.62S1351.77,515.86,1351.77,515.86Z"/><path class="cls-4" d="M1535.89,510.29c-127.67-163.84-271.8-154.74-446.6-43.38-262.19,167-470,126.73-640.43-26.25C302,295.17,74.05,251.16-100.63,444.5c-116.45,128.89-133.86,294.81-52.22,477.75L1519,784.79Z"/></g></g></svg>