<svg id="Layer_1" data-name="Layer 1" xmlns="http://www.w3.org/2000/svg" viewBox="0 0 1442 534.5"><defs><style>.cls-1{fill:#f3f6fb;fill-rule:evenodd;}.cls-2,.cls-3{fill:#e4e8ef;stroke:#f3f6fb;stroke-miterlimit:10;}.cls-2{stroke-width:1.25px;}.cls-3{stroke-width:0.5px;}.cls-4{fill:#c2bce2;}</style></defs><title>header mist graphic bg-11</title><polygon class="cls-1" points="0 0 1442 0 1442 534.5 0.3 534.5 0 0"/><g id="Line_shape" data-name="Line shape"><path class="cls-2" d="M1398.2,272.1l-1.6,1.4c-6.4,4.9-14.6,4.6-22.6,4.3-3.2-.1-6.5-.2-9.6,0a38.2,38.2,0,0,0-30.9,21.8,68.5,68.5,0,0,0-2.6,6.8c-1.9,5.6-3.9,11.4-8.5,15.4-7.8,6.7-19.2,5.5-29.3,3.4-15-3.1-30-6.9-44.7-11.2l-4.6-1.3c-12.9-3.8-26.3-7.8-39.7-7.8-23.8,0-45.6,12.1-66.6,23.8-7.5,4.1-15.3,8.5-23.1,12.2s-19.9,8.8-31.8,8.8-23.7-5.5-29.4-14.4c-3.4-5.4-4.7-11.8-6-17.9s-2.4-11.3-5.2-16.1c-7.8-13.4-25.1-17-42.2-19.4s-35.9-7.1-43.3-22.4c-3.8-7.6-3.6-16.2-3.4-24.5.1-6.3.2-12.8-1.3-18.8-3.5-12.9-13.9-21.7-25-31s-21.2-17.8-25.5-30.7-1.4-27.3,7.3-39,23.5-19.1,33.5-22c4.1-1.3,8.4-2.2,12.6-3.2,12-2.7,24.4-5.5,32.3-14.5,5.4-6.1,7.8-14.2,9.6-22.1,1.1-4.5,2.1-9.2,3-13.8,4.5-21.9,9.1-44.4,25.7-59s41.5-17.5,68.4-9.9c13.3,3.8,26,9.7,38.4,15.4,8.7,4,17.8,8.2,27,11.6,18.5,6.8,45.2,12.5,67.4.7,1.4-.7,2.8-1.6,4.2-2.4,4.1-2.4,8.3-4.9,13.1-5.7,10.3-1.8,20,4.4,28.5,9.8l1.6,1.1a181.8,181.8,0,0,0,107.2,28.1l9.9-.8c15.3-1.2,31-2.5,44.9,4.2,11.5,5.6,19.9,17.4,22.5,31.5s-1.3,28.1-10.1,37.4a77.7,77.7,0,0,1-9.9,8.3,101.2,101.2,0,0,0-7.9,6.5c-8,7.4-10.2,16.6-12.6,26.4-1.9,8-4,16.3-9.3,23.6-14.8,19.8-17.2,38.5-8.7,66.5C1404.3,247.5,1407.4,263.2,1398.2,272.1Zm-58.8,14.4a40.5,40.5,0,0,1,24.8-11.4,82,82,0,0,1,9.9-.1c7.8.3,15.2.6,20.8-3.7,9.8-7.6,6.7-23.1,2.4-37.3h0c-8.8-28.6-6.2-48.6,9-69,5.1-6.8,7-14.8,8.9-22.6,2.4-9.7,4.9-19.8,13.3-27.7,2.6-2.4,5.5-4.6,8.2-6.7a73.8,73.8,0,0,0,9.5-8.1c8.3-8.5,11.8-21.6,9.4-34.9s-10.2-24.3-20.9-29.4c-13.2-6.4-28.6-5.2-43.5-4l-10,.8A184.3,184.3,0,0,1,1272.4,3.8l-1.7-1c-8.4-5.4-17.1-11.1-26.4-9.4-4.3.7-8.1,3-12.2,5.3l-4.3,2.5c-23.1,12.3-50.6,6.5-69.7-.6-9.3-3.4-18.4-7.6-27.2-11.7-12.2-5.6-24.9-11.5-38-15.2-26-7.4-50.5-3.9-65.7,9.4s-20.5,36-24.8,57.3l-3,14c-2,8.2-4.5,16.7-10.3,23.2-8.4,9.7-21.3,12.6-33.8,15.4-4.1,1-8.4,1.9-12.4,3.1-9.6,2.9-22.9,8.9-32.1,21.1s-10.7,24.9-6.9,36.4,14.6,20.9,24.7,29.4,22.2,18.7,25.9,32.5c1.7,6.3,1.5,13,1.4,19.5-.2,8.4-.3,16.3,3.1,23.3,6.8,14.1,24.6,18.4,41.2,20.8s35.8,6.3,44.2,20.8c3.1,5.2,4.3,11.2,5.5,17s2.5,11.9,5.7,16.9c5.2,8,15.5,13.1,27,13.1s22.3-4.6,30.6-8.5,15.5-8,23-12.2c21.3-11.8,43.3-24.1,67.9-24.1,13.8,0,27.4,4,40.5,7.9l4.6,1.3c14.6,4.3,29.5,8,44.4,11.1,9.5,2,20.1,3.2,26.9-2.7,4-3.5,5.8-8.7,7.7-14.2.9-2.4,1.7-4.8,2.7-7.1A39.9,39.9,0,0,1,1339.4,286.5Z"/><path class="cls-2" d="M1385.7,263.4a6.9,6.9,0,0,1-1.3,1.1c-5.8,4.6-13.3,4.4-20.5,4.2a84.2,84.2,0,0,0-8.7,0,34.8,34.8,0,0,0-28.1,20,56.7,56.7,0,0,0-2.3,6.2c-1.8,5.1-3.6,10.4-7.8,14.1-7,6.3-17.4,5.3-26.6,3.6-13.9-2.7-27.6-5.9-41-9.6l-4.7-1.3c-4.9-1.4-9.9-2.8-14.9-4a93.8,93.8,0,0,0-21.3-2.7c-11.8-.1-23.8,2.9-37.9,9.4-8,3.6-15.9,8-23.6,12.3s-14.1,7.9-21.3,11.3-16.3,7.2-26.2,7.8H1096c-11.5-.2-21.8-5.5-26.9-13.9-3.1-5-4.3-10.8-5.4-16.4s-2.2-10.7-4.9-15.3c-7.1-12.3-23-15.6-38.7-17.9s-32.9-6.6-39.7-20.6c-3.5-7-3.4-14.9-3.3-22.5.1-5.7.2-11.7-1.3-17.1-3.2-11.8-12.7-19.9-22.8-28.4s-19.5-16.4-23.4-28.3h0c-3.8-11.4-1.3-25.2,6.7-35.9s21.5-17.6,30.6-20.4c3.8-1.2,7.8-2.1,11.6-3,7.3-1.7,14.8-3.4,21-6.8a28.9,28.9,0,0,0,8.6-6.6c4.9-5.6,7.2-13,8.9-20.2,1-4.1,1.9-8.4,2.8-12.6,4.3-20,8.7-40.6,24-53.9s36.1-16.1,60.1-10.6l3,.8c12.3,3.2,24,8.4,35.3,13.4l7.4,3.2c4.7,2,11,4.7,17.3,6.9,17.3,6.1,42.1,11.2,62.4.6l4-2.2c3.7-2.1,7.6-4.4,12-5.1,9.5-1.6,18.3,4.1,26.1,9.1l1.5,1a169.8,169.8,0,0,0,98,26.2l8.6-.4c14.1-.9,28.7-1.9,41.4,4.6,7.5,3.7,13.3,10.2,17,18.5,7,15.8,4.4,34.1-6.3,45.4a90.6,90.6,0,0,1-9,7.6c-2.5,1.9-5,3.9-7.3,6l-.3.3c-6.9,6.7-9,15-11.1,23.8s-3.7,14.9-8.6,21.6c-13.5,18.2-15.7,35.2-7.9,60.8l.6,2C1391.4,241.2,1394.1,255.3,1385.7,263.4Zm-53.2,13.1a37.2,37.2,0,0,1,22.4-10.5c3-.2,6.1-.1,9,0,7.1.2,13.8.4,18.8-3.6,8.7-6.8,6-20.7,2.7-32l-.6-2c-8-26.2-5.6-44.5,8.3-63.2,4.6-6.2,6.4-13.6,8.2-20.6,2.2-8.9,4.4-18.2,12.2-25.4a71.5,71.5,0,0,1,7.4-6.2,68.1,68.1,0,0,0,8.7-7.4c9.9-10.3,12.3-27.8,5.9-42.4-3.5-7.8-8.9-13.7-15.8-17.2-12.1-6.1-26.3-5.2-40.1-4.4l-8.6.5a172.5,172.5,0,0,1-99.5-26.7l-1.5-.9c-7.8-5-15.8-10.2-24.3-8.8-3.9.7-7.4,2.7-11,4.8l-4.1,2.3c-21.2,11-46.8,5.8-64.6-.5-6.4-2.2-12.7-4.9-17.5-6.9l-7.4-3.3c-11.2-4.9-22.8-10-34.9-13.2l-2.9-.7c-23.2-5.4-44.2-1.8-57.7,9.9s-19,32.9-23.1,52.4c-.9,4.2-1.9,8.6-2.9,12.8-1.8,7.5-4.2,15.2-9.5,21.2a31.6,31.6,0,0,1-9.4,7.3c-6.5,3.5-14.2,5.3-21.6,7-3.8.9-7.7,1.8-11.4,2.9-8.8,2.7-21,8.3-29.3,19.5s-9.8,22.8-6.3,33.4h0c3.7,11.2,13.3,19.3,22.6,27.2s20.3,17.1,23.7,29.7c1.6,5.8,1.5,11.9,1.4,17.9-.1,7.6-.2,14.8,3,21.2,6.3,12.9,22.6,16.9,37.7,19.2s32.9,5.9,40.6,19.2c3,4.9,4.1,10.6,5.2,16.1s2.3,10.9,5.1,15.5c4.6,7.6,14,12.5,24.6,12.7h3.3c7.4-.5,15.2-2.8,25.3-7.6,7-3.4,14.2-7.4,21.1-11.2s15.7-8.8,23.8-12.5c14.4-6.6,26.8-9.6,39-9.6a99.4,99.4,0,0,1,21.9,2.8c5,1.2,10.1,2.6,15,4l4.8,1.4c13.2,3.6,26.9,6.8,40.7,9.4,8.6,1.7,18.2,2.6,24.4-2.9,3.6-3.2,5.2-8,7-13,.7-2.1,1.5-4.3,2.4-6.4A34.4,34.4,0,0,1,1332.5,276.5Z"/><path class="cls-2" d="M1373.3,254.6l-1.1,1c-5.3,4.2-12,4-18.5,3.9a67.4,67.4,0,0,0-7.8.1,31.2,31.2,0,0,0-25.1,18.1,55.4,55.4,0,0,0-2.1,5.7c-1.6,4.6-3.2,9.4-7,12.8-6.3,5.8-15.7,5.1-24,3.7-12.7-2.1-25.2-4.8-37.2-7.9l-4.8-1.2c-4.3-1.2-8.8-2.4-13.2-3.3A90.4,90.4,0,0,0,1213,285c-11,0-22,2.6-34.8,8.4-7.3,3.3-14.7,7.4-21.7,11.4s-13,7.2-19.5,10.3-15,6.7-24.4,7.1h-3.3c-10.6-.4-19.7-5.4-24.4-13.4-2.6-4.6-3.7-9.9-4.7-15s-2-10.1-4.5-14.4c-6.6-11.2-21-14.3-35.2-16.5s-29.9-6.2-36.2-18.8c-3.2-6.4-3.1-13.5-3.1-20.4,0-5.2,0-10.6-1.4-15.6-2.9-10.6-11.5-17.9-20.6-25.7s-17.8-15.1-21.4-26-1.1-22.9,6.1-32.7,19.5-16.2,27.8-18.8c3.5-1.1,7.1-2,10.6-2.8,6.6-1.6,13.4-3.2,19-6.3a26.6,26.6,0,0,0,7.9-6c4.4-5.1,6.6-11.8,8.2-18.3.9-3.7,1.8-7.7,2.7-11.5,4-18,8.2-36.7,22.2-48.8S1095.4-3.7,1117.4.9l2.7.6c11.2,2.8,21.9,7.2,32.2,11.4l6.6,2.8c4.7,1.8,10.2,4,15.9,5.9,16,5.4,39,9.8,57.4.5,1.3-.6,2.5-1.3,3.7-2,3.4-1.9,6.9-3.9,10.8-4.5,8.7-1.4,16.8,3.8,23.9,8.4l1.3.8a158.8,158.8,0,0,0,88.9,24.5l7.1-.2c13-.6,26.4-1.2,38.1,5a34.4,34.4,0,0,1,15.1,17.3c6.1,14.5,3.6,31.3-6.2,41.7a77.7,77.7,0,0,1-8.2,7c-2.2,1.7-4.5,3.5-6.6,5.4l-.2.2c-6.3,6.1-8.1,13.6-10.1,21.6s-3.4,13.6-7.8,19.6c-12.2,16.5-14.2,32-7.2,55.1l.6,1.9C1378.4,234.4,1380.9,247.3,1373.3,254.6Zm-47.6,11.8a33.7,33.7,0,0,1,19.9-9.4c2.7-.2,5.5-.1,8.1-.1,6.4.2,12.3.3,16.9-3.3,7.7-6.1,5.5-18.1,2.3-29-.2-.6-.3-1.2-.5-1.8-7.2-23.8-5-40.4,7.5-57.4,4.2-5.6,5.8-12.3,7.4-18.7,2-8.1,4.1-16.4,11.1-23.1a84.9,84.9,0,0,1,6.7-5.5,72.7,72.7,0,0,0,7.9-6.8c9.2-9.6,11.5-25.3,5.8-38.9a31.6,31.6,0,0,0-14-16c-11-5.9-24.1-5.3-36.8-4.8l-7.1.3A162.5,162.5,0,0,1,1270.5,27l-1.3-.9c-7-4.5-14.3-9.2-22.1-8-3.5.6-6.6,2.4-9.9,4.2-1.3.7-2.5,1.5-3.8,2.1-19.3,9.7-42.9,5.2-59.4-.4-5.8-1.9-11.4-4.1-16.1-6l-6.6-2.7c-10.7-4.4-20.8-8.6-31.8-11.3l-2.6-.6c-21.3-4.4-40.6-.9-52.9,9.7s-17.5,29.8-21.4,47.5c-.9,3.8-1.8,7.8-2.7,11.5-1.7,6.9-4,13.9-8.8,19.4a31.7,31.7,0,0,1-8.6,6.6c-5.9,3.2-12.9,4.8-19.6,6.5-3.5.8-7.1,1.7-10.4,2.7-8,2.5-19,7.7-26.5,17.9s-8.9,20.8-5.7,30.4h0c3.3,10.3,12.1,17.7,20.5,24.9s18.3,15.6,21.5,27c1.5,5.2,1.4,10.8,1.4,16.2,0,6.9,0,13.4,2.9,19.2,5.8,11.6,20.6,15.4,34.3,17.5s29.9,5.5,37,17.7c2.7,4.6,3.8,10,4.8,15.2s2,10,4.4,14.2c4.2,7.1,12.7,11.8,22.3,12.1h3.1c8.9-.3,17.6-4,23.4-6.8s13-6.7,19.3-10.2,14.5-8.1,21.9-11.5c13.2-5.9,24.6-8.7,35.9-8.7a94.6,94.6,0,0,1,20,2.6c4.5,1,9,2.1,13.3,3.3l4.8,1.3c11.9,3,24.4,5.7,37,7.8,7.8,1.3,16.4,2,21.9-3.1,3.3-2.9,4.7-7.2,6.3-11.8a45.8,45.8,0,0,1,2.2-5.8A31.5,31.5,0,0,1,1325.7,266.4Z"/><path class="cls-2" d="M1360.9,245.8l-1,.9c-4.6,3.8-10.6,3.7-16.4,3.6a52.5,52.5,0,0,0-6.9.2c-9.4.9-18.3,7.5-22.2,16.3-.7,1.6-1.2,3.4-1.8,5-1.4,4.2-2.8,8.6-6.2,11.6-5.6,5.3-14,5-21.4,3.9-11.5-1.6-22.8-3.8-33.4-6.3l-5.1-1.2-11.3-2.6a96,96,0,0,0-17.8-2.2c-10.1,0-20.2,2.3-31.7,7.5-6.6,3-13.3,6.7-19.8,10.4s-11.7,6.6-17.6,9.4c-8.8,4.1-16,6.1-22.6,6.2h-3c-9.6-.6-17.8-5.4-21.9-12.8-2.3-4.2-3.2-9-4.1-13.6s-1.8-9.6-4.2-13.6c-6-10-18.9-12.9-31.6-15s-26.9-5.7-32.7-17c-2.9-5.8-2.9-12.2-3-18.4,0-4.7,0-9.5-1.3-13.9-2.7-9.5-10.4-16.1-18.5-23s-16-13.8-19.3-23.7h0c-3.1-9.4-1-20.8,5.5-29.6s17.5-14.8,24.9-17.2c3.2-1,6.5-1.8,9.7-2.6,5.8-1.5,11.9-3,17-5.8a25.6,25.6,0,0,0,7-5.4c4.1-4.6,6-10.6,7.6-16.4.9-3.3,1.7-6.9,2.5-10.3,3.8-16.2,7.7-32.9,20.5-43.8s30-13.6,50-10l2.5.5c10.2,2.2,19.5,5.7,29.3,9.5l5.6,2.1c4.5,1.7,9.4,3.5,14.5,5,21.4,6.7,39.1,6.9,52.4.4a36.5,36.5,0,0,0,3.4-1.8c3-1.6,6.2-3.4,9.7-3.9,7.9-1.2,15.1,3.5,21.6,7.7l1.1.7a147.5,147.5,0,0,0,79.8,22.7h5.6c11.9-.2,24.2-.4,34.7,5.6a31.4,31.4,0,0,1,13.3,15.9c5.3,13.3,2.8,28.6-6.1,38.1a72.6,72.6,0,0,1-7.4,6.3,65.5,65.5,0,0,0-5.8,4.9c-5.7,5.5-7.5,12.3-9.3,19.6s-3,12.1-7,17.5c-10.7,14.7-12.6,29-6.4,49.5l.4,1.6C1365.7,228.2,1367.7,239.3,1360.9,245.8Zm-42,10.5a29.6,29.6,0,0,1,17.5-8.3,56.1,56.1,0,0,1,7.1-.1c5.6.1,10.9.1,14.9-3.1,6.8-5.5,4.8-16.3,2-26a7.5,7.5,0,0,0-.5-1.6c-6.4-21.3-4.4-36.3,6.8-51.6,3.7-5.1,5.2-11,6.6-16.7,1.8-7.2,3.7-14.7,9.9-20.7h.1c1.9-1.8,4-3.4,6-5a59.9,59.9,0,0,0,7.1-6.1c8.3-8.8,10.6-23.1,5.7-35.5a29.1,29.1,0,0,0-12.3-14.7c-9.9-5.7-21.9-5.5-33.4-5.2h-5.7c-28.9.2-57.6-8-81.1-23.1l-1.1-.7c-6.4-4.1-13-8.4-19.9-7.3-3.2.5-5.9,2-8.9,3.6a39,39,0,0,1-3.5,1.9c-14,6.7-32.2,6.6-54.2-.2-5.1-1.6-10.1-3.4-14.6-5.1l-5.7-2.2c-9.7-3.7-18.9-7.2-28.9-9.3l-2.4-.5c-19.3-3.5-36.8-.1-48,9.5s-16,26.7-19.7,42.5c-.8,3.4-1.7,6.9-2.6,10.3-1.6,6.1-3.7,12.5-8.1,17.4a29.4,29.4,0,0,1-7.7,6c-5.3,2.9-11.5,4.4-17.5,5.9-3.2.8-6.5,1.6-9.5,2.6-7.1,2.3-17,7-23.8,16.3s-7.9,18.8-5.1,27.4h0c3.1,9.3,10.9,16.1,18.6,22.6s16.3,14.1,19.2,24.3c1.4,4.7,1.4,9.7,1.4,14.5s.1,12,2.8,17.3c5.3,10.3,18.6,13.8,30.9,15.8s26.8,5.1,33.3,16.1c2.6,4.4,3.5,9.4,4.5,14.3s1.7,9.1,3.8,12.9c3.7,6.7,11.1,11.1,20,11.6h2.8c6.2-.1,13.1-2,21.5-6,5.9-2.8,11.8-6.1,17.6-9.3s13.2-7.5,19.9-10.5c11.7-5.2,22.4-7.8,32.7-7.7a93.6,93.6,0,0,1,18.3,2.2c3.8.8,7.7,1.7,11.4,2.7l5,1.2c10.6,2.5,21.8,4.6,33.3,6.2,7.2,1,14.5,1.4,19.4-3.2,2.8-2.8,4.1-6.6,5.5-10.6.6-1.8,1.2-3.5,1.9-5.2A29.6,29.6,0,0,1,1318.9,256.3Z"/><path class="cls-2" d="M1348.4,237.1l-.7.6c-4.1,3.4-9.3,3.4-14.4,3.4a59.1,59.1,0,0,0-6,.2,24.7,24.7,0,0,0-19.2,14.6c-.6,1.4-1.1,2.9-1.6,4.4-1.2,3.7-2.5,7.6-5.4,10.4h0c-5,4.8-12.3,4.7-18.7,4-10.6-1.2-20.3-2.7-29.8-4.7l-5.2-1.1-9.5-2a85.9,85.9,0,0,0-16-1.8c-9.2-.1-18.5,2-28.6,6.4-5.9,2.7-11.9,6.1-17.7,9.4s-10.7,6-16.1,8.5c-8,3.8-14.6,5.5-20.7,5.4h-2.7c-8.7-.8-15.9-5.4-19.5-12.3-1.9-3.8-2.7-8.1-3.4-12.2s-1.6-9-3.9-12.8c-5.3-8.9-16.7-11.5-28-13.4s-23.9-5.3-29.1-15.4c-2.7-5.1-2.8-10.8-2.9-16.3s-.2-8.3-1.4-12.2c-2.4-8.4-9.2-14.2-16.3-20.4s-14.3-12.4-17.2-21.3-.9-18.6,4.8-26.6,15.5-13.2,22.2-15.5l8.6-2.5c5.2-1.3,10.5-2.7,15-5.1a24.1,24.1,0,0,0,6.3-4.9c3.6-4,5.4-9.4,6.9-14.5.8-3,1.6-6.1,2.3-9.1,3.6-14.3,7.3-29.1,18.8-38.7s27-12.5,45-9.8l2.2.4c9.2,1.6,17.6,4.5,26.5,7.5l4.5,1.6,13,4c19.7,5.7,35.7,5.8,47.5.3l3.1-1.6a27.9,27.9,0,0,1,8.6-3.3c7-1,13.5,3.2,19.2,6.9l1,.7c20.2,12.9,45.3,20.4,70.6,20.9h4.2c10.7.1,21.9.2,31.3,6a28.2,28.2,0,0,1,11.5,14.6c4.4,12,2,25.9-6,34.5a56.7,56.7,0,0,1-6.5,5.6c-1.8,1.4-3.6,2.8-5.2,4.3h0c-5.1,4.8-6.6,10.9-8.2,17.3s-2.7,10.7-6.2,15.5c-9.4,13-11.1,25.7-5.7,43.8.1.5.3,1,.4,1.5C1352.7,221.3,1354.5,231.2,1348.4,237.1Zm-36.4,9.2a26.3,26.3,0,0,1,15.1-7.3c2-.2,4.2-.2,6.2-.2,4.9,0,9.5,0,12.9-2.8,5.9-4.9,4.2-14.4,1.7-23-.1-.5-.3-1-.4-1.4-5.6-18.9-3.9-32.2,6-45.8,3.3-4.5,4.6-9.7,5.9-14.8s3.3-13,8.8-18.4h.1a45.1,45.1,0,0,1,5.3-4.5,63.1,63.1,0,0,0,6.2-5.4c7.4-8,9.7-20.9,5.5-32.1a25.5,25.5,0,0,0-10.5-13.4c-8.9-5.5-19.7-5.6-30.2-5.7h-4.1c-25.8-.5-51.3-8.1-71.8-21.3l-1-.6c-5.7-3.7-11.5-7.5-17.7-6.6-2.7.4-5.2,1.7-7.8,3a25.5,25.5,0,0,1-3.3,1.7c-12.3,5.7-28.8,5.6-49-.1l-13.1-4.2-4.6-1.5c-8.8-3-17.1-5.9-26.1-7.5l-2.2-.3c-17.3-2.6-33.1.8-43.1,9.2s-14.6,23.6-18.1,37.6c-.7,3-1.5,6.1-2.3,9.1-1.5,5.4-3.5,11-7.4,15.4a26.7,26.7,0,0,1-6.9,5.4c-4.7,2.5-10.2,4-15.5,5.4-2.9.7-5.8,1.5-8.5,2.4-6.3,2.1-15,6.4-21,14.7s-7,16.7-4.5,24.5h0c2.7,8.3,9.7,14.4,16.5,20.3s14.4,12.5,17,21.4c1.3,4.2,1.4,8.6,1.5,12.9s.2,10.7,2.6,15.3c4.7,9.1,16.6,12.2,27.5,14.1s23.8,4.8,29.6,14.5c2.4,4.2,3.3,9,4.1,13.6s1.5,8,3.3,11.5c3.1,6.2,9.7,10.4,17.6,11.1h2.5c5.7.1,12.2-1.6,19.8-5.2,5.3-2.5,10.6-5.5,15.8-8.4s11.9-6.8,18-9.5c10.3-4.5,20-6.7,29.5-6.6a89.4,89.4,0,0,1,16.4,1.8l9.6,2,5.2,1.2a284.9,284.9,0,0,0,29.5,4.6c6.3.7,12.6.8,16.9-3.4h0c2.5-2.4,3.6-5.8,4.8-9.4.5-1.5,1.1-3.1,1.7-4.6A26.5,26.5,0,0,1,1312,246.3Z"/><path class="cls-2" d="M1336,228.3l-.5.5c-3.5,3-8,3.1-12.4,3.1l-5.1.3a21,21,0,0,0-16.2,12.8c-.5,1.2-1,2.5-1.4,3.8-1,3.2-2.1,6.6-4.6,9.1,0,.1-.1.1-.2.2-4.3,4.1-10.4,4.3-15.9,4a223.2,223.2,0,0,1-26-3.1l-5.6-1-7.5-1.4a88.4,88.4,0,0,0-14.2-1.5,61.1,61.1,0,0,0-25.5,5.5,170.2,170.2,0,0,0-15.8,8.3c-4.7,2.7-9.5,5.4-14.3,7.6-7.2,3.4-13.4,4.9-18.9,4.7l-2.5-.2c-7.7-1.1-13.9-5.4-16.9-11.9-1.6-3.3-2.2-7.1-2.8-10.7s-1.5-8.4-3.6-11.9c-4.7-7.8-14.6-10.2-24.4-12s-21-4.9-25.6-13.6c-2.4-4.4-2.6-9.4-2.8-14.2a41.6,41.6,0,0,0-1.3-10.6c-2.3-7.2-8.1-12.3-14.2-17.8s-12.6-11-15.1-19-.8-16.4,4.2-23.4,13.5-11.8,19.3-13.9l7.6-2.3c4.5-1.2,9.1-2.5,13-4.6a27.6,27.6,0,0,0,5.6-4.3c3.1-3.5,4.8-8.1,6.2-12.6l2.1-7.9c3.4-12.4,6.9-25.3,17.1-33.7,12.8-10.6,30.5-10.5,39.9-9.5l1.9.2c8.4,1.1,16,3.3,24,5.7l3.6,1,11.2,3.1c18.2,4.5,32.1,4.6,42.5.1l2.8-1.4a26.8,26.8,0,0,1,7.5-2.7c6.1-.8,11.9,2.9,16.9,6.2l.8.5c17.6,11.4,38.8,18,61.5,19.2h2.4c9.8.5,19.9,1,28.2,6.7a25.1,25.1,0,0,1,9.7,13.3c3.6,10.9,1.3,22.9-5.9,30.8a64.4,64.4,0,0,1-5.7,4.9c-1.5,1.2-3,2.4-4.4,3.7h0c-4.4,4.2-5.7,9.5-7.2,15.1s-2.4,9.3-5.4,13.6c-8.1,11.3-9.6,22.3-5,38a9.3,9.3,0,0,1,.4,1.3C1339.7,214.5,1341.3,223.2,1336,228.3Zm-30.9,8a22.9,22.9,0,0,1,12.7-6.3,46.1,46.1,0,0,1,5.3-.2c4.1-.1,8-.1,11-2.6,5-4.3,3.4-12.5,1.3-20l-.3-1.2c-4.9-16.5-3.3-28.1,5.3-40,2.8-3.9,3.9-8.2,5-12.8s2.9-11.5,7.8-16.2h0a55.8,55.8,0,0,1,4.6-3.9,49.2,49.2,0,0,0,5.4-4.7c6.5-7.1,8.7-18.6,5.4-28.6a22.9,22.9,0,0,0-8.8-12.2c-7.8-5.3-17.2-5.8-27.1-6.3h-2.4c-23.1-1.3-44.7-8-62.5-19.5l-.9-.6c-4.9-3.2-10.1-6.5-15.5-5.8a20.4,20.4,0,0,0-6.7,2.5,20.9,20.9,0,0,1-3,1.4c-10.8,4.7-25.2,4.7-43.8,0l-11.3-3.1L1183,55c-7.9-2.3-15.4-4.4-23.6-5.5l-1.9-.2c-9.1-1-26.1-1.1-38.3,9-9.7,7.9-13.1,20.5-16.4,32.6-.7,2.6-1.4,5.3-2.2,7.9-1.4,4.7-3.2,9.6-6.6,13.4a24.5,24.5,0,0,1-6.1,4.8c-4.2,2.2-8.9,3.5-13.5,4.8-2.5.7-5.1,1.4-7.5,2.3-5.5,1.9-13.1,5.8-18.2,13.1s-6.1,14.7-3.9,21.5h0c2.3,7.4,8.5,12.8,14.4,18s12.4,11,14.8,18.7c1.2,3.7,1.3,7.5,1.5,11.2s.4,9.3,2.5,13.3c4.2,7.9,14.1,10.6,24.1,12.5s20.7,4.4,25.9,12.9c2.3,3.9,3.1,8.4,3.8,12.7a40.1,40.1,0,0,0,2.6,10.2,19.2,19.2,0,0,0,15.3,10.6l2.3.2c5.1.2,11-1.2,17.9-4.4,4.7-2.2,9.5-4.9,14.1-7.6s10.6-6,16-8.4c9.1-3.9,17.7-5.8,26.4-5.7a93.2,93.2,0,0,1,14.6,1.6l7.5,1.3,5.6,1.1a245.1,245.1,0,0,0,25.7,3c5.4.4,10.9.1,14.5-3.5s3-5.1,4-8.3l1.4-3.9A24.1,24.1,0,0,1,1305.1,236.3Z"/><path class="cls-2" d="M1323.5,219.6l-.3.3c-2.9,2.6-6.6,2.7-10.2,2.8a28.5,28.5,0,0,0-4.2.4,17.6,17.6,0,0,0-13.4,11c-.4,1-.7,2.1-1.1,3.2-.9,2.7-1.8,5.6-3.8,7.8-3.5,3.9-8.8,4.4-13.5,4.4a192.2,192.2,0,0,1-22.2-1.5l-6.3-.9-5.2-.8a123.2,123.2,0,0,0-12.5-1.2,53.4,53.4,0,0,0-22.3,4.6,124.7,124.7,0,0,0-14,7.3c-4.1,2.3-8.2,4.8-12.4,6.7-6.6,3-12.2,4.2-17.1,3.8l-2.2-.3a18.9,18.9,0,0,1-14.5-11.3,42,42,0,0,1-2.2-9.3c-.6-3.8-1.2-7.8-3.2-11.1-4-6.7-12.5-8.8-20.8-10.5s-18-4.4-22.1-11.8c-2.1-3.8-2.4-8.1-2.6-12.2a33.1,33.1,0,0,0-1.4-8.9c-2-6.1-6.8-10.5-12-15.1s-10.8-9.7-13-16.7-.7-14.1,3.6-20.3,11.5-10.4,16.4-12.2a65.7,65.7,0,0,1,6.7-2.2,56.9,56.9,0,0,0,10.9-4.1,18.5,18.5,0,0,0,4.8-3.7c2.8-3,4.3-6.9,5.5-10.7l2.1-6.6c3.1-10.6,6.4-21.6,15.3-28.7,10.5-8.6,24.8-9.8,34.9-9.3h1.6c7.5.5,14.3,2,21.5,3.6l3.9.9,8.1,1.8c11.4,2.4,26,4.5,37.5,0l2.5-1.1a19.7,19.7,0,0,1,6.3-2.2c5.4-.6,10.3,2.6,14.7,5.5l.7.4c14.5,9.4,32.6,15.4,52.3,17.4h.4c8.9.9,18,1.8,25.4,7.5a23.3,23.3,0,0,1,7.8,11.9c2.7,9.6.4,20.2-5.8,27.2a46.5,46.5,0,0,1-4.8,4.2l-3.8,3.2c-3.7,3.7-4.8,8.2-6.1,12.9s-2,8-4.6,11.6c-6.8,9.6-8.1,19-4.2,32.4l.3,1.1C1326.8,207.7,1328.1,215.2,1323.5,219.6Zm-25.2,6.6a19.2,19.2,0,0,1,10.2-5.2c1.4-.2,2.9-.2,4.4-.3,3.4-.1,6.6-.2,9-2.4,4-3.6,2.8-10.6,1-16.9l-.3-1.1c-4-14-2.7-23.9,4.6-34.1,2.3-3.3,3.3-7,4.3-10.9s2.5-9.8,6.6-13.8a40.1,40.1,0,0,1,3.9-3.3,44.8,44.8,0,0,0,4.5-4.1c5.9-6.4,8-16.3,5.4-25.2a20.9,20.9,0,0,0-7.1-10.9c-6.8-5.3-15.3-6.2-24.3-7h-.4c-20-2-38.4-8.1-53.3-17.7l-.6-.4c-4.3-2.8-8.7-5.7-13.4-5.2a21,21,0,0,0-5.6,2l-2.7,1.2c-12,4.7-27,2.5-38.7.1l-8.1-1.8-3.9-.9c-7.1-1.6-13.8-3.1-21.1-3.6h-1.6c-8-.4-23,.3-33.6,8.8-8.3,6.8-11.5,17.5-14.6,27.7-.6,2.3-1.3,4.5-2,6.7-1.3,4-3,8.2-6,11.5a19.9,19.9,0,0,1-5.3,4,56.1,56.1,0,0,1-11.4,4.4c-2.1.6-4.4,1.3-6.5,2.1-4.6,1.7-11.1,5.2-15.5,11.5a21.8,21.8,0,0,0-3.3,18.5h0c2,6.4,7.3,11.2,12.4,15.8s10.5,9.3,12.7,15.9a39,39,0,0,1,1.4,9.5c.3,4.1.5,7.9,2.4,11.3,3.7,6.6,12.1,9.1,20.7,10.8s17.7,4.1,22.2,11.4c2.2,3.7,2.8,7.8,3.4,11.9a40.4,40.4,0,0,0,2.1,8.8,16.9,16.9,0,0,0,13,10.1l2,.3c4.6.4,9.8-.8,16.1-3.7,4-1.9,8.2-4.2,12.2-6.6a137,137,0,0,1,14.2-7.4,55.2,55.2,0,0,1,23.1-4.7,88.2,88.2,0,0,1,12.8,1.2l5.2.8,6.2.9a170.8,170.8,0,0,0,22,1.4c4.5,0,9-.4,12-3.7,1.7-1.8,2.5-4.4,3.4-7,.3-1.1.7-2.3,1.1-3.4A20.3,20.3,0,0,1,1298.3,226.2Z"/><path class="cls-2" d="M1311.1,210.9h-.1c-2.3,2.3-5.3,2.5-8.2,2.7a18.4,18.4,0,0,0-3.3.3,14.4,14.4,0,0,0-10.4,9.2l-.9,2.6c-.7,2.3-1.4,4.7-3,6.6-2.9,3.5-7.1,4.2-10.8,4.5a116.3,116.3,0,0,1-18.6.2l-7.3-.7-4.5-.5a82.9,82.9,0,0,0-8.7-.6,46.3,46.3,0,0,0-19.3,3.5,99.9,99.9,0,0,0-12,6.4c-3.5,2-7.1,4.1-10.6,5.7-5.8,2.6-11,3.6-15.3,3l-1.9-.3a16.4,16.4,0,0,1-12-10.9,32.9,32.9,0,0,1-1.6-7.7c-.5-3.6-1-7.3-2.8-10.4-3.4-5.5-10.4-7.5-17.3-9s-15-4-18.5-10c-1.9-3.2-2.2-6.7-2.6-10.1a31,31,0,0,0-1.3-7.4c-1.8-4.9-5.7-8.5-9.9-12.4s-9.1-8.3-10.9-14.4-.6-11.9,2.9-17.1a29.4,29.4,0,0,1,13.6-10.6,54.9,54.9,0,0,1,5.7-2,51.2,51.2,0,0,0,9-3.6,18.4,18.4,0,0,0,4-3.1,24.2,24.2,0,0,0,4.8-8.9c.7-1.7,1.3-3.5,1.9-5.3,2.9-8.7,6-17.7,13.5-23.7s17.2-8.6,29.9-9h1.4a128.7,128.7,0,0,1,19.4,1.5l7.8,1.1.9.2c11.8,1.8,23.2,3.1,32.6-.1l2.2-.9a17.5,17.5,0,0,1,5.2-1.6c4.5-.4,8.7,2.4,12.4,4.8l.5.3c11.6,7.6,26.1,12.8,43.2,15.6,7.6,1.2,15,2.8,20.9,8.1a20.6,20.6,0,0,1,6,10.7,26.7,26.7,0,0,1-5.7,23.4,27.1,27.1,0,0,1-4,3.6l-3,2.7c-3,3-4,6.7-5,10.7s-1.8,6.5-3.9,9.5c-5.5,8-6.6,15.7-3.5,26.7l.3.9C1313.8,200.8,1314.9,207.2,1311.1,210.9Zm-19.7,5.3a16.1,16.1,0,0,1,7.8-4.2,19.8,19.8,0,0,1,3.5-.3c2.6-.2,5.2-.4,7-2.2h.1c3.1-3,2-8.7.6-13.9l-.2-.9c-3.3-11.6-2.2-19.8,3.8-28.3,1.9-2.7,2.7-5.7,3.5-8.9s2.2-8.2,5.5-11.5a20.7,20.7,0,0,1,3.2-2.8,30.5,30.5,0,0,0,3.7-3.4,24.9,24.9,0,0,0,5.3-21.8,18.9,18.9,0,0,0-5.4-9.7c-5.5-4.9-12.6-6.4-20-7.6-17.2-2.8-32-8.2-43.9-15.9l-.5-.3c-3.6-2.4-7.3-4.8-11.1-4.5a18.8,18.8,0,0,0-4.6,1.4l-2.4,1c-9.8,3.3-21.4,2-33.5.2l-.9-.2-7.7-1.1a127.1,127.1,0,0,0-19.2-1.5h-1.4c-12.3.4-21.9,3.3-28.7,8.6s-10,14.3-12.9,22.8c-.6,1.8-1.2,3.6-1.9,5.4-1.2,3.3-2.7,6.8-5.2,9.5a19.7,19.7,0,0,1-4.5,3.4,50.4,50.4,0,0,1-9.3,3.8,53.1,53.1,0,0,0-5.6,2,27.3,27.3,0,0,0-12.7,9.9,18.5,18.5,0,0,0-2.7,15.5h0c1.7,5.5,6.1,9.6,10.4,13.5s8.5,7.8,10.4,13.2a30.5,30.5,0,0,1,1.4,7.8c.4,3.3.7,6.5,2.3,9.3,3.2,5.4,10.2,7.6,17.3,9.2s14.7,3.6,18.5,9.8c2.1,3.4,2.6,7.3,3.1,11.1a34.7,34.7,0,0,0,1.5,7.4,14.3,14.3,0,0,0,10.6,9.6l1.8.3c3.9.6,8.7-.4,14.2-2.9a95.5,95.5,0,0,0,10.4-5.6,111.9,111.9,0,0,1,12.3-6.5,49.8,49.8,0,0,1,20-3.7c3,.1,6,.4,8.9.7l4.5.5,7.3.7a111.3,111.3,0,0,0,18.2-.2c3.5-.3,7.1-.9,9.6-3.8s1.9-3.7,2.6-5.9.5-1.8.9-2.7A16.8,16.8,0,0,1,1291.4,216.2Z"/><path class="cls-2" d="M1298.6,202.2c-1.7,1.6-3.8,1.9-5.9,2.2l-2.4.4a11.2,11.2,0,0,0-7.6,7.4l-.6,2a17.3,17.3,0,0,1-2.1,5.3,13.2,13.2,0,0,1-8.2,4.7,77.7,77.7,0,0,1-14.9,1.8l-8.1-.3-3.7-.2-5.4-.3a37.6,37.6,0,0,0-16.1,2.6,70,70,0,0,0-10.1,5.3,95.4,95.4,0,0,1-8.8,4.8c-5.2,2.3-9.7,3.1-13.5,2.2l-1.7-.4c-4.8-1.5-8.1-5.1-9.5-10.3a43.5,43.5,0,0,1-1-6.3c-.3-3.4-.7-6.8-2.4-9.5-2.8-4.5-8.3-6.2-13.7-7.5s-11.9-3.4-15-8.3c-1.6-2.6-2-5.4-2.4-8.1a29.6,29.6,0,0,0-1.4-5.7c-1.4-3.7-4.5-6.6-7.7-9.7s-7.4-7-8.8-12.1h0a17.2,17.2,0,0,1,2.3-14,25.2,25.2,0,0,1,10.7-9c1.5-.7,3.2-1.3,4.8-1.9a53.2,53.2,0,0,0,6.9-3,17.8,17.8,0,0,0,3.3-2.5,25.1,25.1,0,0,0,4.1-7c.6-1.3,1.1-2.7,1.7-4.1,2.7-6.8,5.6-13.9,11.8-18.7s16.6-7.5,24.8-8.7l1.1-.2a98.5,98.5,0,0,1,15.6-.9l7.2.3,4.3.3c7.6.7,16.4,1.4,23.4-.5l1.9-.7a17.6,17.6,0,0,1,4.1-1c3.7-.1,7.1,2.1,10.1,4.1l.3.2c11.1,7.2,24,11.2,34.1,13.8,5.3,1.4,11.4,3.5,16.1,8.8a19.2,19.2,0,0,1,4.1,9.4,25.3,25.3,0,0,1-5.6,19.7,27.4,27.4,0,0,1-3.1,2.9l-2.4,2.2c-2.3,2.4-3.1,5.3-3.9,8.4a25.1,25.1,0,0,1-3,7.5c-4.3,6.3-5.2,12.4-2.8,21.1l.2.7c1.2,4.7,2,9.6-.9,12.6Zm-14.1,3.9a11.4,11.4,0,0,1,5.3-3,13.2,13.2,0,0,1,2.6-.5c2-.2,3.8-.5,5.1-1.9s1.6-6.6.4-10.9v-.7c-2.5-9-1.6-15.8,3-22.5a21.2,21.2,0,0,0,2.7-7c.9-3.2,1.8-6.5,4.5-9.2a25,25,0,0,1,2.4-2.2,18.9,18.9,0,0,0,2.9-2.7,23.3,23.3,0,0,0,5.2-18.4,16.6,16.6,0,0,0-3.7-8.4c-4.3-4.9-10.1-7-15.2-8.3-10.2-2.6-23.3-6.6-34.6-14l-.3-.3c-2.9-1.9-5.9-3.8-9-3.7a14.6,14.6,0,0,0-3.6.9l-2.1.7c-7.3,2-16.2,1.3-24,.6l-4.2-.3-7.1-.4a109.7,109.7,0,0,0-15.4,1l-1,.2c-8,1.1-17,3.1-24,8.3s-8.6,11.3-11.3,18c-.5,1.4-1.1,2.7-1.6,4.1a24.9,24.9,0,0,1-4.6,7.5,14.5,14.5,0,0,1-3.6,2.8,46.4,46.4,0,0,1-7.2,3.2l-4.7,1.8a23.4,23.4,0,0,0-9.9,8.3,15.5,15.5,0,0,0-2.1,12.6h0c1.3,4.6,4.9,8,8.4,11.3s6.5,6.3,8.1,10.4a27.3,27.3,0,0,1,1.4,6c.4,2.7.8,5.2,2.2,7.4,2.8,4.4,8.6,6.2,13.9,7.5s11.7,3.3,14.8,8.3c1.9,3.2,2.3,6.8,2.7,10.4a36.4,36.4,0,0,0,.9,5.9c1.3,4.6,4.2,7.8,8.4,9.1l1.4.4c3.5.7,7.7,0,12.4-2.1a92.7,92.7,0,0,0,8.7-4.7,85.9,85.9,0,0,1,10.3-5.5,41.4,41.4,0,0,1,16.9-2.7l5.4.3,3.7.3,8,.2a67.6,67.6,0,0,0,14.5-1.8c2.6-.5,5.2-1.4,7.1-4a13.3,13.3,0,0,0,1.9-4.7l.6-2.1A15.7,15.7,0,0,1,1284.5,206.1Z"/><path class="cls-2" d="M1272.7,209.1a10.5,10.5,0,0,1-3.5,2.4,39.8,39.8,0,0,1-11.1,3.5l-6.5.5-5.3-.2h-2.1c-4.1-.1-8.5-.1-13,1.6a53.9,53.9,0,0,0-8.2,4.3,45.1,45.1,0,0,1-7.1,3.9c-3,1.4-7.6,2.7-11.7,1.5l-1.3-.6c-3.9-1.7-6.2-4.9-7-9.8a35.9,35.9,0,0,1-.5-4.6c-.2-3.3-.4-6.3-2-8.9s-6.2-4.8-10.2-6-8.9-3-11.3-6.5a16.1,16.1,0,0,1-2.4-6,28,28,0,0,0-1.3-4.1c-1.2-2.6-3.3-4.7-5.5-6.9s-5.7-5.8-6.9-9.9a14.6,14.6,0,0,1,1.7-10.9,19.3,19.3,0,0,1,7.9-7.3c1.2-.7,2.6-1.3,3.9-1.9a43,43,0,0,0,4.8-2.4,12.6,12.6,0,0,0,2.5-1.9,18.6,18.6,0,0,0,3.5-5.1l1.5-2.8c2.5-5,5.1-10.2,10.1-13.8s11.6-5.7,16.7-7.4l3-1,2.4-.8a62.5,62.5,0,0,1,10.1-3,48.9,48.9,0,0,1,5.9-.6c2.7-.1,5.6,0,8.7.1,4.8.1,9.7.3,14-.4l1.5-.4a15.4,15.4,0,0,1,3.1-.5c2.9.1,5.5,1.8,7.8,3.4,6.8,4.5,14.2,7.6,20.8,10.3l4.3,1.8a22.6,22.6,0,0,1,11.2,9.6,15.9,15.9,0,0,1,2.2,8,24.1,24.1,0,0,1-5.4,16,16.7,16.7,0,0,1-2.3,2.3l-1.6,1.5a14.2,14.2,0,0,0-2.9,6.2,18.6,18.6,0,0,1-2.2,5.5c-3,4.6-3.6,9.2-2.1,15.4l.2.5c.8,3.3,1.4,7-.5,9.4a7.3,7.3,0,0,1-4,2.2l-1.5.4a8.4,8.4,0,0,0-4.7,5.6,5.7,5.7,0,0,1-.4,1.4,13.4,13.4,0,0,1-1.3,4A8.8,8.8,0,0,1,1272.7,209.1Zm-111-59.4a18.1,18.1,0,0,0-2.8,3.4,13.2,13.2,0,0,0-1.5,9.6h0c1,3.7,3.8,6.5,6.5,9.2s4.5,4.6,5.8,7.4a27.8,27.8,0,0,1,1.4,4.4,16.9,16.9,0,0,0,2.1,5.4c2.2,3.1,6.2,4.6,10.5,5.9s8.7,2.9,11.1,6.7,2.1,6.4,2.3,9.7a30,30,0,0,0,.4,4.4c.7,4.4,2.7,7.2,6,8.6l1.2.5c3.6,1.1,7.8-.1,10.6-1.4a53.1,53.1,0,0,0,6.9-3.8,52,52,0,0,1,8.4-4.4,33.1,33.1,0,0,1,13.6-1.7h7.3a52,52,0,0,0,6.3-.5,34.1,34.1,0,0,0,10.7-3.3,9.3,9.3,0,0,0,4.7-4.2,11.7,11.7,0,0,0,1.2-3.6,5.7,5.7,0,0,0,.4-1.4,9.9,9.9,0,0,1,5.7-6.7l1.7-.5a5.2,5.2,0,0,0,3.1-1.6c1.5-1.9.9-5.1.1-8v-.5c-1.6-6.6-1-11.6,2.3-16.7a16.9,16.9,0,0,0,2-5c.7-2.4,1.4-4.8,3.3-6.9l1.7-1.7a20.3,20.3,0,0,0,2.1-2,22.8,22.8,0,0,0,5.1-15,15.1,15.1,0,0,0-2-7.2,21.6,21.6,0,0,0-10.5-8.9l-4.2-1.8c-6.7-2.7-14.2-5.9-21-10.4-2.4-1.5-4.7-3.1-7-3.1a12.6,12.6,0,0,0-2.7.4l-1.6.4a75.8,75.8,0,0,1-14.4.4,82.2,82.2,0,0,0-8.6,0,45.8,45.8,0,0,0-5.6.6,62.8,62.8,0,0,0-9.9,2.8l-2.4.9-3,1c-5.3,1.7-11.3,3.7-16.2,7.2s-7.2,8.3-9.7,13.1a24.4,24.4,0,0,1-1.4,2.8,20.1,20.1,0,0,1-3.8,5.5,16,16,0,0,1-2.8,2.2,34.4,34.4,0,0,1-5.1,2.5l-3.7,1.8A18.7,18.7,0,0,0,1161.7,149.7Z"/><path class="cls-2" d="M1265.7,199.8a18.9,18.9,0,0,1-6.5,4.1,22.4,22.4,0,0,1-4.8,1.3,37.2,37.2,0,0,1-5.8.1h-.6a24.3,24.3,0,0,0-9.3.7,26.1,26.1,0,0,0-6.1,3.3,48.5,48.5,0,0,1-5.4,3c-3.7,1.6-7.3,1.8-9.9.6l-1.1-.6c-3.7-2.3-4.4-6.2-4.5-9.4V200c0-3.1.1-6-1.5-8.4s-4.1-3.5-6.6-4.5h-.2c-2.6-1.1-5.6-2.3-7.6-4.6a14.8,14.8,0,0,1-2.3-4l-1.2-2.3a29.5,29.5,0,0,0-3.2-4c-2.1-2.3-4.2-4.7-5-8h0a11.1,11.1,0,0,1,1.1-7.7,16.4,16.4,0,0,1,4.9-5.7l3.3-2,2.5-1.6a14.1,14.1,0,0,0,1.8-1.4,28,28,0,0,0,2.9-3.2l.9-1.2c2.4-3.2,4.9-6.6,8.7-9s4.9-2.8,7.3-4a52.8,52.8,0,0,0,7.2-4.1l.5-.4a32,32,0,0,0,2.7-2.2,25.8,25.8,0,0,1,5.2-3.8,19.2,19.2,0,0,1,4.4-1.7c4.2-.9,9-.7,13.7-.6l4.3.2h3.1a14.2,14.2,0,0,1,5.4,2.6c2.3,1.6,4.7,3.1,7,4.5a100.5,100.5,0,0,1,9,5.9c3.1,2.4,5.1,5.8,6.3,10.3a18,18,0,0,1,.3,6.6,27.8,27.8,0,0,1-5.3,12.3c-.4.6-.9,1-1.3,1.5a5.2,5.2,0,0,0-1,1.1,9.3,9.3,0,0,0-1.9,4,24.4,24.4,0,0,1-1.4,3.4,13.1,13.1,0,0,0-1.3,9.8v.3c.4,1.9.9,4.3.1,6.1a5.7,5.7,0,0,1-1.9,1.9l-.6.5a5.7,5.7,0,0,0-1.9,3.8v.7a19.6,19.6,0,0,1-.6,2.8,12.5,12.5,0,0,1-2.7,5Zm-76.5-46.3a15.4,15.4,0,0,0-2.7,3.6,9.8,9.8,0,0,0-.9,6.7h0c.7,2.9,2.7,5.1,4.6,7.3a23.1,23.1,0,0,1,3.4,4.2c.5.8.9,1.7,1.3,2.5a13.1,13.1,0,0,0,2.1,3.6c1.7,2,4.5,3.2,7,4.2h.2c2.6,1.1,5.5,2.4,7.3,5.1s1.8,6,1.7,9.2v2.8c.2,4.1,1.3,6.5,3.8,8.1l.9.5c3.1,1.3,6.8.2,8.7-.6a33,33,0,0,0,5.1-2.9,37.8,37.8,0,0,1,6.5-3.5c3.4-1.1,6.7-.9,9.9-.7h.6a24.1,24.1,0,0,0,5.4-.1,20.7,20.7,0,0,0,4.6-1.1,19.5,19.5,0,0,0,6.9-4.8,14,14,0,0,0,2.4-4.4c.2-.8.3-1.7.5-2.6V190a7.4,7.4,0,0,1,2.4-4.8l.8-.6a4,4,0,0,0,1.3-1.3c.6-1.3.2-3.4-.1-5.1v-.3a14.2,14.2,0,0,1,1.5-10.8,17.5,17.5,0,0,0,1.2-3.2,12.5,12.5,0,0,1,2.2-4.5l1.1-1.2,1.2-1.3a25.2,25.2,0,0,0,5-11.6,14.9,14.9,0,0,0-.3-6,16.8,16.8,0,0,0-5.8-9.5,84,84,0,0,0-8.8-5.8l-7.1-4.5a11.7,11.7,0,0,0-4.7-2.4h-7.2c-4.6-.2-9.4-.4-13.3.5a21.9,21.9,0,0,0-4.1,1.5,31,31,0,0,0-4.9,3.6,21.5,21.5,0,0,1-2.8,2.3c-.1.2-.3.3-.5.5a51.2,51.2,0,0,1-7.4,4.1,81.3,81.3,0,0,0-7.1,4c-3.6,2.3-6,5.3-8.4,8.6l-.9,1.2a24.3,24.3,0,0,1-3.1,3.5,15.7,15.7,0,0,1-1.9,1.5l-2.6,1.6a21.4,21.4,0,0,0-3.2,2A11.9,11.9,0,0,0,1189.2,153.5Z"/><path class="cls-2" d="M1260.6,192.6a8.7,8.7,0,0,1-3.4,2.2,11.5,11.5,0,0,1-6.1.2,12.9,12.9,0,0,0-4.8-.1,19.6,19.6,0,0,0-4.2,2.3,16.8,16.8,0,0,1-3.6,2.1c-1.9.7-5.4,1.6-8.1-.3s-3.2-6.6-2.7-10.4.9-5.8-.6-7.9a23.1,23.1,0,0,0-6.3-5.3c-3.7-2.5-7.7-5.1-8.4-10.4s2.3-9,5.3-11.5a40.7,40.7,0,0,1,8.6-4.9l2.5-1.2c3.2-1.6,7.1-3.9,9.2-7.6a25.9,25.9,0,0,0,1.7-3.8,21.4,21.4,0,0,1,2.5-5.3c3.8-4.9,11.1-5.4,16.4-3.3a21.2,21.2,0,0,1,11.4,11.4,20.2,20.2,0,0,1-.3,16,42.4,42.4,0,0,1-3.3,5.9l-1.8,2.7c-2.1,3.4-2.9,6.2-2.8,8.8a29.2,29.2,0,0,0,1.2,4.9,35.8,35.8,0,0,1,1.1,3.5C1264.9,184.7,1263.8,189.6,1260.6,192.6Zm-47.5-27.7h.7c.6,4.7,4.1,7,7.8,9.4s4.9,3.3,6.6,5.7,1.4,5.8.9,8.9-1,7,2.1,9.1,5.5.6,6.8.1a19.5,19.5,0,0,0,3.3-1.9,14.9,14.9,0,0,1,4.6-2.5,14.5,14.5,0,0,1,5.5,0,9.6,9.6,0,0,0,5.3-.1c4.4-1.7,7.1-7.3,6-12.6a21.9,21.9,0,0,0-1-3.4,28.3,28.3,0,0,1-1.3-5.2c-.2-2.9.8-6,3-9.7l1.8-2.7a45.6,45.6,0,0,0,3.3-5.6,20,20,0,0,0,.2-15,19.7,19.7,0,0,0-10.6-10.6c-4.8-1.9-11.4-1.5-14.7,2.9a19.6,19.6,0,0,0-2.4,4.8,21.3,21.3,0,0,1-1.8,4.1c-2.3,4-6.4,6.4-9.8,8.1l-2.5,1.3a37.8,37.8,0,0,0-8.3,4.7c-2.7,2.3-5.4,6.1-4.8,10.2Z"/></g><path class="cls-3" d="M512.5,449.6a53.3,53.3,0,0,1-16.8,22.5c-14.5,11.3-31.8,14-43.8,14.3-5,.1-10.1-.1-15.1-.3-14.5-.6-29.4-1.3-41.2,6.5-8,5.3-13.3,13.8-17.8,22.1-2.6,4.8-5.2,9.8-7.6,14.7-11.7,23-23.7,46.8-46.6,57.9s-51.3,6.9-79-9.8c-13.7-8.3-26.1-18.8-38.2-28.9-8.6-7.2-17.5-14.7-26.8-21.4-18.8-13.4-47.3-28-76.1-21.5L98,507.1c-5.2,1.4-10.6,2.9-16.2,2.4C70,508.4,61.2,498.6,53.4,490l-1.5-1.7A212.3,212.3,0,0,0-60.2,423.7l-11.4-2.2c-17.4-3.3-35.4-6.7-48.7-18.3-11-9.6-16.7-25.1-15.3-41.5s9.8-30.7,22.4-38.2a91.5,91.5,0,0,1,13.5-6.3,108.3,108.3,0,0,0,11-4.9c11.3-6,16.7-15.8,22.4-26.1,4.6-8.3,9.4-16.9,17.6-23.3,22.9-18,31.4-38.4,30.3-72.7h0c-.5-18,.9-37.3,15.6-43.4,8.4-3.5,17.4-.7,26.1,2a110.5,110.5,0,0,0,10.9,3,45.4,45.4,0,0,0,42.2-15.2c1.7-2.2,3.4-4.6,5-6.9,3.8-5.6,7.8-11.4,14-14.4,10.4-5,22.6-.2,33.1,5.1,15.8,8.1,31.6,16.9,46.7,26.2l4.8,2.9c13.3,8.3,27.2,16.8,42.4,21,26.9,7.3,55.1.4,82.3-6.3,9.8-2.4,19.8-4.8,29.7-6.6s24.8-3.7,38-.1,24.4,13.1,28,24.6c2.1,6.9,1.7,14.4,1.3,21.5s-.9,13.6.9,20c4.7,17.8,23.3,27.2,41.9,35.3s37.7,18.7,41.3,37.7c1.8,9.5-1,19-3.7,28.2-2.1,7.1-4.3,14.4-4.3,21.7-.1,15.8,9.4,29.6,18.6,42.9s18.3,26.3,19.2,41.9A44.7,44.7,0,0,1,512.5,449.6ZM-130.6,347.2a58.7,58.7,0,0,0-3.4,14.6c-1.4,15.9,4.1,30.9,14.8,40.2,13,11.3,30.8,14.7,48,17.9l11.3,2.3a213.7,213.7,0,0,1,113,65l1.5,1.7c8,8.8,16.2,17.9,27.4,19,5.2.4,10.5-1,15.6-2.4l5.6-1.4c29.3-6.7,58.2,8.2,77.3,21.8,9.4,6.7,18.3,14.2,27,21.5,12,10.1,24.4,20.5,38,28.7,27.1,16.4,56.1,20,77.4,9.7s34.3-34.4,45.8-57.1c2.5-4.9,5-10,7.6-14.8,4.7-8.5,10.1-17.1,18.4-22.6,12.2-8.1,27.4-7.5,42.2-6.8,4.9.2,10,.4,14.9.3,11.8-.3,28.7-3,42.9-14s20.1-25,19.2-39.5-10-28.2-18.8-40.9-19.1-27.5-19-43.9c.1-7.5,2.3-15,4.4-22.2,2.8-9.4,5.4-18.2,3.7-27.4-3.5-18.3-22.3-28.7-40.3-36.5s-38-17.9-42.9-36.4c-1.8-6.6-1.4-13.7-1-20.5s.9-14.3-1.2-21c-3.4-10.9-13.6-19.9-26.8-23.5s-26.8-1.7-37.3.2-19.9,4.2-29.6,6.6c-27.4,6.7-55.8,13.7-83.1,6.3-15.5-4.3-29.4-12.9-42.9-21.2l-4.7-2.9c-15.2-9.3-30.8-18.1-46.6-26.1-10.2-5.2-22-9.9-31.7-5.1-5.8,2.8-9.5,8.1-13.4,13.8-1.6,2.4-3.3,4.8-5.1,7a46.8,46.8,0,0,1-43.7,15.8,107,107,0,0,1-11.1-3c-8.8-2.8-17.1-5.4-25-2.1C-16,154-17.3,172.7-16.7,190.2c1,34.4-8,55.9-31,74-7.9,6.2-12.6,14.6-17.2,22.8-5.5,10.1-11.3,20.5-23,26.7-3.6,1.9-7.5,3.5-11.2,5a94.4,94.4,0,0,0-13.3,6.2C-120.6,329.8-126.9,337.7-130.6,347.2Z"/><path class="cls-3" d="M480.5,439.1a49.2,49.2,0,0,1-15.4,20.6c-13.3,10.4-29.2,12.9-40.1,13.1-4.6.2-9.3,0-13.8-.2-13.2-.6-26.9-1.2-37.7,5.9-7.3,4.9-12.1,12.5-16.3,20.1l-7,13.4c-10.7,20.9-21.7,42.6-42.7,52.7s-47.3,6.5-72.9-8.4c-2.4-1.4-4.8-3-7.3-4.6-9.9-6.5-19.1-14-28.1-21.3s-16-13.1-24.5-18.9c-17.4-12.1-43.7-25.3-69.9-19.4-1.7.3-3.4.8-5.1,1.2-4.8,1.3-9.8,2.7-14.9,2.2-10.9-1-19-10-26.2-17.9l-1.4-1.5a191,191,0,0,0-21.7-20.4,199.4,199.4,0,0,0-81.1-39.2l-10.3-2.2c-15.9-3.1-32.4-6.4-44.6-17.2h0c-10-8.8-15.2-23-13.9-38.1s9-28.1,20.4-35a85.9,85.9,0,0,1,12.3-5.8,90.4,90.4,0,0,0,10-4.6c10.3-5.5,15.2-14.4,20.4-23.8,4.3-7.7,8.6-15.6,16.1-21.5,23-18.1,27.7-38.9,27.8-66.4.1-3.3.4-6.7.8-10.5s.8-7,1.4-10.5a52.9,52.9,0,0,1,2.4-9.5,21.2,21.2,0,0,1,12-12.8c7.8-3.1,16-.5,24,1.9a85.2,85.2,0,0,0,9.9,2.7c13.9,2.7,29.4-2.9,38.5-13.7,1.6-2,3.1-4.2,4.6-6.3,3.5-5.1,7.2-10.3,12.8-13,9.6-4.6,20.8-.2,30.4,4.7,14.5,7.3,28.9,15.4,42.8,23.8l4.2,2.6c12.3,7.6,25,15.4,39,19.1,24.5,6.6,50.2.3,75.1-5.8,8.9-2.2,18.2-4.5,27.2-6.1s22.9-3.4,35.2-.1c8.9,2.5,16.8,7.7,21.6,14.5a26.6,26.6,0,0,1,4.2,8.2c2,6.5,1.6,13.4,1.2,20.1s-.7,12.3.8,18.2c4.3,16.3,21.1,25.1,37.9,32.7s34.1,17.5,37.5,35c1.7,8.9-.7,17.7-3,26.2-1.8,6.6-3.6,13.4-3.6,20.2.2,12.8,6.9,24.3,13.8,34.9.9,1.4,1.8,2.8,2.8,4.1,8.2,12.4,16.6,25.3,17.3,40A41.6,41.6,0,0,1,480.5,439.1Zm-590.2-93.4a54.2,54.2,0,0,0-3.1,13.5c-1.2,14.5,3.7,28.2,13.4,36.7h0c11.9,10.5,28.1,13.7,43.8,16.8l10.3,2.2a200.3,200.3,0,0,1,81.8,39.5A214.1,214.1,0,0,1,58.4,475l1.4,1.5c7.3,8.1,14.9,16.4,25.2,17.4,4.8.4,9.6-.9,14.3-2.1l5.1-1.3c26.8-6,53.5,7.4,71.2,19.6,8.6,5.9,16.7,12.6,24.6,19a349.4,349.4,0,0,0,28,21.3c2.4,1.6,4.9,3.1,7.2,4.5,25.1,14.6,51.8,17.7,71.4,8.3s31.4-31.2,42-51.9c2.3-4.5,4.6-9.1,7-13.5,4.3-7.7,9.2-15.6,16.8-20.6,11.3-7.4,25.2-6.8,38.7-6.3,4.5.2,9.2.4,13.6.3,10.7-.3,26.2-2.7,39.2-12.8,11.4-8.9,18.2-22.6,17.6-35.9s-8.6-26.3-17-39.1l-2.7-4.1c-7.1-10.8-14-22.5-14.1-35.8-.1-7,1.8-13.9,3.6-20.6,2.4-8.7,4.6-17,3-25.5-3.2-16.7-20.3-26.5-36.6-33.8s-34.3-16.8-38.8-33.8c-1.6-6.1-1.2-12.5-.8-18.7s.8-13.3-1.2-19.5a27.2,27.2,0,0,0-3.9-7.8c-4.6-6.4-12.2-11.4-20.8-13.8-11.9-3.3-24.6-1.7-34.4.1s-18.2,3.9-27.1,6.1c-25.1,6.1-51,12.5-76,5.8-14.2-3.8-27-11.7-39.3-19.3l-4.2-2.6c-14-8.4-28.3-16.4-42.7-23.7-9.3-4.8-20.1-9-29-4.8-5.3,2.6-8.6,7.4-12.2,12.5a58.4,58.4,0,0,1-4.7,6.4,43,43,0,0,1-40.1,14.3c-3.3-.7-6.7-1.7-10-2.7-8.1-2.5-15.7-4.8-22.9-2-5,2-8.8,6.1-11,11.7v.2a55.2,55.2,0,0,0-2.3,9.1c-.6,3.5-1.1,7.1-1.4,10.5a95.5,95.5,0,0,0-.7,10.3c-.2,28-5,49.2-28.5,67.7-7.2,5.7-11.5,13.5-15.6,21-5.1,9.2-10.4,18.7-21.1,24.5-3.3,1.7-6.8,3.2-10.2,4.6a93.8,93.8,0,0,0-12,5.7A40.8,40.8,0,0,0-109.7,345.7Z"/><path class="cls-3" d="M448.5,428.6a44.6,44.6,0,0,1-14.1,18.8c-12,9.3-26.4,11.6-36.3,11.9-4.1.1-8.4-.1-12.5-.3-12-.4-24.3-.9-34.1,5.5-6.6,4.3-11,11.2-14.8,18-2.2,4-4.3,8.1-6.4,12.2-9.8,18.8-19.8,38.3-38.8,47.4-26.5,12.6-55.6-.7-66.9-7.1-2.2-1.2-4.5-2.5-6.7-4-9.1-5.7-17.7-12.4-26-18.9s-14.4-11.3-22.1-16.4c-16-10.7-40.1-22.4-63.8-17.2l-4.5,1.1c-4.5,1.2-9,2.4-13.7,1.9-10-1-17.5-9.1-24.1-16.3l-1.2-1.3a183.9,183.9,0,0,0-19.9-18.5A184.6,184.6,0,0,0-31,409.2l-9.2-2c-14.4-3.1-29.4-6.2-40.4-16.1-9.1-8.1-13.8-21.2-12.6-34.8s8.1-25.5,18.4-31.8a82.3,82.3,0,0,1,11.2-5.4,89.9,89.9,0,0,0,8.9-4.1c9.3-5.1,13.7-13.1,18.5-21.7,3.8-6.9,7.8-14.1,14.5-19.5C-1.9,258,2.5,240.4,3.6,213.5a73.6,73.6,0,0,1,1.2-8.2l.3-2c.3-1.7.6-3.4,1-5s.6-3.6,1-5.4v-.8a46.1,46.1,0,0,1,2-8.7c2.1-6.2,6.3-10.8,12-12.9s14.6-.5,21.9,1.7c2.9.9,5.9,1.8,8.8,2.4,12.7,2.4,26.7-2.5,34.9-12.3a58.4,58.4,0,0,0,4.2-5.6c3.2-4.5,6.5-9.2,11.7-11.7,8.7-4.1,18.9-.1,27.6,4.4q19.6,9.9,38.9,21.5l3.6,2.2c11.2,6.8,22.8,13.9,35.5,17.2,22.2,5.9,45.5.2,68-5.3,8.1-2,16.6-4.1,24.8-5.6s20.9-3.1,32.2,0a36.2,36.2,0,0,1,19.8,13.2,28.8,28.8,0,0,1,3.9,7.6c1.9,6,1.5,12.4,1.2,18.5s-.7,11.2.7,16.5c3.8,14.9,18.7,23,33.7,30.1s30.6,16.4,33.7,32.3c1.6,8.2-.3,16.3-2.2,24.2-1.5,6.1-3,12.4-2.8,18.7.3,11.5,5.9,21.5,12.7,32.4l1.7,2.7c7.8,12.5,15.1,24.2,15.5,38.1A40.5,40.5,0,0,1,448.5,428.6ZM-80.1,390.5l.6-.6c10.7,9.6,25.4,12.7,39.7,15.7l9.2,2a188.6,188.6,0,0,1,74.3,36.5,177.1,177.1,0,0,1,20,18.7l1.2,1.3c6.7,7.3,13.7,14.9,23.1,15.8,4.3.4,8.8-.8,13-1.9l4.7-1.1c24.3-5.3,48.7,6.5,65,17.4,7.7,5.2,15.1,11,22.2,16.5s16.8,13.1,25.9,18.9q3.3,2.1,6.6,3.9c11,6.2,39.6,19.3,65.4,7,18.5-8.8,28.4-28.1,38-46.7,2.1-4,4.3-8.2,6.5-12.2,3.9-7,8.4-14.1,15.3-18.6,10.2-6.7,22.8-6.2,35-5.7,4.1.2,8.4.3,12.4.2,9.7-.2,23.7-2.4,35.4-11.5s16.4-20.3,16.1-32.4-7.5-25-15.2-37.2l-1.7-2.7c-6.9-11.1-12.6-21.3-13-33.3-.2-6.5,1.4-12.9,2.9-19.1,1.9-8,3.8-15.6,2.2-23.5-2.9-15.2-18.2-24.3-32.8-31.2s-30.6-15.5-34.6-31.1c-1.4-5.5-1.1-11.4-.8-17s.7-12.2-1.1-17.9a25,25,0,0,0-3.6-7.1c-4.2-5.9-11.1-10.5-19-12.6-10.9-3-22.5-1.6-31.4,0s-16.6,3.6-24.7,5.6c-22.7,5.5-46.2,11.3-68.8,5.3-13-3.4-24.7-10.5-36-17.4l-3.6-2.2c-12.7-7.7-25.7-14.9-38.7-21.5-8.4-4.2-18.1-8.1-26.2-4.3-4.8,2.2-7.8,6.6-11,11.2-1.4,1.9-2.8,3.9-4.3,5.7a39.2,39.2,0,0,1-36.5,12.8,91.7,91.7,0,0,1-9-2.4c-7.3-2.2-14.2-4.3-20.8-1.8a18.8,18.8,0,0,0-11.1,11.9,53,53,0,0,0-1.9,8.5v.7c-.4,1.9-.7,3.7-1,5.5s-.7,3.3-1,4.9l-.3,2.1a54.9,54.9,0,0,0-1.1,8c-1.1,26.8-5.8,45.4-26,61.5-6.5,5.1-10.4,12.2-14.1,19-4.6,8.4-9.4,17-19.1,22.3-2.9,1.6-6.1,2.9-9.1,4.2a84.4,84.4,0,0,0-10.9,5.3c-9.9,6-16.5,17.4-17.6,30.5s3.3,25.7,12,33.5Z"/><path class="cls-3" d="M416.5,418a40.2,40.2,0,0,1-12.7,17c-10.8,8.4-23.7,10.4-32.6,10.7-3.7.1-7.6,0-11.3-.2-10.6-.4-21.7-.8-30.4,4.9-5.9,3.8-9.9,10-13.3,16-2,3.6-3.9,7.3-5.8,10.9-8.8,16.8-18,34.2-35,42.2-23.9,11.3-50.5-.2-60.9-5.7-2-1.1-4-2.2-6-3.5a273,273,0,0,1-23.9-16.5c-6.3-4.7-12.9-9.5-19.7-13.9-21.2-13.6-40.6-18.7-57.6-15l-4.1,1c-4,1-8.2,2.1-12.4,1.6-9.1-.9-15.9-8.2-21.9-14.6l-1.1-1.2a178.8,178.8,0,0,0-18-16.7,172.8,172.8,0,0,0-66.2-33.1l-8.1-1.9c-13-2.9-26.3-5.9-36.3-15l.6-.6-.6.6c-8.1-7.4-12.3-19.1-11.1-31.4s7.2-22.9,16.3-28.6a66.1,66.1,0,0,1,10-4.9c2.6-1.2,5.4-2.4,8-3.8,8.2-4.5,12.2-11.8,16.4-19.4s7-12.8,13-17.7c18.4-14.7,21.1-31.7,22.9-54.1a46.2,46.2,0,0,1,1.5-7.4,25,25,0,0,0,.7-2.6l.2-.7c.8-3.1,1.6-6.3,2.2-9.5.1-.9.3-1.8.4-2.6a54.4,54.4,0,0,1,1.5-7,19.5,19.5,0,0,1,12-13c6.5-2.4,13.2-.3,19.7,1.6a76.9,76.9,0,0,0,7.9,2.1c11.3,2.1,23.9-2.2,31.3-10.8,1.3-1.5,2.5-3.3,3.7-4.9,2.9-4.1,5.9-8.3,10.6-10.4,7.8-3.6,16.9,0,24.8,4,11.7,5.8,23.4,12.3,35,19.2l3,1.8c10.1,6.1,20.6,12.4,32.1,15.4,19.8,5.1,40.7,0,60.8-4.9,7.3-1.9,15-3.7,22.4-5.1s19-2.7,29.2.1a32.8,32.8,0,0,1,18,12,21.4,21.4,0,0,1,3.5,6.9c1.8,5.5,1.5,11.3,1.2,16.9s-.5,10.1.6,14.8c3.3,13.4,16.5,20.9,29.7,27.5s27,15.2,29.9,29.6c1.5,7.6,0,15-1.5,22.1s-2.4,11.5-2.1,17.3c.6,11,6.3,20.6,11.7,30l.4.6c7.1,12.1,13.8,23.6,13.9,36.8A36.7,36.7,0,0,1,416.5,418ZM-67.8,342.8a39.4,39.4,0,0,0-2.5,10.9c-1.1,11.8,2.9,23.1,10.6,30.1,9.6,8.8,22.8,11.7,35.6,14.6l8.1,1.9a175.9,175.9,0,0,1,66.8,33.4A171.8,171.8,0,0,1,69,450.6l1.1,1.2c6.1,6.5,12.4,13.3,20.8,14.1,4,.4,8-.6,11.9-1.6l4.1-1c17.5-3.8,37.3,1.4,58.8,15.2,6.9,4.4,13.5,9.3,19.9,14S201,504,209.3,508.9a60.8,60.8,0,0,0,6,3.4c10.1,5.4,36.2,16.8,59.4,5.8,16.6-7.9,25.5-25,34.2-41.6l5.9-10.9c3.5-6.2,7.6-12.6,13.8-16.6,9.2-6,20.5-5.5,31.4-5.1,3.7.1,7.5.3,11.1.2,8.7-.3,21.2-2.3,31.7-10.4a37.1,37.1,0,0,0,14.5-28.8c0-12.8-6.6-24-13.6-36l-.4-.6c-5.3-9.1-11.3-19.4-11.9-30.7-.3-6,.9-12,2.1-17.7,1.5-7.3,3-14.2,1.5-21.5-2.7-13.7-16.2-22.1-29-28.5s-27.1-14.4-30.5-28.5c-1.3-5-1-10.2-.7-15.2s.6-11.2-1.1-16.4a22.2,22.2,0,0,0-3.3-6.5A31.8,31.8,0,0,0,313.3,192c-9.9-2.8-20.5-1.5-28.5-.1s-15,3.2-22.3,5c-20.4,5-41.4,10.2-61.6,4.9-11.8-3-22.3-9.4-32.5-15.5l-3.1-1.8c-11.5-6.9-23.2-13.3-34.8-19.2-7.5-3.8-16.2-7.3-23.4-3.9-4.3,1.9-7,5.8-9.9,9.8-1.3,1.7-2.5,3.5-3.9,5.1a35.4,35.4,0,0,1-32.8,11.3c-2.7-.6-5.4-1.4-8-2.1-6.6-2-12.8-3.8-18.8-1.7a18.4,18.4,0,0,0-11,12,62.7,62.7,0,0,0-1.4,6.8c-.1.8-.3,1.7-.4,2.6-.6,3.2-1.4,6.5-2.2,9.6l-.2.7c-.2.9-.5,1.8-.7,2.6a38.5,38.5,0,0,0-1.5,7.2c-1.8,22.8-4.6,40.1-23.5,55.2-5.7,4.7-9.2,11-12.6,17.1s-8.4,15.4-17,20.1c-2.7,1.5-5.5,2.7-8.2,3.9a72.8,72.8,0,0,0-9.7,4.8A33.1,33.1,0,0,0-67.8,342.8Z"/><path class="cls-3" d="M384.5,407.6a35.1,35.1,0,0,1-11.3,15.1c-9.7,7.3-21.1,9.2-28.9,9.4-3.3.1-6.7,0-10-.1-9.4-.4-19.1-.7-26.8,4.3-5.3,3.3-8.8,8.7-11.8,14-1.8,3.1-3.6,6.4-5.3,9.6-7.8,14.8-16,30-31.1,37.1-21.4,9.9-45.4.2-54.8-4.5l-5.5-2.8c-7.6-4.4-14.8-9.3-21.8-14.1-5.5-3.9-11.2-7.8-17.2-11.5-19.2-11.6-36.5-16-51.5-12.8l-3.6.8c-3.6.9-7.3,1.8-11.1,1.5-8.2-.9-14.3-7.4-19.8-13.1l-.9-1A174.3,174.3,0,0,0,57,424.7,162,162,0,0,0-1.8,394.6l-7-1.7c-11.5-2.9-23.3-5.8-32.1-14-7.2-6.6-10.8-17.1-9.8-28s6.3-20.3,14.4-25.4a59.2,59.2,0,0,1,8.7-4.4c2.3-1.1,4.8-2.2,7-3.4,7.2-4.1,10.7-10.5,14.4-17.3S0,289,5.3,284.7c16.2-13.1,18.1-28.5,20.4-47.9a26.9,26.9,0,0,1,2-7c.3-1,.7-1.9,1-2.8a65.3,65.3,0,0,0,2.8-10.1l.6-3.6a30.2,30.2,0,0,1,1.1-6,19,19,0,0,1,12-13.2c5.8-2,11.8-.2,17.6,1.5l6.9,1.8a29.9,29.9,0,0,0,27.6-9.3,49.5,49.5,0,0,0,3.4-4.3c2.6-3.5,5.2-7.2,9.4-9.1,6.9-3.1,15,.1,22.1,3.6,10.2,5.2,20.6,10.8,30.9,16.9l2.5,1.5c9,5.3,18.4,10.9,28.6,13.5,17.6,4.4,35.9-.1,53.7-4.5,6.5-1.6,13.3-3.3,20-4.4s17-2.5,26.2.1a29.7,29.7,0,0,1,16.3,10.8,22,22,0,0,1,3.1,6.1c1.7,5.1,1.4,10.4,1.2,15.5s-.5,8.8.5,13c2.8,12,14.2,18.8,25.6,24.9s23.4,14.1,26.1,26.9c1.4,6.9.3,13.6-.8,20.1s-1.8,10.5-1.3,15.8c.7,9.3,5.2,17.6,10.1,26.4l.5,1.1c6.4,11.7,11.7,22.3,11.4,34.2A34.6,34.6,0,0,1,384.5,407.6ZM-40.4,378.3l.6-.6c8.5,8,20.1,10.8,31.4,13.6l7,1.7A164.5,164.5,0,0,1,58,423.4a155,155,0,0,1,16.3,15l.9,1c5.5,5.8,11.2,11.8,18.7,12.5,3.5.4,7-.5,10.6-1.4l3.7-.8c15.4-3.2,33.1,1.2,52.6,13,6.1,3.7,11.8,7.7,17.4,11.5a249.9,249.9,0,0,0,21.6,14l5.4,2.9c9.2,4.5,32.7,14.1,53.4,4.4,14.6-6.9,22.7-21.8,30.4-36.3l5.3-9.7c3.1-5.5,6.8-11,12.3-14.6,8.1-5.3,18.1-4.9,27.8-4.6,3.2.2,6.6.3,9.8.2,7.6-.3,18.7-2,28-9.1a33.2,33.2,0,0,0,12.9-25.3c.3-11.4-4.8-21.8-11.1-33.3l-.6-1.1c-4.7-8.5-9.5-17.4-10.3-27.1-.4-5.5.5-10.9,1.4-16.2s2.1-12.9.8-19.4c-2.5-12.2-13.6-19.6-25.3-25.9s-23.4-13.3-26.4-25.9c-1-4.4-.8-9-.6-13.5s.5-10.1-1-14.9a22.3,22.3,0,0,0-3-5.7,28.8,28.8,0,0,0-15.3-10.2c-8.9-2.4-18.3-1.3-25.5,0s-13.4,2.8-20,4.4c-17.9,4.4-36.4,9-54.3,4.5-10.6-2.7-20-8.3-29.2-13.7l-2.4-1.5c-10.3-6-20.7-11.7-30.9-16.8-6.7-3.4-14.3-6.4-20.6-3.6-3.8,1.7-6.2,5-8.8,8.6-1.1,1.4-2.2,3-3.5,4.4A31.6,31.6,0,0,1,69.4,199c-2.4-.5-4.8-1.2-7.1-1.9-5.8-1.7-11.3-3.3-16.6-1.4a17.5,17.5,0,0,0-11,12,50,50,0,0,0-1,5.8l-.6,3.7a81.8,81.8,0,0,1-2.8,10.3c-.4.9-.7,1.9-1.1,2.8a33.7,33.7,0,0,0-1.9,6.7c-2.4,19.8-4.2,35.4-20.9,49-5.1,4.1-8.2,9.7-11.2,15.2s-7.4,13.6-15,17.9a76.4,76.4,0,0,1-7.1,3.4,58.1,58.1,0,0,0-8.6,4.4c-7.6,4.8-12.7,13.8-13.6,24.1s2.5,20.4,9.3,26.7Z"/><path class="cls-3" d="M352.5,397a30.7,30.7,0,0,1-10,13.3c-8.4,6.4-18.3,8-25.2,8.2-2.8.1-5.7,0-8.6-.1-8.2-.2-16.6-.5-23.3,3.8-4.5,2.9-7.6,7.5-10.3,12l-4.6,8.3c-6.9,12.7-14.1,25.8-27.3,31.9-18.8,8.6-40.3.7-48.7-3.1l-4.9-2.3c-7-3.6-13.5-7.7-19.8-11.7-4.7-3-9.6-6.1-14.7-9-17.4-9.8-32.2-13.3-45.3-10.6l-3.2.7c-3.2.7-6.5,1.5-9.9,1.2-7.2-.8-12.7-6.5-17.5-11.5l-.8-.8a148.2,148.2,0,0,0-14.3-13,150.4,150.4,0,0,0-51.4-27l-5.8-1.6c-10-2.7-20.3-5.5-28-12.8h0c-6.2-5.9-9.3-15.2-8.4-24.7s5.4-17.6,12.4-22.2a60.3,60.3,0,0,1,7.5-4c2-.9,4.1-1.9,6-3,6.2-3.6,9.2-9.2,12.4-15.1s5.4-9.9,10.1-13.7c12.9-10.7,14.8-22.6,17.4-39l.4-2.8a22.6,22.6,0,0,1,2.5-6.7c.4-1,.9-1.9,1.3-2.9a45.9,45.9,0,0,0,3.2-9.9,32.7,32.7,0,0,0,.6-4.2,35,35,0,0,1,.9-5.5,18.2,18.2,0,0,1,12-13.2c5.1-1.7,10.4-.2,15.4,1.2,2,.6,4,1.2,6,1.6a26.4,26.4,0,0,0,23.9-7.8c1.1-1.2,2-2.4,3-3.7,2.3-3,4.6-6.1,8.3-7.7,6-2.7,13.1.1,19.3,3.2,9.1,4.6,18.2,9.5,27,14.6l2.2,1.2c7.8,4.6,16,9.3,24.9,11.5,15.1,3.7,30.9-.2,46.2-4,5.9-1.4,11.9-2.9,17.9-3.9s14.9-2.2,23.3.1a27.7,27.7,0,0,1,14.4,9.6,20.4,20.4,0,0,1,2.8,5.5c1.6,4.5,1.3,9.3,1.1,14s-.3,7.6.5,11.2c2.3,10.4,11.4,16.5,21.5,22.3s19.8,12.9,22.2,24.2c1.4,6.2.7,12.2,0,18s-1.2,9.5-.6,14.4c.9,7.7,4.4,14.7,8.2,22.2l1.5,2.9c5.5,11,9,20.5,8.4,30.8A35.1,35.1,0,0,1,352.5,397ZM-25.9,339.8a33,33,0,0,0-2,8.5c-.8,9.1,2.1,17.8,7.9,23.4,7.4,7.1,17.5,9.8,27.3,12.4l5.9,1.7A151.4,151.4,0,0,1,65.1,413a151.4,151.4,0,0,1,14.5,13.2l.8.8c4.8,5,9.9,10.2,16.5,10.9,3.1.4,6.1-.3,9.3-1.1l3.3-.7c13.5-2.7,28.7.8,46.4,10.8,5.1,2.9,10,6,14.7,9,6.6,4.1,12.8,8.1,19.8,11.6l4.7,2.3c8.2,3.7,29.3,11.5,47.5,3.1,12.6-5.8,19.7-18.7,26.5-31.1,1.5-2.8,3-5.7,4.6-8.4,2.8-4.7,6-9.5,10.9-12.6,7.1-4.5,15.8-4.3,24.2-4,2.8.1,5.7.2,8.5.1,6.6-.2,16.2-1.8,24.3-7.9a29.5,29.5,0,0,0,11.3-21.7c.7-10-2.8-19.2-8.2-30l-1.5-2.9c-3.6-7.2-7.4-14.7-8.3-22.8-.6-5,0-9.9.6-14.7s1.3-11.5.1-17.4c-2.3-10.8-11.7-17.5-21.6-23.2S294.2,264,291.8,253c-.9-3.9-.7-7.9-.5-11.7s.4-9.1-1-13.4a21.7,21.7,0,0,0-2.6-5,25.1,25.1,0,0,0-13.6-9c-8-2.2-16.7-1.1-22.5-.1s-11.9,2.5-17.8,3.9c-15.5,3.8-31.5,7.8-47,4-9.1-2.2-17.4-7-25.4-11.7l-2.1-1.2c-8.8-5.1-17.9-10-27-14.6-6.1-3-12.4-5.5-17.9-3.1-3.2,1.4-5.4,4.2-7.6,7.2l-3,3.8a28.2,28.2,0,0,1-25.5,8.3,60.6,60.6,0,0,1-6.1-1.6c-5.1-1.4-9.9-2.8-14.5-1.3a16.6,16.6,0,0,0-11,12.1,43.4,43.4,0,0,0-.8,5.2,33.2,33.2,0,0,1-.6,4.4A49.6,49.6,0,0,1,42,239.5l-1.4,2.9a21.8,21.8,0,0,0-2.3,6.3l-.4,2.8c-2.6,16.1-4.6,28.9-18,39.9-4.4,3.6-7.1,8.6-9.7,13.3s-6.4,11.9-13,15.7a50,50,0,0,1-6.1,3.1,50.6,50.6,0,0,0-7.3,3.8A26.5,26.5,0,0,0-25.9,339.8Z"/><path class="cls-3" d="M320.5,386.4a26.4,26.4,0,0,1-8.6,11.6c-7.2,5.3-15.6,6.7-21.5,7-2.4.1-4.9,0-7.3-.1-6.9-.2-14-.4-19.7,3.2-3.8,2.4-6.5,6.3-8.8,10.1-1.4,2.2-2.7,4.6-4,7-6,10.6-12.2,21.5-23.4,26.6-15.6,7-33.5,1.9-42.8-1.8l-4.2-1.7c-6.4-2.9-12.2-6.1-18.2-9.4-3.8-2.1-7.7-4.3-11.8-6.4-9.8-4.9-24.5-11.2-39.2-8.4l-2.7.5a24.8,24.8,0,0,1-8.6,1c-6.3-.7-11.1-5.6-15.4-9.9l-.6-.6A163.6,163.6,0,0,0,71.3,404a139.5,139.5,0,0,0-44-24l-4.7-1.4c-8.5-2.6-17.3-5.3-23.9-11.8-5.1-5.2-7.8-13.1-7-21.3s4.5-15,10.4-19A39.8,39.8,0,0,1,8.5,323c1.6-.9,3.3-1.7,4.9-2.7,5.1-3,7.7-7.8,10.4-12.8s4.6-8.6,8.6-11.9c10.6-8.9,15-19.2,15.3-35.4V260h.1a70.8,70.8,0,0,1,3.2-6.8c.5-.8.9-1.6,1.3-2.4a39.1,39.1,0,0,0,3.7-9.8,37.5,37.5,0,0,0,.5-4.7,44.6,44.6,0,0,1,.7-5.1,17.6,17.6,0,0,1,12-13.3c4.4-1.4,8.9-.1,13.3,1.1a40.5,40.5,0,0,0,5,1.2,22.3,22.3,0,0,0,20.3-6.3,34.7,34.7,0,0,0,2.5-2.9c2-2.5,4-5.1,7.2-6.4,5.2-2.2,11,0,16.5,2.8,7.8,3.8,15.5,8,23.1,12.2l1.6.9c6.8,3.9,13.8,7.9,21.5,9.6,12.7,3,26.1-.3,39-3.5,5.1-1.2,10.3-2.5,15.5-3.4,8.2-1.4,14.7-1.4,20.3.2a23.4,23.4,0,0,1,12.6,8.4,18.3,18.3,0,0,1,2.5,4.8c1.4,4,1.2,8.3,1.1,12.4a42.8,42.8,0,0,0,.3,9.5c2,9.7,10.9,15.5,17.4,19.7,8.4,5.4,16.3,11.7,18.5,21.5,1.2,5.5.9,10.7.6,15.8a70.9,70.9,0,0,0,.2,13c1,6.2,3.6,11.9,6.5,17.9.7,1.6,1.4,3.2,2.2,4.8,4.7,10.6,6.4,19.1,5.5,27.6A32.2,32.2,0,0,1,320.5,386.4ZM-.7,366.2l.6-.6c6.2,6.3,14.9,8.9,23.2,11.4l4.7,1.5a140.4,140.4,0,0,1,44.5,24.2,148.8,148.8,0,0,1,12.5,11.2l.7.7c4.2,4.3,8.6,8.7,14.4,9.4a22.8,22.8,0,0,0,8.1-1l2.7-.5c15.2-2.9,30.2,3.5,40.2,8.6,4.1,2.1,8.1,4.3,11.9,6.4,6,3.3,11.7,6.4,18.1,9.3l4.1,1.7c9.1,3.6,26.4,8.6,41.5,1.8,10.7-4.8,16.8-15.6,22.6-25.9,1.4-2.4,2.7-4.8,4.1-7.1,2.4-4,5.2-8,9.3-10.6,6.1-3.8,13.5-3.6,20.6-3.4h7.3c5.6-.2,13.7-1.5,20.5-6.6s9-10.7,9.8-18.2-.7-16.2-5.3-26.7l-2.2-4.8c-2.9-6.1-5.6-11.9-6.6-18.3a67,67,0,0,1-.2-13.4c.3-5,.6-10.1-.6-15.3-2-9.2-9.7-15.3-17.7-20.5s-16.1-10.4-18.2-20.8a40.2,40.2,0,0,1-.3-9.8c.1-4.2.3-8.1-1-11.9a20.6,20.6,0,0,0-2.3-4.4,22.3,22.3,0,0,0-11.8-7.7c-5.3-1.5-11.6-1.6-19.6-.2-5,.9-10.3,2.2-15.3,3.4-13.1,3.2-26.7,6.6-39.8,3.5-7.9-1.8-15-5.8-21.9-9.7l-1.6-1c-7.5-4.2-15.3-8.3-23.1-12.2-5.1-2.5-10.5-4.7-15.1-2.7-2.7,1.1-4.6,3.4-6.5,5.9L109,215a24.2,24.2,0,0,1-21.8,6.7c-1.7-.3-3.5-.8-5.1-1.2-4.4-1.2-8.4-2.4-12.4-1.1a15.8,15.8,0,0,0-10.9,12.1,24.2,24.2,0,0,0-.6,4.8c-.2,1.6-.3,3.3-.6,4.9a37.3,37.3,0,0,1-3.9,10.2l-1.2,2.5a55.9,55.9,0,0,0-3.2,6.5c-.3,16.7-4.9,27.2-15.9,36.5-3.7,3.1-6,7.3-8.2,11.4s-5.4,10.1-10.9,13.4q-2.6,1.5-5.1,2.7A46.5,46.5,0,0,0,3,327.8c-5.5,3.7-9,10.2-9.7,17.8s1.7,15.2,6.6,20Z"/><path class="cls-3" d="M288.6,375.7a21.8,21.8,0,0,1-7.3,9.9c-6,4.4-13,5.6-17.8,5.8-2,.1-4,0-6,0-5.7-.1-11.5-.3-16.1,2.6s-5.4,5-7.3,8.1-2.3,3.8-3.5,5.7c-5,8.5-10.2,17.3-19.5,21.4-12.4,5.4-26.8,2.8-36.7-.4l-3.5-1.2c-6.4-2.3-12-4.8-18-7.5l-7.6-3.3c-9.9-4.3-21.5-8.4-33-6.3l-2.2.4a23,23,0,0,1-7.4.7c-5.4-.6-9.6-4.7-13.2-8.2l-.5-.5c-3.3-3.2-6.9-6.3-10.6-9.3a134.3,134.3,0,0,0-36.5-20.9l-3.5-1.2c-7.1-2.5-14.4-5.1-19.8-10.8h0c-4.2-4.4-6.3-11.1-5.7-17.9s3.7-12.4,8.4-15.8a47.4,47.4,0,0,1,5.2-3.1l4-2.2c4-2.6,6.1-6.5,8.3-10.7s3.8-7.1,7.1-9.9c8.6-7.5,12.3-15.9,12.8-29.3h0v-.2c1.1-2.2,2.4-4.3,3.7-6.4l1.6-2.6a30.2,30.2,0,0,0,4.1-9.6,42.3,42.3,0,0,0,.5-5,39.1,39.1,0,0,1,.5-4.8,17,17,0,0,1,12-13.4c3.7-1.1,7.5-.1,11.1.9,1.4.3,2.7.7,4.1.9a18.8,18.8,0,0,0,16.6-4.8,15.1,15.1,0,0,0,2.1-2.3c1.7-2,3.4-4.1,6.1-5.1,4.3-1.7,9.1.2,13.7,2.4,6.4,3.2,12.9,6.5,19.1,10l1.1.5c5.7,3.2,11.6,6.4,18,7.8,10.4,2.2,21.3-.5,31.8-3.1,4.3-1,8.8-2.1,13.1-2.9,7.1-1.2,12.6-1.1,17.4.3a20,20,0,0,1,10.8,7.1,14.9,14.9,0,0,1,2.2,4.1c1.3,3.6,1.2,7.4,1,11a32.7,32.7,0,0,0,.3,7.7c1.4,8.1,8,13.1,13.3,17.2s12.7,10.1,14.7,18.7a64.2,64.2,0,0,1,1.3,13.5,58.8,58.8,0,0,0,1,11.8c.9,4.6,2.8,8.9,4.8,13.5.9,2.2,1.9,4.5,2.8,6.8,3.2,8.5,4,15.9,2.6,24.2A32.8,32.8,0,0,1,288.6,375.7ZM16,336.7a20.9,20.9,0,0,0-1.5,6.2,21.8,21.8,0,0,0,5.2,16.7h0c5.2,5.4,12,7.8,19.2,10.3l3.5,1.3a134.7,134.7,0,0,1,37,21.1,140.9,140.9,0,0,1,10.7,9.4l.5.5c3.7,3.5,7.4,7.2,12.3,7.8a22.8,22.8,0,0,0,6.8-.7l2.3-.5c12-2,23.9,2.1,33.9,6.5l7.7,3.4c5.9,2.6,11.5,5.1,17.8,7.4l3.5,1.2c9.7,3,23.6,5.6,35.5.4,8.8-3.8,13.9-12.4,18.8-20.7l3.5-5.8c2.1-3.2,4.4-6.5,7.8-8.6,5.1-3.1,11.1-3,17-2.8h6c4.5-.2,11.2-1.4,16.8-5.5s7.2-8.3,8.3-14.6a43.2,43.2,0,0,0-2.5-23.4c-.9-2.3-1.9-4.6-2.8-6.8-2.1-4.6-4-9-4.9-13.8a63.3,63.3,0,0,1-1.1-12.1,54.2,54.2,0,0,0-1.2-13.1c-1.9-8.1-8.2-13.5-14-17.8s-12.5-9.4-14-18.2a36.4,36.4,0,0,1-.3-8.1c.1-3.6.3-7-.9-10.3a19,19,0,0,0-2-3.7,18.8,18.8,0,0,0-9.9-6.6c-4.6-1.3-9.9-1.3-16.7-.2-4.3.8-8.7,1.8-13,2.9-10.7,2.6-21.8,5.4-32.5,3-6.7-1.4-12.7-4.7-18.5-7.8l-1-.6q-9.5-5.1-19.2-9.9c-4.2-2.1-8.6-3.8-12.3-2.4s-3.8,2.7-5.4,4.6-1.4,1.7-2.2,2.5a20.7,20.7,0,0,1-18.1,5.2,32,32,0,0,1-4.2-1c-3.6-.9-6.9-1.8-10.3-.9a15.5,15.5,0,0,0-10.8,12.1,35.6,35.6,0,0,0-.5,4.7,48,48,0,0,1-.5,5.2c-.7,4-2.7,7.5-4.3,10.2L63.9,266c-1.3,2-2.5,4-3.6,6.1-.5,13.7-4.4,22.5-13.3,30.2-3.1,2.6-4.9,6.1-6.7,9.5s-4.5,8.4-9,11.3l-4,2.3a42.1,42.1,0,0,0-5.1,2.9A18.4,18.4,0,0,0,16,336.7Z"/><path class="cls-3" d="M257,365.1a18.1,18.1,0,0,1-6.4,8.2,25.9,25.9,0,0,1-14,4.5h-4.7c-4.6-.1-8.9-.1-12.6,2a19.5,19.5,0,0,0-5.7,6.1c-1,1.4-2,2.9-2.9,4.4-4.1,6.5-8.4,13.2-15.7,16.2s-17.9,3.7-30.5,1l-3-.7c-7.2-1.7-13.3-3.4-21.1-5.9s-17.3-5.6-26.9-4.1l-1.7.2a17.8,17.8,0,0,1-6.1.5c-4.5-.5-8-3.8-11.1-6.6l-.3-.3c-2.7-2.5-5.7-5-8.7-7.4a135.1,135.1,0,0,0-29.2-17.9l-2.2-.9c-5.7-2.4-11.5-4.9-15.8-9.9h0a19.1,19.1,0,0,1-4.3-14.5,18,18,0,0,1,6.4-12.6,45.3,45.3,0,0,1,4-2.6l3-1.9c3-2.1,4.6-5.1,6.3-8.4s3-5.8,5.6-8.1c6.7-6,9.6-12.7,10.3-23v-.4A60.2,60.2,0,0,1,74,277l1.9-2.6a24.7,24.7,0,0,0,4.5-9.5,30.7,30.7,0,0,0,.5-5.3,23.7,23.7,0,0,1,.3-4.6,16.5,16.5,0,0,1,12-13.5c3-.8,6.1,0,9,.7l3,.7a15.9,15.9,0,0,0,13.1-3.3l1.7-1.7a11.4,11.4,0,0,1,4.9-3.7c3.4-1.2,7.2.2,10.9,2l15.2,7.6.4.2c4.6,2.4,9.4,4.9,14.7,5.9,8,1.5,16.4-.6,24.6-2.6,3.5-.9,7.2-1.8,10.7-2.4,5.7-.9,10.4-.8,14.4.3a17,17,0,0,1,9,6,16.3,16.3,0,0,1,1.9,3.4c1.2,3.1,1.1,6.4,1,9.5a29.9,29.9,0,0,0,.2,6c.9,6.5,5.3,10.8,9.3,14.5s9,9.1,10.8,16c.9,3.8,1.3,7.3,1.8,10.7a68.4,68.4,0,0,0,1.9,11,65.3,65.3,0,0,0,3.3,9,79.6,79.6,0,0,1,3.3,9c2.5,8.4,2.4,15.1-.3,20.9A13.2,13.2,0,0,1,257,365.1ZM39.6,353.6c4.1,4.6,9.5,6.9,15.2,9.4l2.3.9A138,138,0,0,1,86.6,382c3.1,2.4,6,4.9,8.8,7.5l.3.3c3,2.8,6.2,5.7,10.2,6.2a18,18,0,0,0,5.6-.5l1.7-.3c10-1.5,20.3,1.8,27.7,4.3s13.9,4.2,21,5.8l2.9.7c12.3,2.6,22,2.3,29.6-.9s10.9-9.3,14.9-15.6c1-1.5,1.9-3,2.9-4.4a20.9,20.9,0,0,1,6.3-6.6c4-2.4,8.8-2.3,13.4-2.3,1.5,0,3.1.1,4.7,0a24.9,24.9,0,0,0,13.1-4.3c3.8-2.7,6.4-6.9,6.6-10.9v-.2h0c2.6-5.5,2.7-11.9.3-20-.9-3-2.1-5.9-3.2-8.8a70.8,70.8,0,0,1-3.4-9.1,96,96,0,0,1-2-11.3,87.8,87.8,0,0,0-1.7-10.5c-1.6-6.5-6-11.1-10.4-15.2s-8.8-8.4-9.8-15.5a43,43,0,0,1-.1-6.2,23.9,23.9,0,0,0-.9-8.9,11.1,11.1,0,0,0-1.7-3,15.2,15.2,0,0,0-8.1-5.4c-3.8-1.1-8.3-1.2-13.7-.3-3.5.6-7.1,1.5-10.6,2.4-8.3,2-16.9,4.2-25.3,2.6-5.5-1.1-10.4-3.6-15.2-6l-.3-.2c-5.1-2.7-10.3-5.2-15.2-7.6-3.4-1.6-6.8-3-9.7-2a11,11,0,0,0-4.2,3.3l-1.8,1.8a17.5,17.5,0,0,1-14.5,3.7l-3.1-.7c-2.9-.8-5.6-1.4-8.2-.7a14.9,14.9,0,0,0-10.8,12.1,32.9,32.9,0,0,0-.3,4.5,34.1,34.1,0,0,1-.5,5.5,27.6,27.6,0,0,1-4.8,10.2L75.3,278a54.5,54.5,0,0,0-4,5.8c-.7,10.7-3.8,17.7-10.8,23.9-2.4,2.1-3.8,4.8-5.2,7.7s-3.5,6.7-6.9,9l-3.1,1.9a31.1,31.1,0,0,0-3.8,2.5,16.6,16.6,0,0,0-5.8,11.4,18.2,18.2,0,0,0,3.9,13.4Z"/><path class="cls-3" d="M228.1,348.1a18.8,18.8,0,0,1-2.4,4.4,12.9,12.9,0,0,1-5.7,8.4,20,20,0,0,1-10.3,3.3h-3.4c-3.3.1-6.4.1-9,1.5a16.5,16.5,0,0,0-4.3,4.1l-2.3,3.1c-3.1,4.4-6.4,9-11.8,11.1-7.9,3.1-16.8,2.6-23.9,2.3h-7.5a85.8,85.8,0,0,1-11.9-.9l-3.8-.6c-5.3-1-11.2-2.1-17.1-1.3h-1.2a15.9,15.9,0,0,1-4.9.2c-3.5-.5-6.4-2.9-8.9-5l-7-5.7A171.1,171.1,0,0,0,71,358.1l-.9-.4c-4.4-2.6-8.7-4.9-11.9-9.2h0c-4.5-5.9-3.8-15.7,1.5-20.5l2.8-2.2,2-1.4c2-1.6,3.1-3.8,4.3-6.2a20.9,20.9,0,0,1,4.1-6.2c4.6-4.5,7-9.5,7.8-16.9v-.2h.1a38.7,38.7,0,0,1,4.6-5.9l2.2-2.6c1.8-2.2,4.2-5.5,5-9.4a33.8,33.8,0,0,0,.3-5.5,33.9,33.9,0,0,1,.2-4.5,16.3,16.3,0,0,1,12-13.6,14.8,14.8,0,0,1,6.9.6l2,.4a12.4,12.4,0,0,0,9.5-1.9l1.3-1a8.8,8.8,0,0,1,3.7-2.4c2.7-.7,5.6.5,8.1,1.7l11.2,5.3c4,1.8,7.3,3.2,11.1,3.8,5.7.8,11.7-.7,17.4-2.1,2.8-.7,5.6-1.4,8.4-1.9a27.1,27.1,0,0,1,11.5.4,13.9,13.9,0,0,1,7.1,4.8,10.1,10.1,0,0,1,1.6,2.6c1.1,2.8,1,5.6,1,8.3a26.7,26.7,0,0,0,0,4c.5,5.1,2.9,8.6,5.3,12l.3.4c2.3,3.3,5.2,7.4,6.6,12.8.5,1.9,1,3.6,1.4,5.3a118.8,118.8,0,0,0,3.8,12.9l1.8,4.4a54.6,54.6,0,0,1,3.8,11.2A24.2,24.2,0,0,1,228.1,348.1Zm-3.9,3.8h.1c3.3-4.6,4.3-10.2,3.1-16.6a47.4,47.4,0,0,0-3.7-10.8l-1.8-4.5c-1.7-4.5-2.7-8.6-3.9-13-.4-1.8-.8-3.5-1.3-5.3-1.4-5.2-4.1-9-6.5-12.4l-.2-.3c-2.4-3.5-5.1-7.4-5.6-12.9-.1-1.3-.1-2.8-.1-4.1s.2-5.2-.8-7.6a10.9,10.9,0,0,0-1.4-2.3,11.8,11.8,0,0,0-6.3-4.2,23.5,23.5,0,0,0-10.7-.3,82.1,82.1,0,0,0-8.3,1.8c-5.9,1.4-12,3-18,2.1-4.3-.6-8.3-2.5-11.5-4L136,252.1c-2.3-1-4.8-2.1-7-1.5a7.5,7.5,0,0,0-3.1,2l-1.3,1.1a14,14,0,0,1-10.8,2.2l-2.1-.5c-2.2-.5-4.2-1-6.1-.5a14.5,14.5,0,0,0-10.8,12.2,30.2,30.2,0,0,0-.2,4.3,37.6,37.6,0,0,1-.3,5.8c-.9,4.2-3.5,7.8-5.3,10.1L86.7,290a46.1,46.1,0,0,0-4.4,5.5c-.9,7.6-3.4,12.9-8.3,17.7a20,20,0,0,0-3.7,5.7c-1.3,2.4-2.5,5-4.8,6.8l-2.1,1.5-2.6,2c-4.7,4.2-5.3,13.1-1.3,18.3h0c3,4,7.1,6.3,11.4,8.7l.8.5a178.8,178.8,0,0,1,22.1,14.9l6.9,5.7c2.5,2.1,5.1,4.3,8.1,4.7a17,17,0,0,0,4.5-.2l1.2-.2c6.1-.7,12.2.4,17.6,1.4l3.8.6a80.7,80.7,0,0,0,11.6.9h7.6c7,.4,15.6.8,23.2-2.2,4.9-1.9,8.1-6.2,11.1-10.4.8-1.1,1.5-2.2,2.3-3.2a17.3,17.3,0,0,1,4.8-4.5c3-1.6,6.4-1.7,9.7-1.7h3.4a19.1,19.1,0,0,0,9.5-3,12.2,12.2,0,0,0,5.1-7.5Z"/><path class="cls-3" d="M198.6,336.7a18.7,18.7,0,0,1-5.1,7.2,9.9,9.9,0,0,1-4.2,4.7,14.6,14.6,0,0,1-6.4,2l-2.3.2a13.7,13.7,0,0,0-5.4,1,12.1,12.1,0,0,0-2.8,2.1l-1.7,1.7c-2.2,2.3-4.5,4.7-7.9,5.9A70.9,70.9,0,0,1,151,364a54.8,54.8,0,0,0-6.3,1.1l-1.7.4-4.6,1.7a25.7,25.7,0,0,1-7.4,2.2,42.1,42.1,0,0,1-8,.2c-2.3,0-4.7-.1-7.1.1h-.5a16.1,16.1,0,0,1-3.8,0,15.4,15.4,0,0,1-6.6-3.4l-5.1-3.7c-4.6-3.6-9.4-7.6-14.5-11.9a30.1,30.1,0,0,1-7.4-8.3h0c-2.4-4.3-2-10.3.8-13.8a14.5,14.5,0,0,1,1.7-1.8l.9-1a15.7,15.7,0,0,0,2.4-4,15.9,15.9,0,0,1,2.6-4.3,25,25,0,0,0,5.4-10.8v-.2h.1a46.1,46.1,0,0,1,5.1-5.7l2.5-2.5c3.1-3.4,4.8-6.3,5.4-9.3a20.9,20.9,0,0,0,.2-5.6,32,32,0,0,1,.1-4.4,15.4,15.4,0,0,1,12-13.7,11.1,11.1,0,0,1,4.8.3l1,.2a10.9,10.9,0,0,0,6-.5l.8-.4a6.7,6.7,0,0,1,2.6-.9c1.7-.3,3.5.5,5.2,1.2s5,2.2,7.3,3a24,24,0,0,0,7,1.6c3.3.2,6.8-.7,10.2-1.6s4.1-1,6.1-1.3a18.2,18.2,0,0,1,8.5.4,11.3,11.3,0,0,1,5.4,3.5l1.2,2c1.1,2.4,1,5,.9,7.4v1.7a41.2,41.2,0,0,0,1.3,9.6c.6,2.3,1.3,4.8,2.2,7.7l.8,2.5a72.6,72.6,0,0,0,5.9,13.3l.8,1.4c2.1,4,4.2,8.1,4.5,13.2A16,16,0,0,1,198.6,336.7Zm-6.5,6.3v-.2a15.9,15.9,0,0,0,5.9-13.2c-.3-4.7-2.3-8.7-4.3-12.5l-.8-1.5a79.1,79.1,0,0,1-6.1-13.5l-.7-2.5c-.9-2.9-1.7-5.4-2.3-7.8a39,39,0,0,1-1.3-10V280c.1-2.3.2-4.5-.8-6.6l-1-1.7a9.1,9.1,0,0,0-4.6-2.9,18,18,0,0,0-7.8-.4c-1.9.3-3.8.8-5.9,1.3s-7.1,1.8-10.7,1.6a23.6,23.6,0,0,1-7.5-1.7c-2.3-.8-4.8-1.8-7.4-3a8.1,8.1,0,0,0-4.3-1.1,5.9,5.9,0,0,0-2,.7l-1,.5a12.2,12.2,0,0,1-6.9.6l-1.1-.2a9.6,9.6,0,0,0-4.1-.3A13.9,13.9,0,0,0,106.8,279a29.4,29.4,0,0,0,0,4.2,30.2,30.2,0,0,1-.3,6c-.9,4.4-3.7,7.8-5.8,10.1l-2.6,2.6a60.4,60.4,0,0,0-4.8,5.3,25.1,25.1,0,0,1-5.7,11.4,16.7,16.7,0,0,0-2.3,3.9,18.6,18.6,0,0,1-2.7,4.5l-1,1a11.4,11.4,0,0,0-1.5,1.6c-2.4,3-2.7,8.3-.7,12h0a28.9,28.9,0,0,0,7.1,7.9c5,4.3,9.8,8.2,14.4,11.8l5,3.7c1.9,1.4,3.8,2.7,5.9,3a13.7,13.7,0,0,0,3.5.1h.5q3.8-.2,7.2,0a47.5,47.5,0,0,0,7.7-.2,25.6,25.6,0,0,0,7.1-2.1,44,44,0,0,1,4.8-1.8l1.7-.4a58.6,58.6,0,0,1,6.5-1.1,75.8,75.8,0,0,0,11.5-2.4c3-1.1,5.2-3.3,7.3-5.5a13.7,13.7,0,0,1,1.7-1.7,11.9,11.9,0,0,1,3.2-2.5,15.7,15.7,0,0,1,6.1-1.1l2.1-.2a13.2,13.2,0,0,0,5.8-1.8,8.9,8.9,0,0,0,3.5-4Z"/><path class="cls-3" d="M169.7,326.8c-1.5,4.1-5.4,7.1-8.8,8.6a43.3,43.3,0,0,1-11.1,2.9l-3.2.6c-4,.9-9.2,2.2-12.7,5.7a27.9,27.9,0,0,0-3,3.8,21.7,21.7,0,0,1-4.5,5.1c-5.7,4.4-14,2.7-19.3-1.3A24.4,24.4,0,0,1,97.7,336a24.8,24.8,0,0,1,5.2-18,58,58,0,0,1,5.6-5.5l2.8-2.5c3.4-3.2,5.2-6,5.8-9.1a22.2,22.2,0,0,0,.2-5.8,30.5,30.5,0,0,1-.1-4.3c.4-6.2,5-13.1,12.1-13.8,2.6-.3,4.7.7,6.8,1.6a13.4,13.4,0,0,0,5.5,1.6,17,17,0,0,0,5.3-1.3,23.2,23.2,0,0,1,4.7-1.2c2.3-.3,6.6-.2,9.1,2.8s1.5,8.4-.3,12.5-2.7,6.2-1.6,9.1,3.2,5.4,5.3,7.8c3.5,4,7.1,8.1,6.3,14.3h0A7.7,7.7,0,0,1,169.7,326.8Zm-69-1.8a23.4,23.4,0,0,0-1.4,10.8,22.9,22.9,0,0,0,8.8,15.1c4.8,3.6,12.3,5.2,17.3,1.3a23.6,23.6,0,0,0,4.2-4.7,30.3,30.3,0,0,1,3.2-4.1c3.8-3.7,9.2-5.2,13.5-6.1l3.2-.6a43.3,43.3,0,0,0,10.7-2.8c3.8-1.7,8-5.1,8.6-9.9h0c.7-5.5-2.5-9.1-5.9-13s-4.5-5.2-5.7-8.3.3-7,1.7-10.3,3.3-7.5.5-10.9-6-2.4-7.6-2.2a17.2,17.2,0,0,0-4.4,1.2,16.6,16.6,0,0,1-5.9,1.3,14.5,14.5,0,0,1-6-1.7c-2-.9-3.9-1.7-6.1-1.5-5.4.6-10.2,6.1-10.6,12.3a27.7,27.7,0,0,0,.1,4.1,26.6,26.6,0,0,1-.2,6.3c-.7,3.3-2.7,6.5-6.3,9.9l-2.8,2.6a44.2,44.2,0,0,0-5.4,5.2A24.2,24.2,0,0,0,100.7,325Z"/><path class="cls-4" d="M1347.7,53.2s0,3.7.4,4.1,4.2.5,4.2.5-3.8,0-4.2.4a32.9,32.9,0,0,0-.4,4.2s0-3.9-.4-4.2-4.2-.4-4.2-.4,3.9-.1,4.2-.5S1347.7,53.2,1347.7,53.2Z"/><path class="cls-4" d="M1294.4,479s-.1,5.7.6,6.4,6.4.6,6.4.6-5.9.2-6.4.7-.6,6.3-.6,6.3,0-5.8-.6-6.3-6.4-.7-6.4-.7,5.9,0,6.4-.6S1294.4,479,1294.4,479Z"/><path class="cls-4" d="M563.4,472.1s-.1,5.6.6,6.3,6.3.6,6.3.6-5.8.2-6.3.7-.6,6.3-.6,6.3-.1-5.8-.7-6.3-6.3-.7-6.3-.7,5.8,0,6.3-.6S563.4,472.1,563.4,472.1Z"/><path class="cls-4" d="M172,419.7s-.1,5.7.6,6.4,6.4.6,6.4.6-5.9.1-6.4.6-.6,6.4-.6,6.4,0-5.8-.6-6.4-6.4-.6-6.4-.6,5.9-.1,6.4-.6S172,419.7,172,419.7Z"/><path class="cls-4" d="M333.4,36.3s-.1,5.7.6,6.4,6.4.6,6.4.6-5.9.2-6.4.7-.6,6.3-.6,6.3,0-5.8-.6-6.3-6.4-.7-6.4-.7,5.8,0,6.4-.6S333.4,36.3,333.4,36.3Z"/><path class="cls-4" d="M1358.8,337.5s-.1,3.7.4,4.2,4.2.4,4.2.4-3.9.1-4.2.4-.4,4.2-.4,4.2-.1-3.8-.4-4.2-4.2-.4-4.2-.4,3.8-.1,4.2-.4S1358.8,337.5,1358.8,337.5Z"/><path class="cls-4" d="M1028.6,444.6s0,3.7.4,4.1,4.2.4,4.2.4-3.8.1-4.2.5a31.5,31.5,0,0,0-.4,4.1s0-3.8-.4-4.1-4.2-.5-4.2-.5,3.9,0,4.2-.4S1028.6,444.6,1028.6,444.6Z"/><path class="cls-4" d="M945.3,38.7s-.1,3.8.4,4.2,4.2.4,4.2.4-3.9.1-4.2.4a34.7,34.7,0,0,0-.4,4.2s0-3.8-.4-4.2-4.2-.4-4.2-.4,3.8,0,4.2-.4S945.3,38.7,945.3,38.7Z"/><path class="cls-4" d="M372,48.6s-.1,3.7.4,4.1,4.2.5,4.2.5-3.9,0-4.2.4-.4,4.2-.4,4.2,0-3.9-.4-4.2-4.2-.4-4.2-.4,3.8-.1,4.2-.5S372,48.6,372,48.6Z"/><path class="cls-4" d="M84.8,85.1s0,3.7.4,4.2,4.2.4,4.2.4-3.8.1-4.2.4a32.9,32.9,0,0,0-.4,4.2s0-3.8-.4-4.2-4.2-.4-4.2-.4,3.9-.1,4.2-.4S84.8,85.1,84.8,85.1Z"/><path class="cls-4" d="M367.4,222.4s-.1,3.8.4,4.2,4.2.4,4.2.4-3.9.1-4.2.4-.4,4.2-.4,4.2,0-3.8-.4-4.2-4.2-.4-4.2-.4,3.8,0,4.2-.4S367.4,222.4,367.4,222.4Z"/><path class="cls-4" d="M270.4,110.2s-.1,3.7.4,4.2,4.2.4,4.2.4-3.9.1-4.2.4a34.7,34.7,0,0,0-.4,4.2s0-3.8-.4-4.2-4.2-.4-4.2-.4,3.8,0,4.2-.4S270.4,110.2,270.4,110.2Z"/><path class="cls-4" d="M1251.5,185.1s0,3.8.4,4.2,4.2.4,4.2.4-3.8.1-4.2.4a34.7,34.7,0,0,0-.4,4.2s0-3.8-.4-4.2-4.2-.4-4.2-.4,3.9,0,4.2-.4S1251.5,185.1,1251.5,185.1Z"/><path class="cls-4" d="M1368.6,346.9s-.1,5.6.7,6.4,6.3.6,6.3.6-5.8.1-6.3.6-.7,6.4-.7,6.4,0-5.8-.6-6.4-6.4-.6-6.4-.6,5.9-.1,6.4-.6S1368.6,346.9,1368.6,346.9Z"/></svg>