<?xml version="1.0" encoding="utf-8"?>
<!-- Generator: Adobe Illustrator 24.2.0, SVG Export Plug-In . SVG Version: 6.00 Build 0)  -->
<svg version="1.1" id="Layer_1" xmlns="http://www.w3.org/2000/svg" xmlns:xlink="http://www.w3.org/1999/xlink" x="0px" y="0px"
	 viewBox="0 0 600 600" enable-background="new 0 0 600 600" xml:space="preserve">
<g>
	<path fill="#FFFFFF" d="M287.13,10.12c29.19-1.1,58.57,1.81,86.83,9.32c53.75,14.01,103.13,44.08,140.46,85.19
		c22.59,24.72,40.83,53.39,53.65,84.33c15.46,37.24,22.93,77.74,21.92,118.03c-1.02,45.39-12.87,90.52-34.48,130.46
		c-33.81,63.18-91.88,112.93-159.61,136.4c-37.02,13-76.72,18.24-115.85,15.56c-40.72-2.75-80.84-14.2-116.8-33.52
		c-36.39-19.44-68.51-46.77-93.58-79.52c-37.8-49.02-59.18-110.49-59.68-172.41c-1.2-63.15,19.3-126.43,57.15-176.99
		c35.29-47.59,85.48-84.01,141.81-102.46C234.17,16.08,260.59,11.47,287.13,10.12z M276.57,19.79c-26.64,2.12-52.94,8.3-77.84,17.99
		c-47.79,18.62-90.13,50.8-121.05,91.71c-30.64,40.29-50.01,89.05-55.26,139.4c-6.21,56.88,5.35,115.59,33.05,165.69
		c22.17,40.28,54.36,75.01,92.96,100.02c32.43,21.14,69.35,35.39,107.6,41.39c46.16,7.4,94.18,2.96,138.18-12.87
		c35.37-12.72,68.08-32.73,95.56-58.36c28.03-26.06,50.65-57.92,65.95-93c19.04-43.37,26.66-91.63,22.24-138.76
		c-3.6-39.79-15.88-78.75-35.75-113.4c-22.65-39.64-55.13-73.61-93.76-97.96C397.76,29.42,336.39,14.55,276.57,19.79z"/>
</g>
<path fill="#FFFFFF" d="M300.46,46.95c2.63-0.07,5.27-0.14,7.91-0.2c0.47,13.2,0.99,26.41,1.33,39.62c-2.65,0.05-5.3,0.11-7.94,0.08
	c-0.01-0.33-0.03-0.99-0.05-1.33c-0.15-5.13-0.42-10.26-0.52-15.39c-3.85,0.11-7.69,0.23-11.53,0.3c-2.03,0-4.06-0.04-6.08-0.05
	c0.12,5.69,0.31,11.39,0.48,17.08c-2.66,0.16-5.32,0.25-7.98,0.26c-0.03-13.17-1.18-26.32-1.09-39.49c2.64-0.12,5.28-0.19,7.92-0.21
	c-0.01,5.26,0.19,10.52,0.38,15.77c5.9-0.36,11.8-0.46,17.7-0.58C300.87,57.52,300.63,52.24,300.46,46.95z"/>
<g>
	<path fill="#FFFFFF" d="M331.46,49.57c7.64-1.61,16.46,1.61,20.23,8.69c4.39,8.27,2.79,19.22-3.23,26.28
		c-5.97,6.81-16.98,7.19-24.23,2.26c-5.75-3.82-8.18-11.11-7.48-17.78C317.03,60.41,322.53,51.25,331.46,49.57z M333.28,56.31
		c-3.52,1.28-5.73,4.67-6.84,8.09c-1.65,4.91-1.98,10.69,0.88,15.22c2.99,4.69,10.62,5.14,14.04,0.71c4.07-5.15,5.02-12.5,3.12-18.7
		C342.93,57.24,337.66,54.66,333.28,56.31z"/>
</g>
<path fill="#FFFFFF" d="M239.16,54.47c2.58-0.56,5.16-1.14,7.76-1.67c2.89,12.89,6.07,25.71,8.9,38.62
	c-2.58,0.53-5.15,1.09-7.72,1.65C245.16,80.2,242.05,67.36,239.16,54.47z"/>
<path fill="#FFFFFF" d="M360.94,92.02c-7.11-11.03-0.71-28.26,12.09-31.63c7.14-1.7,14.36,1,20.26,4.91c-1.24,2-2.44,4.08-4.18,5.69
	c-3.71-2.13-7.77-4.6-12.24-3.76c-9.28,1.6-14.18,14.15-8.86,21.77c3.18,4.24,8.83,5.6,13.88,5.54c0.09,2.31,0.09,4.63,0.07,6.95
	C374.09,101.62,365.51,98.78,360.94,92.02z"/>
<g>
	<path fill="#FFFFFF" d="M209.75,63.85c2.6-0.97,5.21-1.93,7.85-2.81c8.68,10.92,17.76,21.52,26.44,32.45
		c-2.35,0.79-4.65,1.77-7.05,2.42c-2.73-1.96-4.28-5.27-6.74-7.6c-4.29,1.77-8.69,3.23-13,4.93c0.12,3.3,0.18,6.61,0.29,9.92
		c-2.55,0.96-5.11,1.89-7.6,2.99c0.25-4.84,0.01-9.69,0.03-14.54C210.04,82.36,209.85,73.1,209.75,63.85z M217,87.3
		c3.29-1.19,6.58-2.42,9.88-3.59c-3.5-4.63-7.37-8.97-10.55-13.83C216.42,75.69,217.01,81.48,217,87.3z"/>
</g>
<path fill="#FFFFFF" d="M406.3,115.24c3.28-13.55,5.27-27.44,9.02-40.86c2.09,1.4,4.23,2.75,6.41,4.03
	c-2.35,10.67-4.39,21.44-7.89,31.81c7.73-7.81,16.22-14.81,24.92-21.51c2.06,1.4,4.22,2.67,6.44,3.81
	c-10.49,9.23-21.72,17.63-32.41,26.65C410.52,118.04,408.34,116.74,406.3,115.24z"/>
<g>
	<path fill="#FFFFFF" d="M160.09,89.17c7.8-3.69,14.73-10.99,23.99-10c9.95,0.82,16.87,10.53,18.02,19.85
		c0.89,6.41-2.71,12.67-8,16.1c-4.57,2.86-9.27,5.49-13.93,8.18c-3.01-4.89-5.64-10.01-8.84-14.78c-0.99,0.57-1.98,1.13-2.98,1.68
		c-0.78-1.49-1.63-2.94-2.27-4.48c-0.1-1.32,1.6-1.78,2.3-2.65C165.52,98.5,162.94,93.76,160.09,89.17z M170.41,90.94
		c1.64,2.78,3.29,5.57,4.89,8.39c1.63-0.92,3.24-1.87,4.83-2.86c1.21,1.63,2.23,3.39,3.09,5.24c-1.71,0.86-3.34,1.86-4.89,2.97
		c1.82,2.82,3.56,5.7,5.03,8.72c5.25-2.01,11.46-5.98,10.93-12.42c-0.76-6.35-5.01-13.2-11.69-14.45
		C178.01,85.7,174.13,88.78,170.41,90.94z"/>
</g>
<path fill="#FFFFFF" d="M330.43,93.39c2.8-0.8,5.66,3.14,3.31,5.34c-1.53,2.36-5.59,1.05-5.75-1.64
	C327.64,95.39,328.96,93.98,330.43,93.39z"/>
<path fill="#FFFFFF" d="M464.19,105.73c-2.22-2.39-1.46-6.13,0.41-8.49c0.57,0.51,1.7,1.51,2.27,2.02c-1.61,3.33,1.9,6.8,5.12,4.68
	c0.61,0.39,1.82,1.18,2.43,1.57C472.17,108.98,466.57,109.11,464.19,105.73z"/>
<path fill="#FFFFFF" d="M227.46,104.41c1.93-2.34,6.06-0.25,5.57,2.64c-0.1,2.24-2.79,3.63-4.76,2.7
	C226.48,108.69,225.78,105.9,227.46,104.41z"/>
<g>
	<path fill="#FFFFFF" d="M427.46,124.41c11.17-6.22,22.25-12.6,33.37-18.91c2.11,1.84,4.23,3.68,6.34,5.52
		c-5.22,12.95-10.5,25.88-15.46,38.93c-1.93-1.64-3.99-3.14-5.68-5.03c0-3.39,3.13-6.28,3.02-9.63c-3.2-3.17-6.83-5.85-10.13-8.92
		c-2.92,1.64-5.8,3.35-8.71,5.01c-1.9-1.64-3.83-3.25-5.79-4.81C425.37,125.76,426.36,125.02,427.46,124.41z M443.94,123.48
		c2.74,2.11,5.26,4.5,7.97,6.68c2.16-5.45,4.35-10.9,6.92-16.18C454.03,117.41,448.71,120.03,443.94,123.48z"/>
</g>
<path fill="#FFFFFF" d="M121.58,126.06c1.29-8.56,8.62-14.85,16.32-17.86c0.98,2,1.95,3.99,2.94,5.98
	c-5.07,2.18-10.76,5.7-11.46,11.72c-0.69,7.87,6.2,15.05,13.67,16.37c5.07,0.93,9.36-2.77,11.71-6.88
	c-2.11-1.99-3.96-4.25-6.13-6.17c-1.85,0.4-2.97,2.71-4.65,3.71c-1.47-1.26-2.78-2.67-4.17-3.99c3.21-3.36,6.62-6.52,9.98-9.73
	c4.58,4.91,9.35,9.64,13.89,14.59c-3.57,6.9-8.84,13.76-16.72,15.8C133.53,152.97,119.42,139.6,121.58,126.06z"/>
<path fill="#FFFFFF" d="M484.5,127.7c2.15,2.17,4.34,4.42,5.76,7.15c-3.58,10.46-7.4,20.85-11.23,31.23
	c7.37-5.9,14.44-12.21,21.96-17.95c2.01,1.62,3.44,3.86,4.97,5.92c-9.83,8.65-20.54,16.36-30.44,24.97c-2-2.13-3.83-4.41-5.57-6.75
	c4.24-10.76,7.95-21.72,11.97-32.55c-7.58,6.36-15.17,12.74-22.89,18.95c-1.78-2.03-3.47-4.13-5.08-6.29
	C464.2,144.24,474.47,136.11,484.5,127.7z"/>
<path fill="#FFFFFF" d="M106.27,137.75c10.86,7.56,21.53,15.39,32.23,23.16c-1.69,2.32-3.33,4.69-5.17,6.9
	c-7.1-0.92-14.26-1.18-21.38-1.89c-4.38-0.23-8.75-1.1-13.15-0.78c8.37,5.38,16.8,10.85,24.41,17.25c-1.64,2.01-3.16,4.12-4.94,6.01
	c-10.44-7.76-20.96-15.44-31.68-22.8c1.44-2.77,3.41-5.21,5.31-7.67c11.07,1.22,22.22,1.62,33.28,2.85
	c-7.66-5.67-15.86-10.69-23.29-16.7C103.21,141.87,104.84,139.88,106.27,137.75z"/>
<g>
	<path fill="#FFFFFF" d="M75.18,177.69c3.44-0.63,6.43,1.26,8.18,4.11c9.27-2.04,19.59,2.18,24.89,10.03
		c5.44,8.24,2.08,20.3-6.1,25.44c-4.11,2.56-9.3,3.4-13.99,2.1c-6.96-1.66-13.81-5.92-16.72-12.7c-3.77-8.21,0.31-18.57,7.86-23.09
		c-1.09-1.57-2.94-1.62-4.68-1.7C74.81,180.49,75,179.09,75.18,177.69z M84.56,189.73c-5.84,0.56-9.51,8.02-6.32,12.98
		c3.12,5.1,9.02,8.03,14.82,8.82c4.06,0.6,8.53-1.46,10.07-5.4c1.72-3.43,0.48-7.58-2.16-10.16
		C96.71,191.76,90.62,188.99,84.56,189.73z"/>
</g>
<path fill="#FFFFFF" d="M485.86,196.16c12.01-5.43,24.04-10.8,36.02-16.3c1.05,2.36,2.27,4.66,3.19,7.08
	c-4.32,2.95-10.06,3.88-14.06,7.06c2.21,5.33,4.73,10.52,7.09,15.79c4.7-2.29,9.55-4.28,14.24-6.6c1.16,2.38,2.28,4.79,3.38,7.21
	c-11.93,5.63-24.08,10.78-36.01,16.41c-1.13-2.37-2.23-4.75-3.37-7.11c4.99-2.77,10.49-4.51,15.46-7.34
	c-2.54-5.17-4.96-10.41-7.08-15.76c-5.37,1.86-10.37,4.65-15.66,6.75C487.95,200.97,486.88,198.57,485.86,196.16z"/>
<path fill="#FFFFFF" d="M64.8,189.66c2.21-0.62,4.53-0.61,6.79-0.87c-0.61,1.33-1.22,2.66-1.82,4c-2.57,0.8-5.14,1.61-7.74,2.3
	C62.9,193.25,63.68,191.36,64.8,189.66z"/>
<path fill="#FFFFFF" d="M56.42,217.22c1.52-0.1,3.07-0.46,4.59-0.14c2.84,0.79,4.16,4.08,7.11,4.65c6.12,1.62,12.31,3.02,18.36,4.9
	c5.14,1.64,9.83,5.81,10.33,11.44c0.39,5.93-1.72,12.49-6.72,16.06c-3.81,2.58-8.76,2.87-13.13,1.75
	c-7.98-1.96-15.9-4.15-23.84-6.22c0.77-2.55,1.49-5.11,2.13-7.69c7.09,1.95,14.22,3.75,21.32,5.67c2.79,0.69,5.8,1.56,8.65,0.63
	c3.75-1.12,5.62-5.65,4.57-9.26c-1.25-3.09-4.55-4.49-7.54-5.33c-7.72-2.06-15.46-4.04-23.19-6.09c0.55-2.11,1.03-4.24,1.43-6.38
	c-1.38,0.12-2.75,0.26-4.12,0.41C56.39,220.15,56.4,218.68,56.42,217.22z"/>
<path fill="#FFFFFF" d="M501.39,233.17c12.67-3.43,25.17-7.52,37.75-11.3c0.73,2.52,1.49,5.03,2.38,7.51
	c-12.62,4.06-25.34,7.8-38.05,11.58C502.69,238.38,501.94,235.8,501.39,233.17z"/>
<path fill="#FFFFFF" d="M505.83,247.86c12.86-2.8,25.86-5.07,38.77-7.69c1.15,7.66,2.83,15.24,4.35,22.84
	c-2.22,0.51-4.46,0.91-6.71,1.17c-0.81-5.01-1.82-9.98-2.88-14.94c-3.11,0.67-6.24,1.25-9.36,1.84c0.95,4.56,1.77,9.16,2.82,13.71
	c-2.17,0.46-4.34,0.9-6.51,1.28c-0.82-4.53-1.76-9.04-2.43-13.59c-3.43,0.4-6.79,1.15-10.18,1.74c0.81,5.11,1.96,10.16,2.78,15.27
	c-2.16,0.38-4.33,0.69-6.5,0.98C508.69,262.92,506.75,255.45,505.83,247.86z"/>
<path fill="#FFFFFF" d="M547.02,243.74c2.31,1.07,4.57,2.27,6.8,3.51c0.4,1.75,0.74,3.52,1.07,5.3c-1.59,1.65-2.98,3.48-4.47,5.21
	c-1.61-0.57-0.83-3.25-1.43-4.59c0.97-0.94,1.94-1.88,2.92-2.82c-1.24-0.53-2.47-1.06-3.7-1.59
	C547.8,247.09,547.39,245.41,547.02,243.74z"/>
<path fill="#FFFFFF" d="M552.86,256.61c2.12,0.63,4.33,1.14,6.3,2.23c1.02,1.76,0.84,3.97,1.34,5.92
	C557.25,262.78,552.31,261.42,552.86,256.61z"/>
<g>
	<path fill="#FFFFFF" d="M71.97,271.41c5.34-4.54,12.66-5.42,18.93-8.2c-0.32,2.94-0.67,5.88-0.97,8.82
		c-4.8,1.85-9.84,3.07-14.51,5.21c-2.49,1.17-2.26,4.25-2.47,6.54c5.32,0.37,10.61,1.05,15.92,1.38c-0.26,2.62-0.54,5.25-0.85,7.87
		c-13.13-1-26.21-2.53-39.33-3.48c0.38-4.88,0.89-9.75,1.35-14.62c0.41-5.22,4.55-10.26,10.03-10.41
		C65.14,263.87,69.91,266.83,71.97,271.41z M57.51,274.4c-1.36,2.32-1.17,5.13-1.57,7.72c3.55,0.34,7.09,0.87,10.67,0.84
		c-0.05-2.64,0.68-5.51-0.49-7.99C64.68,271.7,59.32,271.2,57.51,274.4z"/>
</g>
<path fill="#FFFFFF" d="M510.81,275.02c13.1-0.19,26.19-1.13,39.28-1.15c0.94,2.8,0.36,5.93,0.62,8.86
	c-7.71,4.97-15.36,10.02-23.01,15.07c-1.66,1.09-3.31,2.18-4.93,3.31c7.19-0.48,14.39-1.11,21.61-1.14c2.28,0.01,4.57,0,6.86-0.05
	c0.11,2.59,0.22,5.18,0.35,7.77c-13.2,0.48-26.41,0.83-39.61,1.35c-0.09-2.9-0.2-5.8-0.08-8.7c9.87-6.16,19.65-12.51,29.23-19.1
	c-9.94,1.29-20,1.31-30.01,1.69C511.05,280.29,510.93,277.65,510.81,275.02z"/>
<path fill="#FFFFFF" d="M48.55,298.06c2.16-0.02,4.31-0.06,6.47-0.12c0.16,3.5,0.4,6.98,0.63,10.48
	c10.97-0.52,21.93-1.14,32.89-1.69c0.15,2.62,0.3,5.25,0.48,7.87c-10.96,0.57-21.93,1.2-32.9,1.72c0.11,3.56,0.32,7.12,0.49,10.68
	c-2.19,0.07-4.38,0.15-6.56,0.23C49.6,317.51,48.82,307.8,48.55,298.06z"/>
<path fill="#FFFFFF" d="M256.88,322.07c3.74-1.61,6.36-4.69,9.13-7.5c0.43,0.12,1.28,0.37,1.71,0.5c0.14,9.69-0.09,19.38,0.11,29.08
	c-1.26,0.04-2.51,0.08-3.76,0.12c0.09-7.58,0.06-15.17,0.02-22.75c-2.3,1.55-4.64,3.11-7.28,4.05
	C256.83,324.69,256.86,322.94,256.88,322.07z"/>
<g>
	<path fill="#FFFFFF" d="M281.74,315.78c4.8-2.73,11.73-0.65,13.75,4.65c1.88,5.71,1.65,12.1-0.14,17.81
		c-1.52,4.92-7.39,7.96-12.25,6.11c-3.15-0.87-5.09-4-5.24-7.14c1.19-0.02,2.38-0.04,3.57-0.04c0.36,3.1,3.48,5.79,6.62,4.37
		c4.17-1.61,4.88-6.7,5.05-10.59c-2.63,2.49-6.38,4.39-10.01,2.89C275.8,331.2,275.39,319.7,281.74,315.78z M284.39,318.29
		c-5.25,2.96-4.08,12.82,2.58,12.79c6.74-0.1,7.65-10.69,1.98-13.15C287.46,317.52,285.76,317.51,284.39,318.29z"/>
</g>
<g>
	<path fill="#FFFFFF" d="M304.91,315.84c5.03-3.01,12.35-0.48,14.08,5.25c1.66,5.81,1.49,12.35-0.76,17.99c-2,5.2-9,7.49-13.67,4.43
		c-2.24-1.28-3.09-3.85-3.61-6.21c1.21-0.08,2.43-0.16,3.65-0.23c0.38,2.95,3.24,5.69,6.34,4.59c4.39-1.36,5.22-6.62,5.46-10.56
		c-2.82,2.38-6.68,4.31-10.36,2.64C299.04,330.89,298.65,319.74,304.91,315.84z M307.36,318.5c-4.48,2.88-4.03,11.2,1.61,12.42
		c4.96,1.29,8.23-4.63,6.61-8.86C314.96,318.44,310.42,316.31,307.36,318.5z"/>
</g>
<path fill="#FFFFFF" d="M323.75,314.9c6.56,0.16,13.12,0.17,19.68-0.01c-0.36,1.4-0.25,3.02-1.27,4.18
	c-5.7,7.17-9.52,16-10.25,25.18c-1.31-0.01-2.61-0.01-3.91-0.02c0.6-9.4,4.7-18.08,10.04-25.68c-4.68,0.14-9.36,0.15-14.04,0.04
	C323.94,317.67,323.81,315.82,323.75,314.9z"/>
<path fill="#FFFFFF" d="M227.26,460.07c1.57-0.09,3.15-0.17,4.74-0.24c2,5.69,3.88,11.43,5.41,17.27c1.91-5.72,3.47-11.56,5.63-17.2
	c1.56,0.04,3.13,0.08,4.69,0.14c-2.93,7.28-5.5,14.71-7.95,22.16c-1.52,0.08-3.04,0.09-4.55,0.04
	C232.72,474.8,230.14,467.37,227.26,460.07z"/>
<g>
	<path fill="#FFFFFF" d="M253.19,459.98c1.62-0.06,3.25-0.11,4.89-0.16c2.66,7.44,5.27,14.89,7.81,22.37
		c-1.49-0.02-3.24,0.69-4.54-0.33c-0.71-1.52-1.16-3.14-1.66-4.73c-2.54-0.1-5.1-0.3-7.63,0.03c-1.31,1.31-1.55,3.32-2.23,4.99
		c-1.41,0.1-2.81,0.2-4.22,0.31C247.55,474.78,250.92,467.56,253.19,459.98z M255.46,464.88c-0.91,2.97-1.78,5.95-2.55,8.97
		c1.9-0.05,3.79-0.16,5.68-0.38C257.66,470.56,256.7,467.66,255.46,464.88z"/>
</g>
<path fill="#FFFFFF" d="M268.97,459.87c1.78,0.19,3.97-0.55,5.49,0.61c3.38,4.84,5.7,10.43,9.57,14.92
	c-0.08-5.17-0.42-10.34-0.16-15.51c1.47,0,2.93,0,4.4,0.01c0.17,7.47,0.12,14.95,0.03,22.42c-1.65-0.1-3.49,0.46-5-0.43
	c-3.56-5.18-6.25-10.93-9.99-15.99c-0.05,5.47,0.26,10.94-0.02,16.4c-1.43,0-2.86,0.01-4.29,0.02
	C268.84,474.84,268.9,467.35,268.97,459.87z"/>
<path fill="#FFFFFF" d="M301.22,459.97c1.54-0.02,3.09-0.04,4.64-0.05c-0.1,2.95-0.07,5.91,0.12,8.86c3.28,0.03,6.55,0.05,9.82,0.04
	c0.09-2.95,0.15-5.91,0.17-8.86c1.43-0.03,2.87-0.06,4.32-0.09c0.21,7.48,0.16,14.98-0.01,22.46c-1.47-0.01-2.94-0.02-4.4-0.02
	c0.02-3.17,0.02-6.34,0.06-9.5c-3.35-0.16-6.7-0.16-10.04-0.02c-0.1,3.14-0.14,6.29-0.07,9.44c-1.55,0.07-3.09,0.06-4.62-0.04
	C301.36,474.79,301.31,467.38,301.22,459.97z"/>
<path fill="#FFFFFF" d="M325.07,459.86c1.57,0.04,3.14,0.1,4.72,0.16c-0.16,7.39-0.13,14.8,0,22.2c-1.58,0.07-3.16,0.11-4.73,0.13
	C325.1,474.85,325.07,467.35,325.07,459.86z"/>
<path fill="#FFFFFF" d="M334.25,460.03c4.49-0.21,8.99-0.37,13.46,0.1c-0.02,1.17-0.03,2.35-0.04,3.54
	c-2.96-0.03-5.91-0.01-8.85,0.04c-0.02,1.77-0.02,3.54-0.01,5.32c2.69,0.05,5.38,0.06,8.07,0.03c-0.06,1.22-0.11,2.46-0.16,3.69
	c-2.65-0.06-5.29-0.05-7.93,0.03c-0.04,1.97,0.03,3.95,0.25,5.93c2.8-0.07,5.61-0.05,8.41,0.04c-0.03,0.89-0.08,2.68-0.11,3.57
	c-4.23-0.3-9.09,0.97-12.92-0.57C334.1,474.52,334.47,467.27,334.25,460.03z"/>
<path fill="#FFFFFF" d="M350.94,459.84c1.82,0.18,3.97-0.46,5.57,0.66c3.38,4.84,5.78,10.34,9.53,14.92
	c0.07-5.17-0.43-10.34-0.18-15.51c1.45-0.01,2.91-0.03,4.38-0.03c0.18,7.49,0.21,15,0.01,22.5c-1.79-0.26-4.38,0.83-5.4-1.24
	c-3.34-4.99-5.89-10.49-9.54-15.27c0,5.5,0.28,10.99,0.08,16.49c-1.49-0.02-2.97-0.04-4.45-0.06
	C350.93,474.81,350.9,467.33,350.94,459.84z"/>
<path fill="#FFFFFF" d="M215.13,493.15c1.54,0.05,3.09,0.1,4.64,0.16c0.08,5.24-0.48,10.52,0.19,15.73
	c0.08,4.01,6.87,4.64,7.76,0.79c1.12-5.44,0.2-11.07,0.49-16.58c1.51-0.02,3.02-0.04,4.53-0.05c-0.21,5.69,0.4,11.43-0.34,17.09
	c-0.91,5.32-7.54,7.15-12.02,5.34c-3.14-1.06-5.07-4.34-5.2-7.54C214.97,503.11,215.13,498.13,215.13,493.15z"/>
<path fill="#FFFFFF" d="M237.27,493.19c1.75,0.08,3.58-0.22,5.27,0.33c3.54,4.74,5.72,10.4,9.61,14.88
	c0.3-5.04-0.01-10.09,0.08-15.14c1.51-0.01,3.02-0.02,4.54-0.02c-0.01,7.53,0.07,15.06-0.01,22.59c-1.8-0.32-4.34,0.75-5.46-1.13
	c-3.32-4.89-5.86-10.27-9.4-15c-0.29,5.37,0.19,10.74-0.06,16.11c-1.52-0.02-3.04-0.04-4.55-0.05
	C237.34,508.24,237.31,500.71,237.27,493.19z"/>
<path fill="#FFFFFF" d="M261.29,493.26c1.49-0.01,2.98-0.02,4.48-0.01c0.15,7.51,0.15,15.03-0.01,22.55
	c-1.48-0.02-2.95-0.02-4.42-0.03C261.36,508.27,261.4,500.76,261.29,493.26z"/>
<path fill="#FFFFFF" d="M268.62,493.08c1.4,0.06,2.81,0.13,4.22,0.21c2.3,5.54,3.68,11.4,5.79,17.01
	c1.53-5.76,3.43-11.41,5.54-16.97c1.39-0.1,2.77-0.19,4.16-0.27c-1.87,7.74-5.27,15.06-7.65,22.68c-1.47-0.01-2.94-0.02-4.4-0.01
	C273.84,508.14,270.61,500.79,268.62,493.08z"/>
<path fill="#FFFFFF" d="M291.04,493.21c4.35,0.05,8.7,0.07,13.06-0.04c0.02,1.27,0.04,2.55,0.06,3.84c-2.83,0-5.66-0.01-8.48-0.05
	c-0.04,1.77-0.06,3.54-0.07,5.32c2.67,0.07,5.35,0.1,8.03,0.11c0.02,1.16,0.06,2.32,0.09,3.5c-2.62,0.34-5.26,0.43-7.89,0.27
	c-0.31,1.94-0.33,3.9-0.22,5.86c2.84,0.03,5.69,0.06,8.55,0.1c-0.04,1.2-0.07,2.41-0.1,3.63c-4.34,0.02-8.68,0.01-13.02,0.06
	C290.75,508.28,290.74,500.73,291.04,493.21z"/>
<g>
	<path fill="#FFFFFF" d="M307.82,493.21c4.32,0.5,9.63-1.32,13.12,2.05c2.73,3.12,1.53,7.75-1.34,10.32
		c1.9,3.35,3.67,6.77,5.22,10.3c-1.71-0.13-3.48,0.09-5.12-0.44c-2.4-3.07-2.39-9.57-7.68-8.69c0.16,3.02,0.16,6.05,0.04,9.07
		c-1.42-0.01-2.83-0.02-4.24-0.02C307.51,508.27,307.58,500.73,307.82,493.21z M312.16,496.96c-0.01,2.01-0.01,4.02-0.01,6.04
		c2.22-0.21,6.05,0.31,5.87-3.02C318.28,496.72,314.32,497.11,312.16,496.96z"/>
</g>
<path fill="#FFFFFF" d="M329.42,504.57c-4.38-3.3-2.26-11.72,3.56-11.69c1.96,0.09,6.93-0.53,5.59,2.82
	c-0.85,3.2-5.52-0.52-6.8,2.37c-1.08,3.15,2.86,4.07,4.74,5.53c4.57,2.23,4.59,9.76,0.02,11.98c-3.08,1.34-6.51,0.49-9.57-0.48
	c0.11-1.33,0.23-2.67,0.34-3.99c2.57,0.84,5.24,1.44,7.96,1C336.68,507.84,332.02,506.6,329.42,504.57z"/>
<path fill="#FFFFFF" d="M343.31,493.34c1.54-0.07,3.09-0.14,4.64-0.2c0.22,7.56,0.23,15.13,0.03,22.69
	c-1.55-0.04-3.09-0.07-4.64-0.1C343.45,508.27,343.49,500.8,343.31,493.34z"/>
<path fill="#FFFFFF" d="M350.78,493.2c5.42,0.08,10.85,0.1,16.27-0.04c0.01,1.26,0.02,2.53,0.04,3.81
	c-1.98,0.02-3.94,0.05-5.91,0.08c-0.17,6.25,0.16,12.5-0.26,18.74c-1.37,0.01-2.74,0.02-4.1,0.05c-0.42-6.19-0.1-12.39-0.13-18.58
	c-2.02-0.15-4.03-0.27-6.04-0.38C350.69,495.65,350.73,494.42,350.78,493.2z"/>
<path fill="#FFFFFF" d="M367.94,493.18c1.55,0.02,3.11,0.06,4.68,0.1c1.56,3.33,3.03,6.7,4.62,10.03c2.19-3.05,3.32-6.67,5.01-9.99
	c1.58-0.03,3.16-0.06,4.75-0.08c-1.96,4.23-4.21,8.33-6.22,12.54c-1.58,3.08-0.89,6.67-1.04,10c-1.54,0-3.08,0-4.62,0.02
	c-0.16-3.55,0.73-7.46-1.25-10.65C371.78,501.22,369.6,497.32,367.94,493.18z"/>
<g>
	<g>
		<path fill="#244186" d="M268.59,1.87c16.05-2.26,32.32,0.26,48.41-1.43c3.73-0.26,7.37,0.84,11.07,1.11
			c61.42,5.38,120.78,30.79,167.41,71.07c29.51,25.35,53.99,56.49,71.7,91.12c17.15,33.65,27.94,70.56,31.27,108.19
			c0.48,5.36,2.04,10.71,0.73,16.08c-0.31,9.66-0.36,19.36,0.16,29.01c-2.26,40.64-12.86,80.83-31.14,117.22
			c-17.75,35.46-42.63,67.32-72.71,93.16c-46.36,40.06-105.31,65.39-166.35,70.99c-5.4,0.38-10.79,1.87-16.19,0.74
			c-10.64-0.27-21.31-0.2-31.96,0.1c-45.36-2.75-90.05-16.07-129.5-38.64C91.44,526.46,43.83,470.98,19.53,406.3
			C8.7,378.06,2.65,348.13,0.56,318.01c0.77-7.97,0.32-15.98,0.44-23.97c0.24-6.04-1.17-12.08,0.04-18.09
			c2.14-24.44,6.85-48.7,14.8-71.93c13.67-40.7,36.35-78.31,65.79-109.54C130.22,42.6,197.78,8.81,268.59,1.87z M287.13,10.12
			c-26.54,1.35-52.96,5.96-78.18,14.39C152.62,42.96,102.43,79.38,67.14,126.97C29.29,177.53,8.79,240.81,9.99,303.96
			c0.5,61.92,21.88,123.39,59.68,172.41c25.07,32.75,57.19,60.08,93.58,79.52c35.96,19.32,76.08,30.77,116.8,33.52
			c39.13,2.68,78.83-2.56,115.85-15.56c67.73-23.47,125.8-73.22,159.61-136.4c21.61-39.94,33.46-85.07,34.48-130.46
			c1.01-40.29-6.46-80.79-21.92-118.03c-12.82-30.94-31.06-59.61-53.65-84.33c-37.33-41.11-86.71-71.18-140.46-85.19
			C345.7,11.93,316.32,9.02,287.13,10.12z"/>
	</g>
	<g>
		<path fill="#244186" d="M276.57,19.79c59.82-5.24,121.19,9.63,171.88,41.85c38.63,24.35,71.11,58.32,93.76,97.96
			c19.87,34.65,32.15,73.61,35.75,113.4c4.42,47.13-3.2,95.39-22.24,138.76c-15.3,35.08-37.92,66.94-65.95,93
			c-27.48,25.63-60.19,45.64-95.56,58.36c-44,15.83-92.02,20.27-138.18,12.87c-38.25-6-75.17-20.25-107.6-41.39
			c-38.6-25.01-70.79-59.74-92.96-100.02c-27.7-50.1-39.26-108.81-33.05-165.69c5.25-50.35,24.62-99.11,55.26-139.4
			c30.92-40.91,73.26-73.09,121.05-91.71C223.63,28.09,249.93,21.91,276.57,19.79z M300.46,46.95c0.17,5.29,0.41,10.57,0.53,15.86
			c-5.9,0.12-11.8,0.22-17.7,0.58c-0.19-5.25-0.39-10.51-0.38-15.77c-2.64,0.02-5.28,0.09-7.92,0.21
			c-0.09,13.17,1.06,26.32,1.09,39.49c2.66-0.01,5.32-0.1,7.98-0.26c-0.17-5.69-0.36-11.39-0.48-17.08
			c2.02,0.01,4.05,0.05,6.08,0.05c3.04,1.89,6.87,0.95,10.27,1.3c0.4,4.37-0.27,8.83,0.6,13.14l1.18,0.65
			c0.02,0.34,0.04,1,0.05,1.33c2.64,0.03,5.29-0.03,7.94-0.08c-0.34-13.21-0.86-26.42-1.33-39.62
			C305.73,46.81,303.09,46.88,300.46,46.95z M331.46,49.57c-8.93,1.68-14.43,10.84-14.71,19.45c-0.7,6.67,1.73,13.96,7.48,17.78
			c7.25,4.93,18.26,4.55,24.23-2.26c6.02-7.06,7.62-18.01,3.23-26.28C347.92,51.18,339.1,47.96,331.46,49.57z M239.16,54.47
			c2.89,12.89,6,25.73,8.94,38.6c2.57-0.56,5.14-1.12,7.72-1.65c-2.83-12.91-6.01-25.73-8.9-38.62
			C244.32,53.33,241.74,53.91,239.16,54.47z M360.94,92.02c4.57,6.76,13.15,9.6,21.02,9.47c0.02-2.32,0.02-4.64-0.07-6.95
			c-5.05,0.06-10.7-1.3-13.88-5.54c-5.32-7.62-0.42-20.17,8.86-21.77c4.47-0.84,8.53,1.63,12.24,3.76c1.74-1.61,2.94-3.69,4.18-5.69
			c-5.9-3.91-13.12-6.61-20.26-4.91C360.23,63.76,353.83,80.99,360.94,92.02z M209.75,63.85c0.1,9.25,0.29,18.51,0.22,27.76
			c-0.24,0.37-0.7,1.09-0.93,1.46c0.01,4.28-1.19,9.19,0.9,13.08c2.49-1.1,5.05-2.03,7.6-2.99c-0.11-3.31-0.17-6.62-0.29-9.92
			c4.31-1.7,8.71-3.16,13-4.93c2.46,2.33,4.01,5.64,6.74,7.6c2.4-0.65,4.7-1.63,7.05-2.42c-8.68-10.93-17.76-21.53-26.44-32.45
			C214.96,61.92,212.35,62.88,209.75,63.85z M406.3,115.24c2.04,1.5,4.22,2.8,6.49,3.93c10.69-9.02,21.92-17.42,32.41-26.65
			c-2.22-1.14-4.38-2.41-6.44-3.81c-8.7,6.7-17.19,13.7-24.92,21.51c3.5-10.37,5.54-21.14,7.89-31.81
			c-2.18-1.28-4.32-2.63-6.41-4.03C411.57,87.8,409.58,101.69,406.3,115.24z M160.09,89.17c2.85,4.59,5.43,9.33,8.29,13.9
			c-0.7,0.87-2.4,1.33-2.3,2.65c0.64,1.54,1.49,2.99,2.27,4.48c1-0.55,1.99-1.11,2.98-1.68c3.2,4.77,5.83,9.89,8.84,14.78
			c4.66-2.69,9.36-5.32,13.93-8.18c5.29-3.43,8.89-9.69,8-16.1c-1.15-9.32-8.07-19.03-18.02-19.85
			C174.82,78.18,167.89,85.48,160.09,89.17z M330.43,93.39c-1.47,0.59-2.79,2-2.44,3.7c0.16,2.69,4.22,4,5.75,1.64
			C336.09,96.53,333.23,92.59,330.43,93.39z M464.19,105.73c2.38,3.38,7.98,3.25,10.23-0.22c-0.61-0.39-1.82-1.18-2.43-1.57
			c-3.22,2.12-6.73-1.35-5.12-4.68c-0.57-0.51-1.7-1.51-2.27-2.02C462.73,99.6,461.97,103.34,464.19,105.73z M227.46,104.41
			c-1.68,1.49-0.98,4.28,0.81,5.34c1.97,0.93,4.66-0.46,4.76-2.7C233.52,104.16,229.39,102.07,227.46,104.41z M427.46,124.41
			c-1.1,0.61-2.09,1.35-3.04,2.16c1.96,1.56,3.89,3.17,5.79,4.81c2.91-1.66,5.79-3.37,8.71-5.01c3.3,3.07,6.93,5.75,10.13,8.92
			c0.11,3.35-3.02,6.24-3.02,9.63c1.69,1.89,3.75,3.39,5.68,5.03c4.96-13.05,10.24-25.98,15.46-38.93
			c-2.11-1.84-4.23-3.68-6.34-5.52C449.71,111.81,438.63,118.19,427.46,124.41z M121.58,126.06c-2.16,13.54,11.95,26.91,25.38,23.54
			c7.88-2.04,13.15-8.9,16.72-15.8c-4.54-4.95-9.31-9.68-13.89-14.59c-3.36,3.21-6.77,6.37-9.98,9.73c1.39,1.32,2.7,2.73,4.17,3.99
			c1.68-1,2.8-3.31,4.65-3.71c2.17,1.92,4.02,4.18,6.13,6.17c-2.35,4.11-6.64,7.81-11.71,6.88c-7.47-1.32-14.36-8.5-13.67-16.37
			c0.7-6.02,6.39-9.54,11.46-11.72c-0.99-1.99-1.96-3.98-2.94-5.98C130.2,111.21,122.87,117.5,121.58,126.06z M292.66,129.59
			c-3.72,4.01-3.06,10.34,0.31,14.34c-15.56-0.19-31.12-0.05-46.67-0.08c-0.1-1.55-0.19-3.1-0.31-4.65
			c-4.55,0.19-9.11,0.11-13.66,0.08c0.31,8.05-1.71,17.49-9.18,21.87c-4.84,3.08-10.68,2.3-16.1,2.27c1.02,5.42,4.31,11,9.96,12.47
			c4.86,0.48,9.77-0.07,14.65,0.28c-0.15,3.56-0.15,7.12,0,10.67c-7.11,0.48-14.3-0.34-21.36,0.39c-5.93,4.22-12.8,7.78-20.25,7.82
			c-7.65,0.41-15.18-2.81-20.85-7.83c-0.38,9.16,1.9,19.24,8.83,25.71c3.54,3.1,8.2,5.01,12.94,5.04
			c12.67,0.02,25.34-0.05,38.02,0.01c0.04,21.94,0.13,43.89-0.02,65.83c-10.33,0.36-20.68,0.08-31.02,0.14
			c-1.29,0.24-3.37-0.41-3.89,1.26c0.45,6.92,0.18,13.88,0.17,20.82c4.52,0.26,9.04,0.1,13.56,0.14c0.05,1.76,0.1,3.52,0.16,5.29
			c-0.46,11.28-0.14,22.62-0.14,33.93c-0.46,5.52-0.06,11.07-0.19,16.61c0.15,12-0.3,24.01,0,36.01
			c-35.93-10.16-74.23-12.31-110.94-5.18c0.22,3.8,0.79,7.58,1.51,11.32c5.31,27.06,16.3,53.34,33.74,74.85
			c13.9,17.28,32.16,30.97,52.63,39.47c8.75,3.77,17.99,6.15,27.05,9.02c12.16,3.78,24.3,7.66,36.35,11.78
			c17.59,6.04,35.34,12.13,51.92,20.5c29.16-11.35,58.23-23.11,88.15-32.33c29.2-6.19,56.32-21.83,76.3-44.01
			c22.73-25.04,35.35-58.08,38.97-91.42c-36.89-5.53-74.88-3.27-111.05,5.72c-0.22-12.52,0.1-25.05-0.15-37.56
			c0.01-9.93,0.36-19.9-0.14-29.81c0.29-5.98,0.46-12.01,0-17.98c0.15-2.07,0.22-4.15,0.27-6.22c4.53-0.01,9.07,0.08,13.61-0.08
			c-0.04-6.46-0.1-12.93,0.07-19.4c-12.1-0.13-24.21-0.23-36.31,0.08c-0.07-22.93-0.03-45.87,0.02-68.81
			c12.12,0.06,24.24-0.08,36.37,0.1c6.98,0.02,14-3.13,18.29-8.7c4.88-6.1,6.23-14.09,6.72-21.67c-4.22,3.63-9.3,6.68-15.04,6.65
			c-7.43,0.42-14.03-3.39-20.23-6.91c-7.58-0.26-15.17,0.02-22.76-0.11c-0.01-3.86-0.01-7.73-0.02-11.59
			c3.89-0.2,7.8,0.26,11.66-0.18c5.19-1.06,8.52-5.6,11.04-9.88c-5.74-0.62-11.74-2.14-15.91-6.4c-5.46-5.3-6.52-13.4-6.12-20.64
			c-4.54,0.04-9.08,0-13.61,0.05c0.01,1.75,0.02,3.49,0.03,5.24c-17.66-0.11-35.32-0.14-52.98,0.02c2.74-3.48,3.95-8.52,1.48-12.48
			C305.61,125.79,296.75,124.61,292.66,129.59z M484.5,127.7c-10.03,8.41-20.3,16.54-30.55,24.68c1.61,2.16,3.3,4.26,5.08,6.29
			c7.72-6.21,15.31-12.59,22.89-18.95c-4.02,10.83-7.73,21.79-11.97,32.55c1.74,2.34,3.57,4.62,5.57,6.75
			c9.9-8.61,20.61-16.32,30.44-24.97c-1.53-2.06-2.96-4.3-4.97-5.92c-7.52,5.74-14.59,12.05-21.96,17.95
			c3.83-10.38,7.65-20.77,11.23-31.23C488.84,132.12,486.65,129.87,484.5,127.7z M106.27,137.75c-1.43,2.13-3.06,4.12-4.38,6.33
			c7.43,6.01,15.63,11.03,23.29,16.7c-11.06-1.23-22.21-1.63-33.28-2.85c-1.9,2.46-3.87,4.9-5.31,7.67
			c10.72,7.36,21.24,15.04,31.68,22.8c1.78-1.89,3.3-4,4.94-6.01c-7.61-6.4-16.04-11.87-24.41-17.25c4.4-0.32,8.77,0.55,13.15,0.78
			c7.12,0.71,14.28,0.97,21.38,1.89c1.84-2.21,3.48-4.58,5.17-6.9C127.8,153.14,117.13,145.31,106.27,137.75z M75.18,177.69
			c-0.18,1.4-0.37,2.8-0.56,4.19c1.74,0.08,3.59,0.13,4.68,1.7c-7.55,4.52-11.63,14.88-7.86,23.09c2.91,6.78,9.76,11.04,16.72,12.7
			c4.69,1.3,9.88,0.46,13.99-2.1c8.18-5.14,11.54-17.2,6.1-25.44c-5.3-7.85-15.62-12.07-24.89-10.03
			C81.61,178.95,78.62,177.06,75.18,177.69z M485.86,196.16c1.02,2.41,2.09,4.81,3.2,7.19c5.29-2.1,10.29-4.89,15.66-6.75
			c2.12,5.35,4.54,10.59,7.08,15.76c-4.97,2.83-10.47,4.57-15.46,7.34c1.14,2.36,2.24,4.74,3.37,7.11
			c11.93-5.63,24.08-10.78,36.01-16.41c-1.1-2.42-2.22-4.83-3.38-7.21c-4.69,2.32-9.54,4.31-14.24,6.6
			c-2.36-5.27-4.88-10.46-7.09-15.79c4-3.18,9.74-4.11,14.06-7.06c-0.92-2.42-2.14-4.72-3.19-7.08
			C509.9,185.36,497.87,190.73,485.86,196.16z M64.8,189.66c-1.12,1.7-1.9,3.59-2.77,5.43c2.6-0.69,5.17-1.5,7.74-2.3
			c0.6-1.34,1.21-2.67,1.82-4C69.33,189.05,67.01,189.04,64.8,189.66z M56.42,217.22c-0.02,1.46-0.03,2.93-0.05,4.4
			c1.37-0.15,2.74-0.29,4.12-0.41c-0.4,2.14-0.88,4.27-1.43,6.38c7.73,2.05,15.47,4.03,23.19,6.09c2.99,0.84,6.29,2.24,7.54,5.33
			c1.05,3.61-0.82,8.14-4.57,9.26c-2.85,0.93-5.86,0.06-8.65-0.63c-7.1-1.92-14.23-3.72-21.32-5.67c-0.64,2.58-1.36,5.14-2.13,7.69
			c7.94,2.07,15.86,4.26,23.84,6.22c4.37,1.12,9.32,0.83,13.13-1.75c5-3.57,7.11-10.13,6.72-16.06c-0.5-5.63-5.19-9.8-10.33-11.44
			c-6.05-1.88-12.24-3.28-18.36-4.9c-2.95-0.57-4.27-3.86-7.11-4.65C59.49,216.76,57.94,217.12,56.42,217.22z M501.39,233.17
			c0.55,2.63,1.3,5.21,2.08,7.79c12.71-3.78,25.43-7.52,38.05-11.58c-0.89-2.48-1.65-4.99-2.38-7.51
			C526.56,225.65,514.06,229.74,501.39,233.17z M505.83,247.86c0.92,7.59,2.86,15.06,4.15,22.61c2.17-0.29,4.34-0.6,6.5-0.98
			c-0.82-5.11-1.97-10.16-2.78-15.27c3.39-0.59,6.75-1.34,10.18-1.74c0.67,4.55,1.61,9.06,2.43,13.59c2.17-0.38,4.34-0.82,6.51-1.28
			c-1.05-4.55-1.87-9.15-2.82-13.71c3.12-0.59,6.25-1.17,9.36-1.84c1.06,4.96,2.07,9.93,2.88,14.94c2.25-0.26,4.49-0.66,6.71-1.17
			c-1.52-7.6-3.2-15.18-4.35-22.84C531.69,242.79,518.69,245.06,505.83,247.86z M547.02,243.74c0.37,1.67,0.78,3.35,1.19,5.02
			c1.23,0.53,2.46,1.06,3.7,1.59c-0.98,0.94-1.95,1.88-2.92,2.82c0.6,1.34-0.18,4.02,1.43,4.59c1.49-1.73,2.88-3.56,4.47-5.21
			c-0.33-1.78-0.67-3.55-1.07-5.3C551.59,246.01,549.33,244.81,547.02,243.74z M552.86,256.61c-0.55,4.81,4.39,6.17,7.64,8.15
			c-0.5-1.95-0.32-4.16-1.34-5.92C557.19,257.75,554.98,257.24,552.86,256.61z M71.97,271.41c-2.06-4.58-6.83-7.54-11.9-6.89
			c-5.48,0.15-9.62,5.19-10.03,10.41c-0.46,4.87-0.97,9.74-1.35,14.62c13.12,0.95,26.2,2.48,39.33,3.48
			c0.31-2.62,0.59-5.25,0.85-7.87c-5.31-0.33-10.6-1.01-15.92-1.38c0.21-2.29-0.02-5.37,2.47-6.54c4.67-2.14,9.71-3.36,14.51-5.21
			c0.3-2.94,0.65-5.88,0.97-8.82C84.63,265.99,77.31,266.87,71.97,271.41z M510.81,275.02c0.12,2.63,0.24,5.27,0.31,7.91
			c10.01-0.38,20.07-0.4,30.01-1.69c-9.58,6.59-19.36,12.94-29.23,19.1c-0.12,2.9-0.01,5.8,0.08,8.7
			c13.2-0.52,26.41-0.87,39.61-1.35c-0.13-2.59-0.24-5.18-0.35-7.77c-2.29,0.05-4.58,0.06-6.86,0.05c-5.03-3.3-11.5,0.54-16.68-2.17
			c7.65-5.05,15.3-10.1,23.01-15.07c-0.26-2.93,0.32-6.06-0.62-8.86C537,273.89,523.91,274.83,510.81,275.02z M48.55,298.06
			c0.27,9.74,1.05,19.45,1.5,29.17c2.18-0.08,4.37-0.16,6.56-0.23c-0.17-3.56-0.38-7.12-0.49-10.68c10.97-0.52,21.94-1.15,32.9-1.72
			c-0.18-2.62-0.33-5.25-0.48-7.87c-10.96,0.55-21.92,1.17-32.89,1.69c-0.23-3.5-0.47-6.98-0.63-10.48
			C52.86,298,50.71,298.04,48.55,298.06z"/>
	</g>
	<path fill="#244186" d="M333.28,56.31c4.38-1.65,9.65,0.93,11.2,5.32c1.9,6.2,0.95,13.55-3.12,18.7
		c-3.42,4.43-11.05,3.98-14.04-0.71c-2.86-4.53-2.53-10.31-0.88-15.22C327.55,60.98,329.76,57.59,333.28,56.31z"/>
	<path fill="#244186" d="M217,87.3c0.01-5.82-0.58-11.61-0.67-17.42c3.18,4.86,7.05,9.2,10.55,13.83
		C223.58,84.88,220.29,86.11,217,87.3z"/>
	<path fill="#244186" d="M170.41,90.94c3.72-2.16,7.6-5.24,12.19-4.41c6.68,1.25,10.93,8.1,11.69,14.45
		c0.53,6.44-5.68,10.41-10.93,12.42c-1.47-3.02-3.21-5.9-5.03-8.72c1.55-1.11,3.18-2.11,4.89-2.97c-0.86-1.85-1.88-3.61-3.09-5.24
		c-1.59,0.99-3.2,1.94-4.83,2.86C173.7,96.51,172.05,93.72,170.41,90.94z"/>
	<path fill="#244186" d="M443.94,123.48c4.77-3.45,10.09-6.07,14.89-9.5c-2.57,5.28-4.76,10.73-6.92,16.18
		C449.2,127.98,446.68,125.59,443.94,123.48z"/>
	<path fill="#244186" d="M246.17,175.06c37.95-0.14,75.91-0.02,113.86-0.06c0.03,3.56,0.1,7.11-0.12,10.67
		c-37.88-0.27-75.77-0.14-113.65-0.07C246.2,182.09,246.21,178.57,246.17,175.06z"/>
	<path fill="#244186" d="M84.56,189.73c6.06-0.74,12.15,2.03,16.41,6.24c2.64,2.58,3.88,6.73,2.16,10.16
		c-1.54,3.94-6.01,6-10.07,5.4c-5.8-0.79-11.7-3.72-14.82-8.82C75.05,197.75,78.72,190.29,84.56,189.73z"/>
	<path fill="#244186" d="M275.21,217.08c7.16-0.38,14.36-0.35,21.52-0.01c-0.14,3.18-0.14,6.37-0.06,9.55
		c-4.28,0.65-8.31,2.31-11.87,4.74c-3.11-3-6.27-5.96-9.15-9.18C275.19,220.52,275.33,218.77,275.21,217.08z"/>
	<path fill="#244186" d="M303.14,216.91c7.2-0.01,14.41-0.25,21.6,0.13c-0.08,1.88-0.14,3.75-0.19,5.63
		c-3.24,2.94-6.47,5.9-9.66,8.9c-3.58-2.31-7.49-4.12-11.72-4.83C303.2,223.46,303.19,220.19,303.14,216.91z"/>
	<path fill="#244186" d="M263.25,226.03c2.1-0.06,4.3-0.51,6.36,0.14c3.59,3.2,6.86,6.77,10.15,10.28
		c-2.63,3.23-3.95,7.22-5.13,11.15c-3.78-0.18-7.55-0.14-11.33-0.07C263.25,240.37,263.35,233.2,263.25,226.03z"/>
	<path fill="#244186" d="M330.25,226.15c2.15-0.58,4.42-0.2,6.63-0.18c-0.09,7.11,0.12,14.23-0.12,21.35
		c-4.11-0.18-8.22-0.18-12.32-0.01c-0.94-3.91-2.72-7.52-4.7-11C323.44,233.13,326.55,229.33,330.25,226.15z"/>
	<path fill="#244186" d="M280.76,248.07c1.5-8.58,9.5-15.52,18.25-15.56c8.42-0.41,16.49,5.57,18.78,13.63
		c1.88,5.89,0.45,12.49-3.23,17.38c-4.32,5.39-11.52,8.34-18.37,7.02c-4.15-0.58-7.63-3.06-10.78-5.66
		C281.72,260.2,279.41,254.05,280.76,248.07z"/>
	<path fill="#244186" d="M263.33,255.57c3.76,0.07,7.53,0.08,11.29-0.01c1.01,3.95,2.44,7.83,4.89,11.13
		c-2.82,3.83-6.56,6.82-9.81,10.25c-2.24-0.06-4.49-0.12-6.72-0.4C263.61,269.56,263.12,262.56,263.33,255.57z"/>
	<path fill="#244186" d="M324.49,255.18c4.12-0.08,8.25-0.08,12.39-0.04c0.02,7.03-0.13,14.06,0.14,21.09l-0.14,0.6
		c-2.72-0.03-6.08,0.78-7.95-1.77c-2.72-3.23-6.66-5.62-8.5-9.46C322.54,262.46,323.81,258.89,324.49,255.18z"/>
	<path fill="#244186" d="M57.51,274.4c1.81-3.2,7.17-2.7,8.61,0.57c1.17,2.48,0.44,5.35,0.49,7.99c-3.58,0.03-7.12-0.5-10.67-0.84
		C56.34,279.53,56.15,276.72,57.51,274.4z"/>
	<path fill="#244186" d="M275.49,280.46c3.14-2.74,6.15-5.64,9.31-8.35c3.53,2.51,7.62,4.04,11.9,4.64c0.1,3.19,0.12,6.39,0.32,9.59
		c-7.26,0.01-14.53,0.21-21.78-0.16C275.33,284.27,275.41,282.36,275.49,280.46z"/>
	<path fill="#244186" d="M303.45,276.7c4.19-0.71,7.93-2.71,11.6-4.75c3.04,2.24,5.52,5.17,8.17,7.85c1.89,1.59,1.35,4.22,1.63,6.39
		c-7.18,0.32-14.38,0.3-21.55,0.01C303.35,283.03,303.38,279.87,303.45,276.7z"/>
	<g>
		<path fill="#244186" d="M236.12,306.17c42.12,0.04,84.25-0.07,126.37,0.06c-0.03,2.41-0.03,4.83-0.01,7.25
			c-0.12,6.02-0.09,12.05,0,18.08c-0.09,5.05-0.16,10.1,0.01,15.16c-0.23,20.2-0.03,40.4-0.1,60.6
			c-22.73,8.84-43.98,21.3-62.95,36.6c-19.05-15.25-40.8-26.89-63.3-36.17c-0.01-16.3-0.04-32.61,0.01-48.92
			c-0.04-4.01-0.03-8.01,0.01-12.02c-0.04-3.91-0.06-7.82-0.03-11.73c-0.01-8.72-0.03-17.44,0.01-26.15
			C236.14,308.24,236.12,306.86,236.12,306.17z M323.75,314.9c0.06,0.92,0.19,2.77,0.25,3.69c4.68,0.11,9.36,0.1,14.04-0.04
			c-5.34,7.6-9.44,16.28-10.04,25.68c1.3,0.01,2.6,0.01,3.91,0.02c0.73-9.18,4.55-18.01,10.25-25.18c1.02-1.16,0.91-2.78,1.27-4.18
			c-0.39-0.21-1.18-0.62-1.57-0.83c-5.6-0.37-11.27-0.24-16.87,0.02C324.68,314.29,324.06,314.69,323.75,314.9z M256.88,322.07
			c-0.02,0.87-0.05,2.62-0.07,3.5c2.64-0.94,4.98-2.5,7.28-4.05c0.04,7.58,0.07,15.17-0.02,22.75c1.25-0.04,2.5-0.08,3.76-0.12
			c-0.2-9.7,0.03-19.39-0.11-29.08c-0.43-0.13-1.28-0.38-1.71-0.5C263.24,317.38,260.62,320.46,256.88,322.07z M281.74,315.78
			c-6.35,3.92-5.94,15.42,1.35,18.06c3.63,1.5,7.38-0.4,10.01-2.89c-0.17,3.89-0.88,8.98-5.05,10.59c-3.14,1.42-6.26-1.27-6.62-4.37
			c-1.19,0-2.38,0.02-3.57,0.04c0.15,3.14,2.09,6.27,5.24,7.14c4.86,1.85,10.73-1.19,12.25-6.11c1.79-5.71,2.02-12.1,0.14-17.81
			C293.47,315.13,286.54,313.05,281.74,315.78z M304.91,315.84c-6.26,3.9-5.87,15.05,1.13,17.9c3.68,1.67,7.54-0.26,10.36-2.64
			c-0.24,3.94-1.07,9.2-5.46,10.56c-3.1,1.1-5.96-1.64-6.34-4.59c-1.22,0.07-2.44,0.15-3.65,0.23c0.52,2.36,1.37,4.93,3.61,6.21
			c4.67,3.06,11.67,0.77,13.67-4.43c2.25-5.64,2.42-12.18,0.76-17.99C317.26,315.36,309.94,312.83,304.91,315.84z"/>
	</g>
	<path fill="#244186" d="M284.39,318.29c1.37-0.78,3.07-0.77,4.56-0.36c5.67,2.46,4.76,13.05-1.98,13.15
		C280.31,331.11,279.14,321.25,284.39,318.29z"/>
	<path fill="#244186" d="M307.36,318.5c3.06-2.19,7.6-0.06,8.22,3.56c1.62,4.23-1.65,10.15-6.61,8.86
		C303.33,329.7,302.88,321.38,307.36,318.5z"/>
</g>
<g>
	<path fill="#0D2D79" d="M289.66,70.03c3.84-0.07,7.68-0.19,11.53-0.3c0.1,5.13,0.37,10.26,0.52,15.39l-1.18-0.65
		c-0.87-4.31-0.2-8.77-0.6-13.14C296.53,70.98,292.7,71.92,289.66,70.03z"/>
	<path fill="#0D2D79" d="M209.04,93.07c0.23-0.37,0.69-1.09,0.93-1.46c-0.02,4.85,0.22,9.7-0.03,14.54
		C207.85,102.26,209.05,97.35,209.04,93.07z"/>
</g>
<g>
	<g>
		<path fill="#FFDF82" d="M292.66,129.59c4.09-4.98,12.95-3.8,15.88,1.86c2.47,3.96,1.26,9-1.48,12.48
			c17.66-0.16,35.32-0.13,52.98-0.02c-0.01-1.75-0.02-3.49-0.03-5.24c4.53-0.05,9.07-0.01,13.61-0.05
			c-0.4,7.24,0.66,15.34,6.12,20.64c4.17,4.26,10.17,5.78,15.91,6.4c-2.52,4.28-5.85,8.82-11.04,9.88
			c-3.86,0.44-7.77-0.02-11.66,0.18c0.01,3.86,0.01,7.73,0.02,11.59c7.59,0.13,15.18-0.15,22.76,0.11c6.2,3.52,12.8,7.33,20.23,6.91
			c5.74,0.03,10.82-3.02,15.04-6.65c-0.49,7.58-1.84,15.57-6.72,21.67c-4.29,5.57-11.31,8.72-18.29,8.7
			c-12.13-0.18-24.25-0.04-36.37-0.1c-0.05,22.94-0.09,45.88-0.02,68.81c-0.22-0.15-0.67-0.47-0.89-0.62
			c0.56-6.04,0.25-12.12-0.91-18.07c-6.26-0.55-12.54-0.03-18.8-0.23c-3.27,0-6.59-0.36-9.81,0.33c-1.69,2.25-1.23,5.45-2.17,8.06
			c-0.27-7.03-0.12-14.06-0.14-21.09c-4.14-0.04-8.27-0.04-12.39,0.04c-0.68,3.71-1.95,7.28-4.06,10.42
			c-0.21-0.63-0.62-1.9-0.83-2.54c-1.69,0.09-3.37,0.27-5.04,0.46c3.68-4.89,5.11-11.49,3.23-17.38
			c-2.29-8.06-10.36-14.04-18.78-13.63c-8.75,0.04-16.75,6.98-18.25,15.56c-1.35,5.98,0.96,12.13,4.65,16.81
			c-1.89-0.86-3.86-1.49-5.83-2.1c-0.01,1.3-0.02,2.61-0.07,3.91c-2.45-3.3-3.88-7.18-4.89-11.13c-3.76,0.09-7.53,0.08-11.29,0.01
			c-0.21,6.99,0.28,13.99-0.35,20.97c-0.91-2.75-1.09-5.66-1.24-8.53c-9.83-0.2-19.7-0.41-29.52,0.06
			c-0.69,5.61-1.69,11.22-1.32,16.9l-0.57,0.29c-0.15-22.4,0.06-44.81-0.13-67.21l-1.21-0.07c-12.68-0.06-25.35,0.01-38.02-0.01
			c-4.74-0.03-9.4-1.94-12.94-5.04c-6.93-6.47-9.21-16.55-8.83-25.71c5.67,5.02,13.2,8.24,20.85,7.83
			c7.45-0.04,14.32-3.6,20.25-7.82c7.06-0.73,14.25,0.09,21.36-0.39c-0.15-3.55-0.15-7.11,0-10.67c-4.88-0.35-9.79,0.2-14.65-0.28
			c-5.65-1.47-8.94-7.05-9.96-12.47c5.42,0.03,11.26,0.81,16.1-2.27c7.47-4.38,9.49-13.82,9.18-21.87
			c4.55,0.03,9.11,0.11,13.66-0.08c0.12,1.55,0.21,3.1,0.31,4.65c15.55,0.03,31.11-0.11,46.67,0.08
			C289.6,139.93,288.94,133.6,292.66,129.59z M246.17,175.06c0.04,3.51,0.03,7.03,0.09,10.54c37.88-0.07,75.77-0.2,113.65,0.07
			c0.22-3.56,0.15-7.11,0.12-10.67C322.08,175.04,284.12,174.92,246.17,175.06z M275.21,217.08c0.12,1.69-0.02,3.44,0.44,5.1
			c2.88,3.22,6.04,6.18,9.15,9.18c3.56-2.43,7.59-4.09,11.87-4.74c-0.08-3.18-0.08-6.37,0.06-9.55
			C289.57,216.73,282.37,216.7,275.21,217.08z M303.14,216.91c0.05,3.28,0.06,6.55,0.03,9.83c4.23,0.71,8.14,2.52,11.72,4.83
			c3.19-3,6.42-5.96,9.66-8.9c0.05-1.88,0.11-3.75,0.19-5.63C317.55,216.66,310.34,216.9,303.14,216.91z M263.25,226.03
			c0.1,7.17,0,14.34,0.05,21.5c3.78-0.07,7.55-0.11,11.33,0.07c1.18-3.93,2.5-7.92,5.13-11.15c-3.29-3.51-6.56-7.08-10.15-10.28
			C267.55,225.52,265.35,225.97,263.25,226.03z M330.25,226.15c-3.7,3.18-6.81,6.98-10.51,10.16c1.98,3.48,3.76,7.09,4.7,11
			c4.1-0.17,8.21-0.17,12.32,0.01c0.24-7.12,0.03-14.24,0.12-21.35C334.67,225.95,332.4,225.57,330.25,226.15z"/>
	</g>
</g>
<g>
	<path fill="#082D88" d="M228.99,217.98l1.21,0.07c0.19,22.4-0.02,44.81,0.13,67.21c-12.09,0.01-24.18,0.07-36.27-0.05
		c0.52-1.67,2.6-1.02,3.89-1.26c10.34-0.06,20.69,0.22,31.02-0.14C229.12,261.87,229.03,239.92,228.99,217.98z"/>
</g>
<g>
	<path fill="#F8D574" d="M279.58,262.78c1.97,0.61,3.94,1.24,5.83,2.1c3.15,2.6,6.63,5.08,10.78,5.66
		c6.85,1.32,14.05-1.63,18.37-7.02c1.67-0.19,3.35-0.37,5.04-0.46c0.21,0.64,0.62,1.91,0.83,2.54c1.84,3.84,5.78,6.23,8.5,9.46
		c1.87,2.55,5.23,1.74,7.95,1.77l0.14-0.6c0.94-2.61,0.48-5.81,2.17-8.06c3.22-0.69,6.54-0.33,9.81-0.33
		c6.26,0.2,12.54-0.32,18.8,0.23c1.16,5.95,1.47,12.03,0.91,18.07c-1.29-2.34-0.96-5.07-1-7.62c-10.5,1.43-21.16,0.41-31.73,0.41
		c-3.87,0.22-7.74-0.11-11.57-0.64c1.62,2.2,2.31,4.83,1.52,7.52l-1.08,0.38c-0.28-2.17,0.26-4.8-1.63-6.39
		c-2.65-2.68-5.13-5.61-8.17-7.85c-3.67,2.04-7.41,4.04-11.6,4.75c-0.07,3.17-0.1,6.33-0.15,9.5l-1.18-0.32
		c-0.37-2.55-0.42-5.12-0.39-7.69c-1.03,0.17-2.05,0.32-3.04,0.61c-0.62,2.5-0.1,5.34-1.67,7.54c-0.2-3.2-0.22-6.4-0.32-9.59
		c-4.28-0.6-8.37-2.13-11.9-4.64c-3.16,2.71-6.17,5.61-9.31,8.35c0.03-0.54,0.07-1.63,0.09-2.17c-11.82,1.11-23.72,0.74-35.59,0.96
		c-2.54,0.03-5.07-0.28-7.58-0.67c-0.12,1.95-0.22,3.91-0.48,5.85l-1.03,0.54c-0.37-5.68,0.63-11.29,1.32-16.9
		c9.82-0.47,19.69-0.26,29.52-0.06c0.15,2.87,0.33,5.78,1.24,8.53c2.23,0.28,4.48,0.34,6.72,0.4c3.25-3.43,6.99-6.42,9.81-10.25
		C279.56,265.39,279.57,264.08,279.58,262.78z"/>
</g>
<g>
	<path fill="#F1C964" d="M232.41,278.58c2.51,0.39,5.04,0.7,7.58,0.67c11.87-0.22,23.77,0.15,35.59-0.96
		c-0.02,0.54-0.06,1.63-0.09,2.17c-0.08,1.9-0.16,3.81-0.25,5.72c7.25,0.37,14.52,0.17,21.78,0.16c1.57-2.2,1.05-5.04,1.67-7.54
		c0.99-0.29,2.01-0.44,3.04-0.61c-0.03,2.57,0.02,5.14,0.39,7.69l1.18,0.32c7.17,0.29,14.37,0.31,21.55-0.01l1.08-0.38
		c0.79-2.69,0.1-5.32-1.52-7.52c3.83,0.53,7.7,0.86,11.57,0.64c10.57,0,21.23,1.02,31.73-0.41c0.04,2.55-0.29,5.28,1,7.62
		c0.22,0.15,0.67,0.47,0.89,0.62c12.1-0.31,24.21-0.21,36.31-0.08c-0.17,6.47-0.11,12.94-0.07,19.4c-4.54,0.16-9.08,0.07-13.61,0.08
		c-0.05,2.07-0.12,4.15-0.27,6.22c-0.65-2.02-1.09-4.22-2.39-5.95c-1.76-0.72-3.72-0.45-5.57-0.54c-6.56,0.15-13.12-0.11-19.67,0.2
		c-0.16,2.56-0.35,5.21-1.85,7.39c-0.02-2.42-0.02-4.84,0.01-7.25c-42.12-0.13-84.25-0.02-126.37-0.06c0,0.69,0.02,2.07,0.02,2.76
		c-1.23-1.12-2.21-2.95-4.12-2.78c-6.34-0.27-12.7-0.13-19.04-0.15c-3.32-0.6-3.95,3.23-5.03,5.46c-0.06-1.77-0.11-3.53-0.16-5.29
		c-4.52-0.04-9.04,0.12-13.56-0.14c0.01-6.94,0.28-13.9-0.17-20.82c12.09,0.12,24.18,0.06,36.27,0.05l0.57-0.29l1.03-0.54
		C232.19,282.49,232.29,280.53,232.41,278.58z"/>
</g>
<g>
	<path fill="#15347D" d="M522.77,301.11c1.62-1.13,3.27-2.22,4.93-3.31c5.18,2.71,11.65-1.13,16.68,2.17
		C537.16,300,529.96,300.63,522.77,301.11z"/>
</g>
<g>
	<path fill="#EABD52" d="M207.95,311.46c1.08-2.23,1.71-6.06,5.03-5.46c6.34,0.02,12.7-0.12,19.04,0.15
		c1.91-0.17,2.89,1.66,4.12,2.78c-0.04,8.71-0.02,17.43-0.01,26.15c-2.14-1.35-4.5-2.51-7.1-2.25c-6.63,0.17-13.27-0.24-19.88,0.22
		c-0.34,3.92-0.39,7.85-0.32,11.79l-1.02,0.55C207.81,334.08,207.49,322.74,207.95,311.46z"/>
</g>
<g>
	<path fill="#EBBE54" d="M364.33,306.09c6.55-0.31,13.11-0.05,19.67-0.2c1.85,0.09,3.81-0.18,5.57,0.54
		c1.3,1.73,1.74,3.93,2.39,5.95c0.46,5.97,0.29,12,0,17.98c-1.06-1.83-1.29-5.3-3.98-5.21c-7.84-0.14-15.69-0.06-23.52,0.09
		c-0.26,2.21-0.42,4.56-1.98,6.32c-0.09-6.03-0.12-12.06,0-18.08C363.98,311.3,364.17,308.65,364.33,306.09z"/>
</g>
<g>
	<path fill="#092B77" d="M323.75,314.9c0.31-0.21,0.93-0.61,1.24-0.82c5.6-0.26,11.27-0.39,16.87-0.02
		c0.39,0.21,1.18,0.62,1.57,0.83C336.87,315.07,330.31,315.06,323.75,314.9z"/>
</g>
<g>
	<path fill="#E3B243" d="M364.46,325.24c7.83-0.15,15.68-0.23,23.52-0.09c2.69-0.09,2.92,3.38,3.98,5.21
		c0.5,9.91,0.15,19.88,0.14,29.81c-0.83-1.17-1.35-3.13-3.09-3.1c-8.21-0.56-16.5,0.53-24.69-0.43c-0.61-3.31-0.92-6.67-1.83-9.92
		c-0.17-5.06-0.1-10.11-0.01-15.16C364.04,329.8,364.2,327.45,364.46,325.24z"/>
</g>
<g>
	<path fill="#E4B344" d="M209.15,333.05c6.61-0.46,13.25-0.05,19.88-0.22c2.6-0.26,4.96,0.9,7.1,2.25
		c-0.03,3.91-0.01,7.82,0.03,11.73c-1.24-0.82-2.47-1.91-4.07-1.79c-7.75-0.23-15.51,0.23-23.26-0.18
		C208.76,340.9,208.81,336.97,209.15,333.05z"/>
</g>
<g>
	<path fill="#DAA42F" d="M207.81,345.39l1.02-0.55c-0.01,3.95-0.75,8.03,0.38,11.89c7.86,1.07,15.85-0.17,23.74,0.5
		c1.23,0.13,2.16,1.03,3.2,1.6c-0.05,16.31-0.02,32.62-0.01,48.92c-9.32-3.76-18.83-7.06-28.52-9.74c-0.3-12,0.15-24.01,0-36.01
		C207.75,356.46,207.35,350.91,207.81,345.39z"/>
	<path fill="#DAA42F" d="M362.39,407.32c0.07-20.2-0.13-40.4,0.1-60.6c0.91,3.25,1.22,6.61,1.83,9.92
		c8.19,0.96,16.48-0.13,24.69,0.43c1.74-0.03,2.26,1.93,3.09,3.1c0.25,12.51-0.07,25.04,0.15,37.56
		C382.13,400.39,372.13,403.52,362.39,407.32z"/>
</g>
<g>
	<path fill="#E0AE3C" d="M208.83,344.84c7.75,0.41,15.51-0.05,23.26,0.18c1.6-0.12,2.83,0.97,4.07,1.79
		c-0.04,4.01-0.05,8.01-0.01,12.02c-1.04-0.57-1.97-1.47-3.2-1.6c-7.89-0.67-15.88,0.57-23.74-0.5
		C208.08,352.87,208.82,348.79,208.83,344.84z"/>
</g>
<g>
	<g>
		<path fill="#94CCEF" d="M96.68,392.83c36.71-7.13,75.01-4.98,110.94,5.18c9.69,2.68,19.2,5.98,28.52,9.74
			c22.5,9.28,44.25,20.92,63.3,36.17c18.97-15.3,40.22-27.76,62.95-36.6c9.74-3.8,19.74-6.93,29.86-9.59
			c36.17-8.99,74.16-11.25,111.05-5.72c-3.62,33.34-16.24,66.38-38.97,91.42c-19.98,22.18-47.1,37.82-76.3,44.01
			c-29.92,9.22-58.99,20.98-88.15,32.33c-16.58-8.37-34.33-14.46-51.92-20.5c-12.05-4.12-24.19-8-36.35-11.78
			c-9.06-2.87-18.3-5.25-27.05-9.02c-20.47-8.5-38.73-22.19-52.63-39.47c-17.44-21.51-28.43-47.79-33.74-74.85
			C97.47,400.41,96.9,396.63,96.68,392.83z M227.26,460.07c2.88,7.3,5.46,14.73,7.97,22.17c1.51,0.05,3.03,0.04,4.55-0.04
			c2.45-7.45,5.02-14.88,7.95-22.16c-1.56-0.06-3.13-0.1-4.69-0.14c-2.16,5.64-3.72,11.48-5.63,17.2
			c-1.53-5.84-3.41-11.58-5.41-17.27C230.41,459.9,228.83,459.98,227.26,460.07z M253.19,459.98c-2.27,7.58-5.64,14.8-7.58,22.48
			c1.41-0.11,2.81-0.21,4.22-0.31c0.68-1.67,0.92-3.68,2.23-4.99c2.53-0.33,5.09-0.13,7.63-0.03c0.5,1.59,0.95,3.21,1.66,4.73
			c1.3,1.02,3.05,0.31,4.54,0.33c-2.54-7.48-5.15-14.93-7.81-22.37C256.44,459.87,254.81,459.92,253.19,459.98z M268.97,459.87
			c-0.07,7.48-0.13,14.97,0.03,22.45c1.43-0.01,2.86-0.02,4.29-0.02c0.28-5.46-0.03-10.93,0.02-16.4
			c3.74,5.06,6.43,10.81,9.99,15.99c1.51,0.89,3.35,0.33,5,0.43c0.09-7.47,0.14-14.95-0.03-22.42c-1.47-0.01-2.93-0.01-4.4-0.01
			c-0.26,5.17,0.08,10.34,0.16,15.51c-3.87-4.49-6.19-10.08-9.57-14.92C272.94,459.32,270.75,460.06,268.97,459.87z M301.22,459.97
			c0.09,7.41,0.14,14.82-0.01,22.22c1.53,0.1,3.07,0.11,4.62,0.04c-0.07-3.15-0.03-6.3,0.07-9.44c3.34-0.14,6.69-0.14,10.04,0.02
			c-0.04,3.16-0.04,6.33-0.06,9.5c1.46,0,2.93,0.01,4.4,0.02c0.17-7.48,0.22-14.98,0.01-22.46c-1.45,0.03-2.89,0.06-4.32,0.09
			c-0.02,2.95-0.08,5.91-0.17,8.86c-3.27,0.01-6.54-0.01-9.82-0.04c-0.19-2.95-0.22-5.91-0.12-8.86
			C304.31,459.93,302.76,459.95,301.22,459.97z M325.07,459.86c0,7.49,0.03,14.99-0.01,22.49c1.57-0.02,3.15-0.06,4.73-0.13
			c-0.13-7.4-0.16-14.81,0-22.2C328.21,459.96,326.64,459.9,325.07,459.86z M334.25,460.03c0.22,7.24-0.15,14.49,0.17,21.72
			c3.83,1.54,8.69,0.27,12.92,0.57c0.03-0.89,0.08-2.68,0.11-3.57c-2.8-0.09-5.61-0.11-8.41-0.04c-0.22-1.98-0.29-3.96-0.25-5.93
			c2.64-0.08,5.28-0.09,7.93-0.03c0.05-1.23,0.1-2.47,0.16-3.69c-2.69,0.03-5.38,0.02-8.07-0.03c-0.01-1.78-0.01-3.55,0.01-5.32
			c2.94-0.05,5.89-0.07,8.85-0.04c0.01-1.19,0.02-2.37,0.04-3.54C343.24,459.66,338.74,459.82,334.25,460.03z M350.94,459.84
			c-0.04,7.49-0.01,14.97,0,22.46c1.48,0.02,2.96,0.04,4.45,0.06c0.2-5.5-0.08-10.99-0.08-16.49c3.65,4.78,6.2,10.28,9.54,15.27
			c1.02,2.07,3.61,0.98,5.4,1.24c0.2-7.5,0.17-15.01-0.01-22.5c-1.47,0-2.93,0.02-4.38,0.03c-0.25,5.17,0.25,10.34,0.18,15.51
			c-3.75-4.58-6.15-10.08-9.53-14.92C354.91,459.38,352.76,460.02,350.94,459.84z M215.13,493.15c0,4.98-0.16,9.96,0.05,14.94
			c0.13,3.2,2.06,6.48,5.2,7.54c4.48,1.81,11.11-0.02,12.02-5.34c0.74-5.66,0.13-11.4,0.34-17.09c-1.51,0.01-3.02,0.03-4.53,0.05
			c-0.29,5.51,0.63,11.14-0.49,16.58c-0.89,3.85-7.68,3.22-7.76-0.79c-0.67-5.21-0.11-10.49-0.19-15.73
			C218.22,493.25,216.67,493.2,215.13,493.15z M237.27,493.19c0.04,7.52,0.07,15.05,0.02,22.57c1.51,0.01,3.03,0.03,4.55,0.05
			c0.25-5.37-0.23-10.74,0.06-16.11c3.54,4.73,6.08,10.11,9.4,15c1.12,1.88,3.66,0.81,5.46,1.13c0.08-7.53,0-15.06,0.01-22.59
			c-1.52,0-3.03,0.01-4.54,0.02c-0.09,5.05,0.22,10.1-0.08,15.14c-3.89-4.48-6.07-10.14-9.61-14.88
			C240.85,492.97,239.02,493.27,237.27,493.19z M261.29,493.26c0.11,7.5,0.07,15.01,0.05,22.51c1.47,0.01,2.94,0.01,4.42,0.03
			c0.16-7.52,0.16-15.04,0.01-22.55C264.27,493.24,262.78,493.25,261.29,493.26z M268.62,493.08c1.99,7.71,5.22,15.06,7.66,22.65
			c1.46-0.01,2.93,0,4.4,0.01c2.38-7.62,5.78-14.94,7.65-22.68c-1.39,0.08-2.77,0.17-4.16,0.27c-2.11,5.56-4.01,11.21-5.54,16.97
			c-2.11-5.61-3.49-11.47-5.79-17.01C271.43,493.21,270.02,493.14,268.62,493.08z M291.04,493.21c-0.3,7.52-0.29,15.07,0.01,22.6
			c4.34-0.05,8.68-0.04,13.02-0.06c0.03-1.22,0.06-2.43,0.1-3.63c-2.86-0.04-5.71-0.07-8.55-0.1c-0.11-1.96-0.09-3.92,0.22-5.86
			c2.63,0.16,5.27,0.07,7.89-0.27c-0.03-1.18-0.07-2.34-0.09-3.5c-2.68-0.01-5.36-0.04-8.03-0.11c0.01-1.78,0.03-3.55,0.07-5.32
			c2.82,0.04,5.65,0.05,8.48,0.05c-0.02-1.29-0.04-2.57-0.06-3.84C299.74,493.28,295.39,493.26,291.04,493.21z M307.82,493.21
			c-0.24,7.52-0.31,15.06,0,22.59c1.41,0,2.82,0.01,4.24,0.02c0.12-3.02,0.12-6.05-0.04-9.07c5.29-0.88,5.28,5.62,7.68,8.69
			c1.64,0.53,3.41,0.31,5.12,0.44c-1.55-3.53-3.32-6.95-5.22-10.3c2.87-2.57,4.07-7.2,1.34-10.32
			C317.45,491.89,312.14,493.71,307.82,493.21z M329.42,504.57c2.6,2.03,7.26,3.27,5.84,7.54c-2.72,0.44-5.39-0.16-7.96-1
			c-0.11,1.32-0.23,2.66-0.34,3.99c3.06,0.97,6.49,1.82,9.57,0.48c4.57-2.22,4.55-9.75-0.02-11.98c-1.88-1.46-5.82-2.38-4.74-5.53
			c1.28-2.89,5.95,0.83,6.8-2.37c1.34-3.35-3.63-2.73-5.59-2.82C327.16,492.85,325.04,501.27,329.42,504.57z M343.31,493.34
			c0.18,7.46,0.14,14.93,0.03,22.39c1.55,0.03,3.09,0.06,4.64,0.1c0.2-7.56,0.19-15.13-0.03-22.69
			C346.4,493.2,344.85,493.27,343.31,493.34z M350.78,493.2c-0.05,1.22-0.09,2.45-0.13,3.68c2.01,0.11,4.02,0.23,6.04,0.38
			c0.03,6.19-0.29,12.39,0.13,18.58c1.36-0.03,2.73-0.04,4.1-0.05c0.42-6.24,0.09-12.49,0.26-18.74c1.97-0.03,3.93-0.06,5.91-0.08
			c-0.02-1.28-0.03-2.55-0.04-3.81C361.63,493.3,356.2,493.28,350.78,493.2z M367.94,493.18c1.66,4.14,3.84,8.04,5.93,11.97
			c1.98,3.19,1.09,7.1,1.25,10.65c1.54-0.02,3.08-0.02,4.62-0.02c0.15-3.33-0.54-6.92,1.04-10c2.01-4.21,4.26-8.31,6.22-12.54
			c-1.59,0.02-3.17,0.05-4.75,0.08c-1.69,3.32-2.82,6.94-5.01,9.99c-1.59-3.33-3.06-6.7-4.62-10.03
			C371.05,493.24,369.49,493.2,367.94,493.18z"/>
	</g>
</g>
<g>
	<path fill="#8EC9EE" d="M255.46,464.88c1.24,2.78,2.2,5.68,3.13,8.59c-1.89,0.22-3.78,0.33-5.68,0.38
		C253.68,470.83,254.55,467.85,255.46,464.88z"/>
</g>
<g>
	<path fill="#90CAEE" d="M312.16,496.96c2.16,0.15,6.12-0.24,5.86,3.02c0.18,3.33-3.65,2.81-5.87,3.02
		C312.15,500.98,312.15,498.97,312.16,496.96z"/>
</g>
</svg>
