<?xml version="1.0" encoding="UTF-8"?>
<svg width="108px" height="156px" viewBox="0 0 108 156" version="1.1" xmlns="http://www.w3.org/2000/svg" xmlns:xlink="http://www.w3.org/1999/xlink">
    <!-- Generator: Sketch 60.1 (88133) - https://sketch.com -->
    <title>Right image</title>
    <desc>Created with Sketch.</desc>
    <g id="Page-1" stroke="none" stroke-width="1" fill="none" fill-rule="evenodd">
        <g id="Home" transform="translate(-1219.000000, -2616.000000)" fill="#EB654A">
            <g id="Strategists" transform="translate(0.000000, 2572.000000)">
                <g id="Group-6" transform="translate(160.000000, 44.000000)">
                    <path d="M1088.49843,125.027104 C1088.88442,124.932097 1089.84004,125.513021 1090.48644,126.2374 C1090.76155,126.544873 1091.55267,127.344316 1092.23621,128.005297 C1094.09932,129.807595 1094.74559,130.469931 1094.91779,130.756001 C1094.99983,130.892286 1095.25473,131.068393 1095.45951,131.131062 C1095.82277,131.241302 1096.14927,131.601072 1098.38148,134.35443 C1098.86366,134.949811 1099.47278,135.550433 1099.7175,135.672266 C1099.9653,135.794883 1100.86853,136.513095 1101.72809,137.272368 C1102.58931,138.031521 1103.82362,139.003514 1104.48035,139.43734 C1105.97969,140.429741 1106.60868,140.959828 1107.17555,141.707403 C1108.21495,143.078896 1108.69543,143.625428 1108.91515,143.687017 C1109.04227,143.722768 1109.22722,143.880456 1109.31816,144.031526 C1109.4091,144.182597 1109.55518,144.269973 1109.63468,144.222295 C1109.80957,144.117402 1110.82621,145.193692 1110.96115,145.626354 C1111.04712,145.902897 1110.69365,146.487618 1110.36301,146.614176 C1110.27627,146.646949 1110.17776,146.779523 1110.12648,146.930149 C1110.07744,147.071556 1109.16216,147.728111 1108.09445,148.385965 C1105.86735,149.759291 1104.63874,150.739388 1103.57282,151.995509 C1103.16876,152.473199 1102.77546,152.850826 1102.70244,152.831622 C1102.63263,152.81487 1102.49193,152.93775 1102.4034,153.094088 C1102.30918,153.258218 1101.4534,153.915836 1100.48205,154.568397 C1098.09336,156.175127 1097.06798,156.368377 1095.77759,155.452767 C1094.68763,154.680308 1094.02552,153.665246 1093.24638,151.582947 C1092.95519,150.803019 1092.39845,148.020367 1092.1216,145.965799 C1092.01276,145.150877 1091.19745,143.248633 1089.73758,140.402175 C1089.29547,139.536898 1088.81376,138.418893 1088.6678,137.917595 C1088.11238,136.009967 1087.98492,135.506325 1087.90699,134.919604 C1087.84032,134.42062 1087.67004,133.847288 1087.28149,132.8064 C1087.26344,132.757728 1087.25224,132.618331 1087.25555,132.472853 C1087.26411,132.059998 1086.38548,129.642763 1085.99067,128.994103 C1085.55098,128.270871 1085.52999,127.065535 1085.94807,126.503309 C1086.10634,126.290271 1086.47766,125.929328 1086.75748,125.716889 C1087.03704,125.505474 1087.31931,125.278434 1087.37553,125.223719 C1087.43122,125.166693 1087.63672,125.116944 1087.83648,125.110879 C1088.03561,125.105195 1088.33029,125.068449 1088.49843,125.027104 Z M1145.56997,110.532816 C1145.74462,110.533439 1146.15051,110.842784 1146.46961,111.220586 C1147.04969,111.908272 1148.28182,113.002096 1148.84332,113.328671 C1149.0155,113.429238 1149.36488,113.757794 1149.62718,114.066879 C1149.89054,114.376197 1150.22855,114.598422 1150.38611,114.566115 C1150.53747,114.534069 1150.77501,114.678357 1150.89152,114.87191 C1151.00842,115.066097 1151.21599,115.27068 1151.33405,115.306971 C1151.45708,115.34547 1151.92105,115.68648 1152.36734,116.067466 C1152.81506,116.449321 1153.40558,116.818083 1153.68489,116.891539 C1153.96135,116.963255 1154.54673,117.338556 1154.97032,117.715016 C1155.39277,118.089571 1156.0513,118.583376 1156.41132,118.798443 C1156.76982,119.010972 1157.14642,119.309375 1157.22856,119.445814 C1157.52461,119.937628 1159.35482,120.966422 1160.033,121.020904 C1160.25525,121.038761 1160.5531,121.247062 1160.69712,121.486306 C1161.43708,122.715525 1159.19899,125.270468 1154.95678,128.042749 C1153.77752,128.81306 1152.15066,129.951144 1151.33925,130.572531 C1149.66002,131.860353 1147.88957,132.808165 1147.14377,132.819286 C1146.27661,132.832368 1145.33101,132.143657 1144.9445,131.218096 C1144.76232,130.77976 1144.60902,130.232559 1144.6042,130.001384 C1144.59918,129.760828 1144.56583,129.501854 1144.52568,129.398968 C1144.36096,128.970029 1144.06943,127.256802 1144.04977,126.598356 C1144.02252,125.619703 1143.65012,123.067947 1143.43642,122.378183 C1143.34468,122.088579 1143.2961,121.585668 1143.3259,121.26723 C1143.35777,120.937176 1143.31628,120.461111 1143.2295,120.167672 C1143.14683,119.885587 1143.07238,119.074303 1143.06527,118.388462 C1143.05816,117.702621 1143.01755,117.069694 1142.97591,117.000523 C1142.93427,116.931352 1142.84374,116.247172 1142.77422,115.496849 C1142.70707,114.745959 1142.54576,113.841662 1142.41966,113.507029 L1142.41966,113.507029 L1142.1904,112.893963 L1143.32046,112.114295 C1143.93865,111.689123 1144.4754,111.246286 1144.50446,111.140758 C1144.57693,110.879641 1145.18481,110.53234 1145.56997,110.532816 Z M1101.19369,91.1550827 C1101.88892,89.9577063 1103.24424,89.6550877 1103.81229,90.570503 C1104.08573,91.0106378 1105.38926,92.1502001 1105.80448,92.3122001 C1105.98801,92.382837 1106.50351,92.8709039 1106.93674,93.3817428 C1107.37193,93.8958359 1108.14108,94.7615058 1108.63731,95.2965682 C1109.13557,95.8321836 1109.53237,96.3276649 1109.51773,96.39225 C1109.50326,96.4585111 1109.62022,96.561096 1109.77225,96.6160819 C1109.92771,96.6725484 1110.36297,97.1458474 1110.75212,97.6822374 C1111.14252,98.2178787 1111.6694,98.8080843 1111.94167,99.0106308 C1112.20496,99.2052862 1112.59636,99.5746758 1112.79302,99.8110587 C1112.98968,100.047442 1113.30913,100.405952 1113.48874,100.591437 C1113.76931,100.881136 1114.92558,102.206457 1115.62156,103.03806 C1115.72646,103.162938 1115.91145,103.339002 1116.04505,103.439584 C1116.17724,103.539238 1116.85815,104.25409 1117.56754,105.036013 C1119.10624,106.73699 1120.22661,107.913766 1120.54405,108.164523 C1121.39609,108.840518 1122.42288,110.413577 1122.35055,110.932645 C1122.30635,111.258562 1121.5098,111.970146 1120.24513,112.819872 C1119.75113,113.150694 1118.81306,113.85858 1118.15716,114.394575 C1117.50266,114.931497 1116.77571,115.52162 1116.54308,115.708086 C1116.31303,115.890353 1116.08587,116.078853 1116.05025,116.117046 C1116.01338,116.155989 1114.74926,116.924777 1113.2509,117.818101 C1110.39961,119.517533 1109.92943,119.686137 1108.97215,119.353182 C1108.73025,119.268833 1108.35914,119.012174 1108.15038,118.783929 C1107.49744,118.071792 1106.02767,115.788237 1106.16809,115.704017 C1106.40463,115.562152 1106.21228,114.407243 1105.77936,113.376236 C1105.39769,112.464205 1105.19408,111.749212 1104.99888,110.616385 C1104.86861,109.86095 1104.46265,108.711024 1104.08375,108.022327 C1103.87674,107.645989 1103.74165,107.259295 1103.78521,107.169388 C1103.83081,107.080034 1103.74748,106.807566 1103.60056,106.563498 C1103.45051,106.314224 1103.30267,105.762435 1103.26398,105.307293 C1103.2249,104.8515 1103.13953,104.404872 1103.06979,104.289021 C1103.0024,104.177075 1102.92777,103.916225 1102.90747,103.72023 C1102.88694,103.52526 1102.82962,103.130895 1102.78248,102.867731 C1102.73611,102.598791 1102.64426,102.035574 1102.57963,101.616363 C1102.51438,101.197526 1102.37668,100.71761 1102.27482,100.54839 C1102.17413,100.381122 1102.12826,100.169459 1102.17323,100.08048 C1102.21765,99.9891732 1102.07852,99.3347234 1101.85975,98.6128819 C1101.63996,97.8907638 1101.50944,97.2816473 1101.56623,97.2475848 C1101.62365,97.213148 1101.52354,97.0242708 1101.34155,96.8207236 C1100.92865,96.3605867 1100.74668,95.0027973 1101.01937,94.4158235 C1101.16451,94.1037776 1101.14439,93.7951798 1100.95985,93.4886307 C1100.61899,92.9223935 1100.7137,91.9833083 1101.19369,91.1550827 Z M1148.91454,67.7777965 C1149.05049,67.785464 1149.36395,68.013815 1149.60769,68.284065 C1149.84868,68.5497649 1150.32551,69.0161484 1150.64701,69.3015984 C1150.97194,69.5885263 1151.87777,70.6208062 1152.64075,71.5761281 C1153.63066,72.8118008 1154.35628,73.549814 1155.11851,74.0906614 C1155.70548,74.5076691 1156.30878,75.0449216 1156.44392,75.2698316 C1156.71889,75.7274518 1157.51309,76.4357573 1158.22581,76.8603716 C1158.46887,77.0053968 1158.66996,77.1623694 1158.66154,77.2019363 C1158.65272,77.2408531 1158.83205,77.4321313 1159.04736,77.6141791 C1159.89042,78.3276343 1160.47737,78.9180619 1161.32291,79.9078273 C1161.80402,80.4716064 1162.29234,80.9655857 1162.41769,81.0176648 C1162.54328,81.0687198 1162.87669,81.3965571 1163.17261,81.7593075 C1163.46791,82.1224321 1163.87739,82.4682658 1164.09907,82.54386 C1164.43299,82.6581772 1165.42227,83.8491013 1166.7849,85.7756087 C1167.3026,86.5102738 1166.83676,87.3271991 1165.36484,88.2593902 C1164.22382,88.9821416 1162.98705,89.9375982 1161.2435,91.4443968 C1160.78523,91.8409602 1160.26207,92.2888971 1160.06672,92.453161 C1159.87286,92.6156526 1159.45017,93.0023355 1159.12311,93.3182898 C1158.12683,94.2805277 1156.90631,94.8342954 1155.80546,94.8242596 C1154.80237,94.8147542 1154.59523,94.7224609 1153.84454,93.9455441 C1153.31086,93.3930013 1152.25829,91.040438 1152.19507,90.2582937 C1152.17073,89.9526527 1151.94008,89.0596693 1151.68313,88.27804 C1151.4264,87.4953866 1151.16581,86.4425677 1151.10594,85.9424061 C1151.04559,85.4372221 1150.89725,84.857513 1150.77444,84.644659 C1150.6528,84.4337552 1150.53704,84.0069886 1150.5191,83.7063514 C1150.50107,83.4013419 1150.35275,82.6933355 1150.18792,82.1270754 C1150.02441,81.5644395 1149.70548,80.4723563 1149.48307,79.7115517 C1149.26105,78.9513972 1149.05367,78.1408641 1149.02378,77.9190662 C1148.99413,77.6962442 1148.81672,77.0667587 1148.62784,76.5140643 C1148.43911,75.963044 1148.09219,74.9019368 1147.85484,74.1501106 C1147.61725,73.3993085 1147.24612,72.4925315 1147.02857,72.1304654 C1146.59425,71.4076334 1146.63837,71.0467 1147.36827,69.2138266 C1147.71042,68.3588654 1148.36995,67.7458262 1148.91454,67.7777965 Z M1162.3476,86.9006067 C1162.09533,86.4807469 1160.61615,87.3182763 1160.60542,87.8871976 C1160.59309,88.6108286 1160.8399,88.6841895 1161.56834,88.1721863 C1162.46784,87.5394627 1162.60101,87.3223492 1162.3476,86.9006067 Z M1156.47368,79.7307981 L1156.44472,79.7369922 C1155.84015,80.11482 1155.98193,80.7191391 1156.93415,81.8099205 C1156.99598,81.8830092 1157.20001,81.8456952 1157.39929,81.7259556 C1157.66719,81.564985 1157.61821,81.2897021 1157.18571,80.5699074 C1156.8735,80.0503104 1156.54157,79.676728 1156.44472,79.7369922 Z M1075.23817,54.8626495 C1076.01687,54.8335529 1076.97137,55.6202202 1078.20842,57.3073218 C1078.37109,57.5298184 1078.60462,57.7633122 1078.7352,57.8327904 C1078.86658,57.9036009 1078.96933,58.0532331 1078.96948,58.1728277 C1078.96952,58.2852306 1079.12638,58.4840173 1079.30095,58.5914824 C1079.67735,58.823612 1080.59926,59.8383649 1080.78103,60.2189581 C1080.851,60.3646784 1081.22438,60.7953754 1081.6136,61.179391 C1082.0067,61.5656202 1082.66174,62.2662294 1083.0895,62.7549773 C1083.51642,63.2451364 1084.13388,63.8748946 1084.47776,64.1709537 C1084.81271,64.4605873 1085.26844,64.9887759 1085.47016,65.3238627 C1085.67748,65.6682759 1085.98567,66.0356138 1086.16688,66.1526991 C1086.60374,66.4347068 1087.92786,67.887342 1090.19639,70.5760625 C1091.2357,71.8069141 1092.19096,72.843372 1092.32342,72.8808886 C1092.71384,72.9930873 1093.28613,74.115069 1093.32344,74.8398008 C1093.35996,75.5632003 1092.93552,76.1541349 1092.44778,76.0585949 C1092.03353,75.9770106 1090.92233,76.6262195 1089.21478,77.9486262 C1087.84654,79.0076847 1084.63622,80.8904604 1083.13748,81.5136926 C1082.46874,81.7914582 1081.2127,81.888326 1080.62394,81.7092117 C1079.8208,81.4646354 1079.39157,80.977671 1078.54584,79.3550906 C1078.07172,78.4453319 1077.64704,77.4225126 1077.59431,77.0597231 C1077.54125,76.7062027 1077.39276,76.1506094 1077.27235,75.856519 C1076.97791,75.1427397 1076.60384,73.5917957 1076.46734,72.5239787 C1076.40698,72.0488076 1076.32486,71.6175169 1076.28275,71.5475684 C1076.15883,71.3417198 1075.38571,67.3544686 1075.28641,66.4130378 C1075.26698,66.2206873 1075.12715,65.7623473 1074.96671,65.3680517 C1074.8073,64.9740498 1074.68071,64.4506479 1074.6772,64.1780285 C1074.67434,63.9022932 1074.60906,63.5860275 1074.52605,63.448129 C1074.44143,63.3075658 1074.43271,63.0979096 1074.50419,62.9498652 C1074.57372,62.8084251 1074.50475,62.2894588 1074.34978,61.784895 C1074.19521,61.2809974 1074.10655,60.8037554 1074.15074,60.7128787 C1074.26677,60.4773673 1074.02758,59.1547069 1073.8014,58.7789834 C1073.69994,58.6104407 1073.61535,58.2087406 1073.61569,57.910234 C1073.61835,57.5495877 1073.47323,57.1751199 1073.20411,56.8460053 C1072.86519,56.4318202 1072.83178,56.2696115 1073.02086,55.9630874 C1073.2589,55.5764242 1074.65477,54.8834137 1075.23817,54.8626495 Z M1105.88772,46.3759114 C1106.32167,46.1600325 1107.18232,46.7221593 1107.86318,47.6636436 C1108.23412,48.1774474 1108.61382,48.59374 1108.71214,48.5965628 C1108.81008,48.5987462 1109.05937,48.880032 1109.25838,49.2106219 C1109.46624,49.5559188 1109.7963,49.8662192 1110.02321,49.9276853 C1110.27842,49.9974178 1110.46893,50.1921185 1110.5543,50.468151 C1110.62892,50.7097253 1110.75203,50.8934935 1110.834,50.8843678 C1111.05225,50.8622589 1112.80945,52.3879401 1113.7385,53.4068533 C1114.18477,53.8963627 1114.82997,54.580739 1115.15534,54.9095231 C1115.48799,55.2435058 1116.07753,55.8907694 1116.48146,56.3639005 C1116.88699,56.836937 1117.45584,57.4000092 1117.76308,57.6308782 C1118.06716,57.8592841 1118.58718,58.4159598 1118.91994,58.8691116 C1119.25347,59.3235422 1119.6806,59.7923288 1119.87258,59.914775 C1120.06104,60.0341187 1120.43014,60.3566883 1120.67654,60.6179506 C1120.93,60.885418 1121.39803,61.3723233 1121.72502,61.7079636 C1122.05139,62.0439708 1122.41375,62.4480425 1122.53413,62.6134332 C1122.6532,62.7752596 1122.9411,63.0238183 1123.16293,63.1570887 C1123.65187,63.4504282 1124.02536,64.6354345 1123.84026,65.3034428 C1123.77843,65.5258991 1123.7767,65.8150001 1123.83637,65.9141131 C1123.89834,66.0170628 1123.88771,66.3245645 1123.81382,66.5934137 C1123.70237,66.9935793 1123.46656,67.20376 1122.50558,67.7548719 C1121.86094,68.125824 1120.52303,69.0622639 1119.52552,69.8432813 C1117.40862,71.4975646 1115.28875,72.8881814 1115.17251,72.6950709 C1115.12863,72.6221748 1115.00522,72.6108963 1114.90424,72.6714589 C1114.80143,72.7331226 1114.41206,72.8639488 1114.04084,72.9612654 C1113.1781,73.1871417 1112.32306,72.6564652 1112.21631,71.8301746 C1112.16508,71.4309724 1112.06308,71.2615211 1111.75741,71.070616 C1111.44522,70.8757911 1111.26138,70.5413299 1110.84996,69.4164866 C1110.56789,68.6448702 1110.13677,67.5440279 1109.89581,66.9818592 C1109.45831,65.9562078 1109.10474,64.854114 1108.9716,64.1002188 C1108.93399,63.8869229 1108.73033,63.1500875 1108.5224,62.4767322 C1108.31523,61.8046557 1108.17837,61.170486 1108.22103,61.0822361 C1108.26592,60.9935245 1108.21528,60.7793399 1108.10712,60.5996576 C1107.99857,60.4193358 1107.70216,59.4813864 1107.44223,58.4919653 C1106.94294,56.6026194 1106.34267,54.6963714 1105.83836,53.3992235 C1105.67273,52.9746404 1105.36878,52.1874281 1105.17017,51.672093 C1104.9464,51.0900439 1104.61062,50.5142534 1104.3011,50.1785785 C1104.02125,49.8755865 1103.77593,49.5344795 1103.75177,49.4140779 C1103.69613,49.1376205 1104.87475,47.164459 1105.32585,46.7764229 C1105.50641,46.621135 1105.76628,46.4356915 1105.88772,46.3759114 Z M1135.59575,31.2269605 C1136.78569,30.3458066 1136.78569,30.3458066 1137.29166,30.7182144 C1137.5582,30.9161644 1137.78402,31.1850581 1137.80651,31.334825 C1137.82812,31.4800461 1137.91737,31.5559382 1138.00591,31.5028387 C1138.20001,31.3864284 1139.57878,32.4881203 1139.8953,33.0139097 C1140.01352,33.2103039 1140.42844,33.5484969 1140.79442,33.7468685 C1141.1604,33.94524 1141.54022,34.2266635 1141.61841,34.3565571 C1141.69586,34.4852077 1141.95801,34.6697153 1142.18394,34.7524556 C1142.40707,34.8351781 1142.7091,35.0735962 1142.82766,35.2613246 C1142.94804,35.450509 1143.27342,35.7400502 1143.52975,35.8840707 C1143.79359,36.0328854 1144.41249,36.5574888 1144.91029,37.0549109 C1145.40666,37.5514984 1145.90492,37.9572909 1146.02011,37.9592567 C1146.13493,37.960601 1146.49651,38.2994891 1146.8168,38.7037449 C1147.13746,39.1086223 1147.79576,39.6755759 1148.26576,39.9528221 C1148.73501,40.2288254 1149.11084,40.5236383 1149.0913,40.6004943 C1149.07274,40.6759119 1149.26751,40.8331646 1149.51578,40.9422562 C1149.77257,41.0547035 1150.18985,41.3136618 1150.46091,41.5283571 C1151.20855,42.1220851 1151.00508,42.7110447 1149.76474,43.545445 C1149.22523,43.9087737 1148.39352,44.6351354 1147.90832,45.1672125 C1147.42349,45.699911 1146.85747,46.2347798 1146.64566,46.36181 L1146.55863,46.4196344 C1146.38942,46.5431659 1146.25466,46.7080921 1146.24976,46.8081846 C1146.24282,46.929079 1146.0214,47.1540786 1145.74966,47.3170531 C1145.48133,47.4779853 1144.89279,47.9739125 1144.44106,48.4199345 C1143.99032,48.864518 1143.28428,49.4901348 1142.87098,49.8090635 C1142.14178,50.3715885 1142.08462,50.38134 1140.9654,50.1373483 C1139.94325,49.9129565 1139.73829,49.7880409 1139.17808,49.051444 C1138.35832,47.9714438 1137.93353,47.4936761 1137.70568,47.3892539 C1137.60225,47.3421654 1137.49542,46.8598015 1137.46884,46.318301 C1137.44196,45.7778304 1137.34517,45.0965805 1137.25488,44.8064601 C1137.16689,44.5217203 1137.12241,44.1229211 1137.15856,43.9396782 C1137.23143,43.5787684 1136.96939,42.4028157 1136.51758,41.0640696 C1136.35641,40.5838392 1136.20957,39.9241493 1136.18551,39.5731527 C1136.16211,39.2293835 1136.04133,38.7731418 1135.91899,38.5699111 C1135.7959,38.3654375 1135.7247,38.0900906 1135.76119,37.9582384 C1135.8308,37.7058635 1135.4965,36.8456273 1134.61382,35.0082308 C1133.84972,33.4186191 1134.13857,32.3047572 1135.59575,31.2269605 Z M1095.22113,4.93219568 L1095.29419,4.9390691 C1095.56164,5.00643337 1095.73567,5.22214945 1096.54492,6.50029866 C1096.69794,6.74155177 1097.13494,7.16105052 1097.5086,7.42354783 C1098.67258,8.24650633 1099.26429,8.73886648 1099.33372,8.94484021 C1099.42973,9.2323677 1101.24882,10.4328794 1101.42763,10.3256415 C1101.51226,10.2748847 1101.65704,10.3700943 1101.76503,10.5494898 C1101.87264,10.7282513 1102.07886,10.9470919 1102.24641,11.0614288 C1102.41003,11.1720915 1102.866,11.5310334 1103.27832,11.8721479 C1104.41607,12.8126498 1105.20218,13.4437976 1105.56185,13.7060619 C1105.74022,13.8354832 1106.16119,14.1981569 1106.50608,14.5193223 C1106.85123,14.8394722 1107.33391,15.2298441 1107.58671,15.3922743 C1108.05656,15.6937122 1108.33427,15.9982273 1109.76322,17.7778315 C1110.20172,18.3249841 1110.72535,18.8279776 1110.91913,18.8894873 C1111.44996,19.0577221 1112.34075,19.8900962 1112.43863,20.3102258 C1112.55368,20.7977109 1112.14518,21.5707258 1111.50807,22.0675769 C1111.21803,22.2950224 1110.79205,22.6807808 1110.5865,22.9032788 C1109.84091,23.7119443 1105.77021,27.0074839 1103.72873,28.454452 C1102.54478,29.2930817 1102.37578,29.3676931 1101.80268,29.2946922 C1101.44971,29.2492808 1101.09558,29.2623697 1100.99504,29.3226672 C1100.57762,29.5730162 1099.91019,29.1217555 1099.29555,28.1712129 C1098.67761,27.2123001 1097.66049,24.0019812 1097.44099,22.30801 C1097.39272,21.9314584 1097.26903,21.4137852 1097.17326,21.1813296 C1097.07203,20.9383499 1096.97413,20.5786222 1096.94784,20.353677 C1096.86059,19.6346947 1095.9901,16.2406682 1095.82067,15.9592139 C1095.73099,15.810246 1095.7197,15.6548168 1095.79415,15.6101661 C1095.86669,15.5666604 1095.81154,15.2347859 1095.67623,14.8905949 C1095.53647,14.5361321 1095.31406,13.8904419 1095.17801,13.4457515 C1094.89598,12.5226314 1094.12412,10.7915396 1093.07188,8.72560881 C1092.2964,7.20288341 1092.2739,6.53824268 1092.97579,5.95767172 C1093.54583,5.48464958 1094.97087,4.85947906 1095.29419,4.9390691 Z M1061.0121,3.65264632e-06 C1061.08898,-0.00141147681 1061.39471,0.408547918 1061.69212,0.911131311 C1062.16233,1.70358705 1062.88999,2.54057667 1063.69407,3.21078484 C1063.82332,3.31906347 1063.94679,3.4702463 1063.97699,3.55730368 C1064.10119,3.92539545 1065.5502,5.31219016 1066.2785,5.76142634 C1066.70249,6.02158453 1067.16191,6.41298242 1067.28595,6.6190364 C1067.41193,6.82830997 1067.77084,7.19322632 1068.08848,7.43566005 C1068.40612,7.67809378 1068.72821,7.98183785 1068.80884,8.11577294 C1068.8883,8.24777627 1069.37344,8.64215645 1069.87231,8.98272573 C1070.3719,9.32023397 1070.99077,9.84737141 1071.22942,10.1345505 C1071.46861,10.4240378 1071.86623,10.7894007 1072.10389,10.9387035 C1072.34716,11.0916519 1072.87056,11.5708805 1073.2876,12.0210023 C1073.70464,12.4711241 1074.11699,12.8311576 1074.21857,12.8324573 C1074.31726,12.8346188 1074.50203,13.002495 1074.62064,13.1995341 C1074.74119,13.3997928 1075.09208,13.7300864 1075.40405,13.9347274 C1075.71821,14.1415676 1076.18328,14.5891741 1076.45262,14.942954 C1077.0518,15.7325493 1077.13362,15.6414126 1073.87401,17.7646326 C1072.54728,18.6286964 1070.13212,20.2375663 1068.53521,21.3197623 L1068.53521,21.3197623 L1065.61852,23.2960285 L1064.38876,22.9205551 C1063.36381,22.6071686 1063.09776,22.4433425 1062.79037,21.9327154 C1062.58997,21.599809 1062.47155,21.2186113 1062.53037,21.0992016 C1062.69955,20.7558515 1062.44903,19.59326 1062.00355,18.6659103 C1061.77451,18.1889262 1061.54345,17.2942318 1061.48757,16.667824 C1061.3338,14.9266255 1061.16048,12.9202146 1061.10936,12.2804333 C1061.08337,11.9463419 1060.99328,11.5753185 1060.90296,11.4252854 C1060.81304,11.2758963 1060.76954,10.9084797 1060.80445,10.5790554 C1060.83858,10.2483432 1060.78567,9.85677482 1060.68153,9.67384259 C1060.57739,9.49091036 1060.47852,9.09535873 1060.45238,8.75960309 C1060.42802,8.42540278 1060.33702,8.05142728 1060.24399,7.8968868 C1060.1529,7.7455659 1060.09994,7.53982038 1060.12515,7.43268394 C1060.18146,7.19558699 1059.71208,5.64104744 1059.44533,5.18230013 C1059.33024,4.98402279 1059.3043,4.77347322 1059.38777,4.72340824 C1059.47439,4.67146113 1059.43286,4.44922179 1059.29642,4.22256241 C1058.9681,3.67716328 1058.89632,2.37582717 1059.16299,1.83115271 C1059.28299,1.58916326 1059.71504,1.07939196 1060.12695,0.696510423 C1060.53745,0.312717474 1060.93482,0.000774863413 1061.0121,3.65264632e-06 Z" id="Right-image"></path>
                </g>
            </g>
        </g>
    </g>
</svg>