<svg xmlns="http://www.w3.org/2000/svg" xmlns:xlink="http://www.w3.org/1999/xlink" viewBox="0 0 1442.01 775.64"><defs><style>.cls-1{isolation:isolate;}.cls-2{fill:#5054a4;}.cls-3{fill:#7a89d3;}.cls-4{fill-rule:evenodd;mix-blend-mode:multiply;fill:url(#linear-gradient);}</style><linearGradient id="linear-gradient" x1="759.45" y1="1072.03" x2="599.93" y2="93.07" gradientUnits="userSpaceOnUse"><stop offset="0.24" stop-color="#e4e8ef" stop-opacity="0"/><stop offset="0.98" stop-color="#afb3ba" stop-opacity="0.7"/></linearGradient></defs><title>Indigo gradient layer header bg-30</title><g class="cls-1"><g id="Layer_1" data-name="Layer 1"><rect class="cls-2" x="-23.04" y="-20.64" width="1484.37" height="807.74"/><path class="cls-3" d="M1330.45,48.56s-.06,3.72.41,4.19,4.19.41,4.19.41-3.86.08-4.19.4a26.42,26.42,0,0,0-.41,4.2s0-3.82-.41-4.2-4.19-.4-4.19-.4,3.84,0,4.19-.41S1330.45,48.56,1330.45,48.56Z"/><path class="cls-3" d="M1277.15,474.45s-.1,5.67.61,6.38,6.38.61,6.38.61-5.88.12-6.38.62-.61,6.38-.61,6.38-.05-5.8-.62-6.38-6.38-.62-6.38-.62,5.84-.07,6.38-.61S1277.15,474.45,1277.15,474.45Z"/><path class="cls-3" d="M546.08,467.46s-.09,5.67.62,6.38,6.37.61,6.37.61-5.87.12-6.37.62-.62,6.37-.62,6.37,0-5.79-.62-6.37-6.37-.62-6.37-.62,5.83-.08,6.37-.61S546.08,467.46,546.08,467.46Z"/><path class="cls-3" d="M154.75,415.09s-.1,5.67.61,6.38,6.38.62,6.38.62-5.88.11-6.38.61-.61,6.38-.61,6.38-.05-5.8-.62-6.38-6.38-.61-6.38-.61,5.84-.08,6.38-.62S154.75,415.09,154.75,415.09Z"/><path class="cls-3" d="M279,116.61s-.09,5.66.62,6.37,6.37.62,6.37.62-5.87.12-6.37.61-.62,6.38-.62,6.38,0-5.8-.62-6.38-6.37-.61-6.37-.61,5.83-.08,6.37-.62S279,116.61,279,116.61Z"/><path class="cls-3" d="M1341.49,332.89s-.06,3.73.41,4.2,4.19.4,4.19.4-3.86.08-4.19.41a26.3,26.3,0,0,0-.41,4.19s0-3.81-.41-4.19-4.19-.41-4.19-.41,3.84-.05,4.19-.4S1341.49,332.89,1341.49,332.89Z"/><path class="cls-3" d="M1011.36,440s-.06,3.72.4,4.19,4.2.41,4.2.41-3.87.07-4.2.4a26.21,26.21,0,0,0-.4,4.19s0-3.81-.41-4.19-4.19-.4-4.19-.4,3.84-.06,4.19-.41S1011.36,440,1011.36,440Z"/><path class="cls-3" d="M928,34.14s-.06,3.73.41,4.2,4.19.4,4.19.4-3.87.08-4.19.41a26.3,26.3,0,0,0-.41,4.19s0-3.81-.41-4.19-4.19-.41-4.19-.41,3.84-.05,4.19-.4S928,34.14,928,34.14Z"/><path class="cls-3" d="M317.6,128.81s-.06,3.73.4,4.2,4.2.4,4.2.4-3.87.08-4.2.41a26.21,26.21,0,0,0-.4,4.19s0-3.81-.41-4.19-4.19-.41-4.19-.41,3.84,0,4.19-.4S317.6,128.81,317.6,128.81Z"/><path class="cls-3" d="M67.56,80.49s-.06,3.73.41,4.19,4.19.41,4.19.41-3.86.08-4.19.41a26.19,26.19,0,0,0-.41,4.19s0-3.82-.4-4.19-4.2-.41-4.2-.41,3.84,0,4.2-.41S67.56,80.49,67.56,80.49Z"/><path class="cls-3" d="M313,302.68s-.06,3.73.4,4.2,4.2.4,4.2.4-3.87.08-4.2.41a27.42,27.42,0,0,0-.4,4.19s0-3.81-.41-4.19-4.19-.41-4.19-.41,3.84,0,4.19-.4S313,302.68,313,302.68Z"/><path class="cls-3" d="M237.66,57.76s-.06,3.72.41,4.19,4.19.41,4.19.41-3.86.07-4.19.4a26.42,26.42,0,0,0-.41,4.2s0-3.82-.41-4.2-4.19-.4-4.19-.4,3.84-.06,4.19-.41S237.66,57.76,237.66,57.76Z"/><path class="cls-3" d="M1234.26,180.55s-.06,3.72.41,4.19,4.19.4,4.19.4-3.87.08-4.19.41a26.3,26.3,0,0,0-.41,4.19s0-3.81-.41-4.19-4.19-.41-4.19-.41,3.84,0,4.19-.4S1234.26,180.55,1234.26,180.55Z"/><path class="cls-3" d="M1351.36,342.28s-.09,5.67.62,6.38,6.38.62,6.38.62-5.88.11-6.38.61-.62,6.38-.62,6.38,0-5.8-.61-6.38-6.38-.61-6.38-.61,5.84-.08,6.38-.62S1351.36,342.28,1351.36,342.28Z"/><path class="cls-4" d="M1535.89,384.76c-127.67-163.85-271.8-154.75-446.6-43.39-262.19,167-470,126.73-640.43-26.24C302,169.63,74.05,125.62-100.63,319c-116.45,128.9-133.86,294.81-52.22,477.75L1526,828Z"/></g></g></svg>